<?xml version="1.0" standalone="no"?>
<!DOCTYPE svg PUBLIC "-//W3C//DTD SVG 20010904//EN"
 "http://www.w3.org/TR/2001/REC-SVG-20010904/DTD/svg10.dtd">
<svg version="1.0" xmlns="http://www.w3.org/2000/svg"
 width="1129.000000pt" height="791.000000pt" viewBox="0 0 1129.000000 791.000000"
 preserveAspectRatio="xMidYMid meet">
<metadata>
Created by potrace 1.16, written by Peter Selinger 2001-2019
</metadata>
<g transform="translate(0.000000,791.000000) scale(0.100000,-0.100000)"
fill="#000000" stroke="none">
<path d="M6894 7698 c-4 -6 -21 -37 -37 -67 -16 -31 -50 -85 -74 -120 l-45
-65 24 -18 c12 -9 25 -18 28 -18 3 0 21 23 40 51 19 28 45 63 58 77 l22 27 21
-25 c12 -14 32 -46 45 -72 25 -48 37 -56 64 -38 12 8 11 17 -12 63 -15 30 -24
58 -21 61 4 3 39 6 80 6 71 0 73 1 73 25 l0 25 -108 0 c-60 0 -111 3 -115 6
-3 3 2 21 10 40 9 19 15 35 12 37 -13 12 -59 16 -65 5z"/>
<path d="M7230 7684 c-6 -16 -34 -75 -62 -132 -44 -86 -50 -105 -38 -112 31
-20 47 -9 85 55 48 83 64 83 123 -2 39 -56 45 -61 63 -50 25 16 24 29 -6 65
-29 35 -32 54 -7 51 9 -1 47 -1 85 0 65 1 67 2 67 26 l0 25 -131 0 c-147 0
-134 -8 -113 68 5 16 2 22 -9 22 -8 0 -22 3 -31 6 -11 4 -19 -3 -26 -22z"/>
<path d="M5957 7448 c-5 -285 -17 -355 -82 -476 -33 -62 -34 -68 -18 -79 9 -7
21 -13 26 -13 12 0 83 155 97 213 7 26 16 49 20 52 4 2 24 -25 45 -60 39 -68
42 -70 64 -56 20 13 8 46 -48 131 -47 70 -50 79 -51 138 0 57 4 69 39 120 37
55 71 115 71 126 0 3 -9 10 -19 16 -17 8 -23 3 -48 -38 l-28 -47 -5 110 c-5
110 -5 110 -31 113 l-26 3 -6 -253z"/>
<path d="M6225 7690 c-3 -5 -5 -43 -4 -82 2 -48 -2 -73 -9 -76 -7 -2 -12 6
-12 17 0 37 -38 26 -55 -16 -9 -20 -27 -52 -41 -70 -21 -27 -23 -37 -14 -48
14 -17 40 -20 40 -5 0 19 26 10 54 -19 l27 -28 -28 -19 c-15 -10 -44 -27 -63
-37 -49 -27 -52 -31 -36 -53 15 -19 16 -19 55 4 47 26 49 26 47 9 -2 -22 61
-87 79 -81 25 10 17 36 -21 75 l-36 37 52 48 c61 57 103 124 98 156 -2 19 -10
24 -40 26 -33 3 -38 7 -38 28 0 22 4 24 50 24 47 0 50 2 50 25 0 23 -3 25 -49
25 -49 0 -50 1 -53 33 -2 24 -8 33 -25 35 -11 2 -24 -2 -28 -8z m69 -219 c4
-5 -6 -23 -20 -40 l-26 -31 -33 27 c-49 41 -45 53 19 53 30 0 57 -4 60 -9z"/>
<path d="M3845 7633 c-61 -85 -105 -235 -105 -358 1 -126 51 -287 116 -372 18
-24 33 -33 55 -33 16 0 29 3 29 6 0 3 -16 31 -35 62 -71 116 -102 266 -85 414
14 116 38 188 94 277 14 22 26 43 26 46 0 3 -13 5 -30 5 -24 0 -36 -9 -65 -47z"/>
<path d="M4090 7620 l0 -30 183 -2 182 -3 -65 -36 c-73 -41 -222 -103 -288
-119 -38 -10 -42 -14 -36 -33 3 -12 10 -26 15 -32 12 -12 112 21 238 81 51 24
98 44 102 44 5 0 9 -31 9 -70 l0 -70 36 0 36 0 -4 62 c-2 53 0 63 14 66 10 2
86 -20 170 -48 84 -28 158 -48 166 -45 7 3 12 15 10 27 -3 20 -21 29 -138 66
-74 24 -152 49 -174 55 l-38 11 26 23 c26 22 35 23 167 23 l139 0 0 30 0 30
-375 0 -375 0 0 -30z"/>
<path d="M5334 7625 c-4 -14 -4 -28 -1 -31 3 -3 38 -7 79 -7 l73 -2 -3 -30
c-5 -52 -8 -55 -67 -55 l-55 0 0 -225 0 -225 170 0 170 0 0 225 0 225 -80 0
c-87 0 -89 2 -69 58 7 19 17 31 27 30 10 -1 52 0 95 0 l78 2 -3 28 -3 27 -202
3 -203 2 -6 -25z m311 -215 l0 -35 -115 0 c-113 0 -115 0 -118 23 -7 49 -1 52
120 49 l113 -2 0 -35z m0 -130 l0 -35 -115 0 c-113 0 -115 0 -118 23 -7 50 -1
53 120 50 l113 -3 0 -35z m3 -132 l-3 -33 -115 0 -115 0 -3 33 -3 32 121 0
121 0 -3 -32z"/>
<path d="M4970 7610 l0 -30 163 2 162 3 0 25 0 25 -162 3 -163 2 0 -30z"/>
<path d="M6402 7583 c1 -39 8 -55 35 -86 18 -20 33 -42 33 -47 0 -12 -72 -65
-117 -87 -35 -16 -38 -20 -24 -42 13 -20 51 -7 122 41 l61 42 34 -39 c19 -22
34 -43 34 -47 0 -14 27 -9 40 7 10 12 5 24 -28 68 l-41 52 34 69 c19 37 33 77
31 89 -3 21 -9 22 -109 25 l-107 3 2 -48z m151 -9 c7 -8 -18 -60 -34 -69 -11
-7 -79 51 -79 67 0 9 104 11 113 2z"/>
<path d="M5841 7538 c0 -7 10 -65 23 -128 20 -102 24 -115 42 -112 29 6 29 7
16 80 -26 157 -32 172 -58 172 -13 0 -24 -6 -23 -12z"/>
<path d="M5000 7360 c0 -128 0 -130 23 -130 18 -1 19 -2 6 -10 -15 -9 -14 -18
7 -107 13 -54 24 -101 24 -105 0 -4 -25 -10 -55 -13 -52 -7 -55 -9 -55 -36 0
-34 -7 -34 162 -14 193 23 202 26 206 59 l4 29 -51 -6 c-28 -3 -51 -3 -51 1 0
4 9 41 21 82 11 41 19 85 16 97 -2 13 2 24 10 27 11 5 13 31 11 128 l-3 123
-137 3 -138 3 0 -131z m220 0 l0 -71 -82 3 -83 3 -3 54 c-5 80 -4 81 88 81
l80 0 0 -70z m-21 -157 c-1 -50 -44 -188 -60 -191 -10 -2 -20 22 -37 85 -12
49 -25 98 -28 111 -6 21 -4 22 60 22 66 0 66 0 65 -27z"/>
<path d="M7358 7415 c-8 -9 -338 -35 -437 -35 -92 0 -93 0 -87 -22 3 -13 6
-26 6 -30 0 -5 59 -8 130 -8 l130 0 0 -50 0 -50 -175 0 -175 0 0 -30 0 -30
163 0 c90 0 166 -3 170 -6 11 -11 -20 -59 -62 -97 -50 -45 -93 -67 -198 -102
-46 -15 -83 -29 -83 -30 0 -2 5 -16 10 -30 9 -24 14 -26 45 -21 49 10 172 62
227 97 46 30 100 83 111 111 4 10 10 8 21 -7 46 -57 105 -107 164 -138 65 -34
191 -82 198 -74 2 1 5 18 6 37 3 32 1 34 -46 46 -77 20 -174 74 -232 129 -87
82 -82 86 99 85 83 -1 158 -1 165 0 7 0 12 13 12 30 l0 30 -175 0 -175 0 0 54
0 54 43 6 c23 3 79 8 125 12 86 7 94 13 72 55 -10 17 -40 26 -52 14z"/>
<path d="M4110 7290 l0 -30 163 -2 162 -3 0 -140 0 -140 -80 0 -80 0 -3 107
c-2 93 -5 108 -21 113 -45 14 -51 -1 -51 -116 l0 -109 -70 0 c-68 0 -70 -1
-70 -25 l0 -25 400 0 400 0 0 25 0 25 -177 2 -178 3 -3 58 -3 57 136 0 135 0
0 30 0 29 -132 3 -133 3 0 50 0 50 155 5 155 5 0 25 0 25 -352 3 -353 2 0 -30z"/>
<path d="M6481 7253 c-32 -44 -33 -47 -16 -59 22 -16 31 -10 70 46 50 72 -1
85 -54 13z"/>
<path d="M6338 7223 l-3 -58 -112 -3 c-113 -3 -113 -3 -113 -27 0 -24 3 -25
63 -26 34 -1 85 -2 112 -3 l50 -1 3 -117 3 -118 24 0 25 0 0 118 0 119 117 2
c64 1 118 3 119 4 1 1 4 11 6 22 3 19 -3 20 -119 23 l-123 3 0 59 c0 57 -1 60
-25 60 -22 0 -24 -4 -27 -57z"/>
<path d="M6224 7048 c-10 -11 -46 -41 -79 -66 -63 -47 -70 -58 -43 -75 13 -9
27 -2 70 30 29 22 68 54 86 70 31 29 31 30 14 46 -24 21 -25 21 -48 -5z"/>
<path d="M6445 7053 c-5 -13 3 -25 27 -43 18 -14 55 -45 81 -70 39 -36 52 -42
65 -33 9 5 17 15 17 22 0 14 -154 141 -171 141 -7 0 -15 -8 -19 -17z"/>
<path d="M5350 6970 c-93 -59 -102 -71 -76 -98 11 -12 19 -11 47 4 48 24 169
106 169 113 -1 11 -27 41 -36 41 -5 -1 -52 -28 -104 -60z"/>
<path d="M5574 7008 c-5 -16 -2 -25 11 -33 9 -5 46 -31 81 -57 35 -27 68 -48
73 -48 14 0 33 38 26 50 -11 17 -153 110 -169 110 -8 0 -18 -10 -22 -22z"/>
<path d="M2980 6640 c0 -5 -6 -10 -14 -10 -8 0 -18 -10 -21 -22 -10 -32 -52
-85 -76 -99 -25 -13 -39 -2 -54 43 l-11 31 -99 0 c-100 0 -170 -18 -203 -50
-7 -7 -17 -13 -20 -13 -4 0 -19 -11 -34 -25 -42 -39 -99 -75 -119 -75 -19 0
-26 16 -28 70 -2 49 -14 56 -55 31 -52 -32 -106 -26 -125 14 -17 37 -28 44
-53 37 -11 -3 -24 3 -33 14 -15 21 -10 23 -99 -39 -47 -33 -58 -37 -76 -27
-24 13 -50 -1 -50 -26 0 -27 -100 -48 -115 -24 -3 6 -19 10 -36 10 -24 0 -29
-4 -29 -23 0 -38 -19 -47 -95 -47 -57 0 -75 4 -88 18 -10 10 -17 21 -17 24 0
8 -89 98 -96 98 -3 0 -2 -20 2 -45 6 -43 -13 -123 -36 -148 -4 -5 -32 -4 -61
2 -30 6 -70 13 -90 16 -21 3 -50 18 -67 35 -38 36 -71 45 -120 34 -20 -4 -78
-7 -128 -6 -50 2 -103 -2 -117 -7 l-27 -11 0 -2977 c0 -1638 3 -2988 6 -2999
3 -12 21 -30 40 -40 40 -22 49 -60 11 -49 -12 4 -28 14 -34 23 -7 8 -16 12
-20 9 -6 -6 8 -20 51 -49 13 -9 25 -130 14 -144 -5 -7 -22 -14 -38 -18 l-30
-6 0 -85 0 -85 88 0 87 0 0 33 c0 27 3 32 25 32 17 0 31 -10 45 -32 l20 -32
588 -1 589 0 -7 49 c-7 52 0 91 16 91 5 0 9 -12 9 -26 0 -14 5 -45 11 -70 l11
-44 59 2 c49 2 59 5 59 20 0 10 -4 18 -10 18 -5 0 -10 8 -10 18 0 9 -11 38
-24 63 -37 69 -36 160 2 198 13 13 14 12 6 -9 -9 -28 -9 -36 2 -100 4 -25 15
-57 26 -72 10 -15 31 -51 46 -80 27 -51 30 -53 73 -56 41 -3 47 0 59 25 l14
28 4 -28 c3 -21 9 -27 28 -27 30 0 30 5 0 44 -12 17 -29 48 -37 69 -7 22 -21
43 -30 48 -9 4 -22 22 -29 39 -7 16 -16 30 -21 30 -5 0 -9 6 -9 14 0 7 -7 27
-15 42 -25 49 -19 105 20 180 39 75 84 138 92 130 3 -3 -2 -17 -11 -30 -9 -14
-16 -34 -16 -44 0 -10 -7 -27 -15 -38 -8 -10 -15 -27 -15 -36 0 -10 -4 -18
-10 -18 -6 0 -10 -26 -10 -58 0 -50 5 -66 30 -100 17 -23 30 -44 30 -47 0 -2
14 -26 30 -52 17 -26 30 -54 30 -62 0 -19 49 -71 67 -71 7 0 18 -9 25 -20 12
-19 24 -20 170 -20 136 0 157 2 152 15 -4 8 -11 15 -18 15 -18 1 -56 37 -56
54 0 13 -4 14 -25 4 -22 -10 -31 -7 -73 23 -26 18 -57 46 -70 61 -13 15 -32
30 -42 33 -11 4 -20 12 -20 18 0 7 -8 20 -17 28 -36 32 -61 67 -73 103 -6 19
-16 38 -21 41 -12 8 -12 77 0 107 5 13 18 34 30 48 43 52 101 136 101 147 0 5
14 22 30 38 17 16 30 34 30 40 0 6 11 22 25 35 14 13 25 30 25 37 0 8 8 17 18
20 9 4 20 11 24 17 5 8 8 7 8 0 0 -7 -11 -22 -25 -35 -13 -13 -25 -31 -25 -40
0 -9 -9 -24 -20 -34 -11 -10 -20 -23 -20 -29 0 -6 -18 -39 -40 -74 -22 -34
-40 -65 -40 -68 0 -3 -15 -24 -34 -45 -45 -53 -55 -113 -28 -172 11 -23 22
-50 26 -60 3 -10 19 -25 36 -35 16 -9 32 -25 35 -34 9 -26 75 -86 103 -93 14
-3 45 -24 70 -46 25 -21 49 -39 54 -39 5 0 7 -4 4 -8 -2 -4 11 -18 30 -31 19
-13 34 -27 34 -32 0 -5 17 -9 37 -9 29 0 34 3 25 12 -7 7 -12 20 -12 30 0 10
-4 18 -10 18 -5 0 -10 9 -10 21 0 11 -8 33 -18 47 -10 15 -27 45 -37 67 -25
56 -58 96 -149 187 -57 57 -84 93 -101 133 -12 30 -24 53 -27 50 -2 -3 -2 -27
2 -55 5 -38 4 -47 -6 -39 -9 7 -18 0 -34 -26 -12 -19 -26 -33 -30 -30 -5 3 -9
29 -8 58 0 47 3 54 33 77 19 14 36 33 38 43 3 9 10 17 16 17 6 0 8 -8 4 -17
-6 -16 -4 -16 15 1 14 12 20 26 16 38 -3 10 -1 18 5 18 6 0 11 -4 11 -10 0
-30 109 55 217 170 4 5 23 23 41 39 17 17 32 34 32 38 0 4 21 52 47 105 64
130 77 131 48 4 -8 -35 -13 -71 -10 -78 3 -8 1 -27 -4 -41 -7 -17 -7 -27 -1
-27 6 0 10 -15 10 -34 0 -18 7 -39 15 -46 20 -16 10 -48 -22 -74 -14 -10 -33
-28 -43 -39 -25 -27 -60 -15 -60 21 -1 15 -7 38 -15 52 -12 22 -14 23 -20 7
-10 -25 3 -84 20 -91 8 -3 15 -12 15 -20 0 -16 60 -119 72 -124 4 -2 21 -32
38 -66 17 -35 48 -83 68 -109 20 -25 59 -76 86 -112 27 -36 62 -75 77 -86 16
-11 38 -37 49 -57 39 -69 51 -72 325 -72 201 0 244 2 248 14 6 15 47 11 47 -5
0 -5 61 -9 135 -9 74 0 135 2 135 5 0 3 -13 31 -30 62 -33 62 -38 91 -15 99
26 10 65 -25 90 -83 14 -30 25 -62 25 -69 0 -8 10 -14 25 -14 14 0 25 5 25 10
0 6 9 10 19 10 24 0 36 16 19 26 -8 5 -7 9 4 13 23 9 5 49 -29 63 l-28 12 34
4 c23 2 40 -3 55 -17 30 -28 51 -28 36 -1 -6 11 -19 20 -29 20 -10 0 -24 7
-31 15 -7 8 -20 15 -29 15 -22 1 -54 27 -47 38 3 6 0 12 -6 15 -7 2 -10 7 -6
11 3 4 15 3 27 -3 32 -18 34 5 2 28 -34 24 -76 29 -68 7 3 -7 1 -18 -5 -24
-13 -13 -2 -32 20 -32 11 0 6 -6 -12 -15 -58 -31 -110 -12 -90 33 4 9 6 21 5
26 -3 15 22 26 49 20 15 -3 6 4 -20 17 -41 21 -58 23 -187 23 -125 -1 -142 1
-146 16 -3 14 -13 16 -51 13 -25 -2 -46 -2 -46 1 0 2 32 14 71 26 50 16 83 20
113 16 22 -3 70 -8 106 -10 36 -2 86 -7 113 -11 33 -5 47 -4 47 4 0 6 -4 11
-10 11 -5 0 -10 9 -10 20 0 13 -7 20 -19 20 -10 0 -33 5 -51 11 -27 10 -30 13
-16 21 25 14 20 29 -26 71 l-43 40 -170 -6 c-93 -3 -186 -10 -205 -15 -20 -5
-45 -5 -57 -1 -28 10 -115 -13 -149 -40 -35 -27 -42 -26 -54 5 -7 17 -15 24
-25 20 -20 -7 -19 4 3 20 9 7 34 14 54 14 20 0 40 4 43 10 6 10 52 23 115 34
33 6 36 9 36 41 0 32 -3 35 -29 35 -15 0 -26 4 -22 9 3 5 -5 12 -17 14 -18 3
-16 5 8 6 16 0 35 -4 40 -9 8 -8 19 -7 37 1 45 21 30 29 -50 29 -84 0 -157
-15 -148 -30 3 -6 -2 -26 -11 -45 -9 -20 -14 -39 -10 -42 7 -7 -13 -33 -26
-33 -5 0 -4 9 2 20 9 16 8 20 -5 20 -19 0 -19 23 1 61 l15 30 -46 -6 c-39 -6
-44 -5 -39 9 8 22 -12 20 -43 -4 -14 -11 -34 -20 -44 -20 -34 0 -21 -36 44
-124 34 -47 85 -117 112 -155 28 -39 55 -71 60 -71 21 0 44 -40 42 -70 -2 -37
-29 -40 -57 -7 -11 12 -56 61 -100 108 -45 48 -89 100 -98 117 -28 49 -74 117
-83 120 -11 4 -83 150 -102 207 -27 76 9 302 55 354 89 99 140 133 98 65 -50
-81 -90 -206 -91 -285 0 -74 1 -85 15 -114 8 -16 20 -43 26 -60 6 -16 19 -41
30 -55 l19 -25 22 28 c12 16 32 33 46 38 14 5 23 15 21 25 -6 32 22 27 28 -5
4 -17 9 -31 12 -31 13 0 88 24 96 32 14 12 66 10 66 -3 0 -7 46 -10 133 -10
72 0 180 -2 239 -5 114 -7 141 -3 133 18 -4 9 -27 13 -73 14 -37 0 -78 3 -91
7 -14 4 -41 2 -60 -4 -30 -9 -44 -7 -81 10 l-45 21 38 0 c67 0 39 20 -30 21
-65 1 -66 1 -28 11 22 5 54 7 70 4 17 -3 37 -1 45 4 11 7 0 10 -40 11 -114 3
-144 -1 -162 -24 -10 -12 -23 -28 -28 -34 -13 -16 -66 -17 -76 -2 -4 7 -22 9
-44 6 -21 -2 -44 -1 -51 4 -10 6 -9 8 6 9 68 3 92 7 110 18 17 10 10 11 -42
12 -36 0 -63 -4 -63 -10 0 -5 -13 -10 -30 -10 -19 0 -28 -4 -25 -13 5 -12 -48
-42 -62 -34 -5 2 -17 1 -27 -2 -27 -10 -59 23 -53 54 2 14 -1 26 -9 29 -9 3
-13 24 -11 65 1 48 5 61 19 64 22 6 24 27 3 27 -19 0 -19 14 0 30 9 7 14 19
11 26 -8 20 17 63 39 67 11 3 34 3 50 2 17 -1 38 -3 48 -4 15 -1 17 -6 12 -31
-9 -39 9 -39 25 0 9 21 19 30 36 30 15 0 24 6 24 16 0 13 19 56 52 114 4 8 12
24 17 35 11 26 38 49 78 66 19 8 33 22 35 34 2 13 12 21 31 23 30 4 37 -15 10
-25 -27 -9 -53 -34 -53 -50 0 -8 -9 -22 -20 -31 -12 -10 -22 -28 -22 -42 -1
-14 -10 -40 -20 -58 -10 -18 -18 -43 -18 -56 0 -14 -6 -26 -12 -29 -7 -2 -10
-7 -7 -11 4 -4 19 5 34 19 26 27 26 27 32 5 4 -16 8 -18 14 -8 8 11 11 11 18
-1 6 -10 19 -12 46 -7 25 5 35 4 30 -3 -17 -28 42 3 72 38 13 14 23 36 23 49
0 12 4 22 9 22 11 0 41 57 41 79 1 22 68 71 97 71 26 0 30 -12 8 -30 -8 -7
-15 -21 -15 -32 0 -10 -7 -21 -15 -24 -8 -4 -15 -11 -15 -18 0 -9 -27 -68 -68
-148 -6 -11 82 -5 91 6 6 8 10 7 14 -2 8 -19 106 -62 143 -62 26 0 30 3 21 14
-6 7 -23 12 -39 10 -15 -2 -21 -1 -14 2 23 11 12 26 -15 21 -28 -5 -53 0 -53
12 0 10 77 5 120 -8 l35 -10 -32 28 c-18 15 -33 31 -33 34 0 17 43 4 69 -21
15 -15 36 -32 47 -38 10 -6 23 -20 29 -32 5 -12 15 -22 21 -22 28 0 102 -49
156 -103 43 -43 63 -57 76 -52 12 5 13 9 5 12 -7 3 -13 10 -13 16 0 12 -25 29
-62 43 -10 3 -18 10 -18 15 0 18 -47 57 -80 65 l-35 8 45 6 c47 6 80 -9 80
-36 0 -16 58 -74 74 -74 6 0 22 -9 36 -20 20 -16 22 -20 8 -20 -10 0 -18 -4
-18 -8 0 -7 42 -9 83 -3 4 1 -23 29 -60 64 -38 34 -90 85 -118 112 -73 73
-134 120 -184 139 -33 13 -46 14 -51 5 -8 -13 -30 -4 -30 12 0 19 61 69 85 69
33 0 40 -17 10 -24 -34 -9 -31 -18 12 -41 20 -11 58 -36 83 -56 46 -36 90 -63
90 -55 0 2 -19 24 -43 48 -43 45 -59 88 -31 88 24 0 84 -28 84 -39 0 -6 -7
-14 -15 -19 -14 -7 -12 -13 10 -45 13 -21 31 -51 40 -66 8 -16 41 -54 72 -84
32 -30 91 -86 131 -124 73 -70 93 -99 46 -68 -14 9 -28 14 -31 12 -5 -6 81
-139 100 -155 6 -5 23 -9 37 -8 14 1 37 -1 52 -5 43 -12 41 4 -7 51 -25 24
-45 50 -45 57 0 20 85 -43 131 -98 25 -30 45 -46 49 -39 9 15 35 3 73 -32 18
-16 48 -36 66 -44 38 -16 102 -83 130 -135 20 -36 41 -49 41 -25 0 18 25 22
35 6 4 -6 24 -19 45 -30 43 -22 110 -104 160 -195 43 -80 50 -86 45 -39 -2 21
-2 32 1 24 2 -8 19 -23 36 -33 17 -10 28 -20 25 -24 -4 -3 2 -13 12 -22 12
-10 16 -23 11 -35 -8 -24 -40 -30 -40 -8 0 10 -9 23 -20 30 -17 10 -20 10 -20
-5 0 -24 9 -35 47 -55 39 -22 43 -22 43 0 0 10 7 4 16 -15 9 -18 23 -33 30
-33 8 0 14 2 14 5 0 14 -51 103 -74 130 -14 17 -26 36 -26 43 0 6 -4 12 -10
12 -5 0 -10 7 -10 15 0 21 13 19 34 -4 10 -11 25 -17 33 -14 12 5 14 1 9 -14
-4 -13 1 -26 14 -38 12 -11 35 -45 52 -77 30 -56 50 -71 62 -45 5 9 7 9 12 0
9 -21 51 -16 57 7 7 26 46 26 80 0 25 -20 40 -20 741 -20 445 0 716 4 716 9 0
6 -22 37 -50 70 -27 33 -50 66 -50 73 0 19 46 101 110 198 30 46 60 102 65
124 8 31 15 42 33 44 12 2 22 -1 22 -7 0 -6 -4 -11 -10 -11 -5 0 -10 -7 -10
-15 0 -8 5 -15 10 -15 6 0 10 -18 10 -40 0 -40 13 -53 24 -25 10 27 29 17 22
-13 -3 -15 -3 -21 0 -14 3 6 10 12 16 12 7 0 9 -19 5 -55 -5 -50 -3 -57 23
-85 15 -16 35 -30 44 -30 8 0 41 -25 72 -56 31 -30 72 -63 90 -72 18 -9 63
-34 100 -54 57 -32 78 -38 126 -38 32 0 58 2 58 3 0 14 -65 189 -80 218 -11
20 -20 44 -20 53 0 9 -6 18 -12 20 -107 33 -125 37 -148 27 l-25 -10 25 -1
c18 0 21 -3 11 -9 -13 -9 -66 19 -103 54 -9 9 -33 62 -54 118 -20 56 -46 119
-56 139 -23 48 -24 113 -2 122 24 9 82 -4 88 -20 3 -8 10 -14 15 -14 6 0 0 24
-13 53 -12 28 -33 86 -45 127 -13 41 -29 89 -36 105 -6 17 -18 53 -25 80 -18
75 -6 98 67 119 53 16 111 39 218 87 43 19 142 44 216 53 50 7 142 50 204 96
22 16 66 39 97 51 31 11 58 24 60 28 5 11 172 94 283 140 55 24 119 51 143 62
23 10 47 19 53 19 6 0 25 6 42 14 57 26 171 73 243 101 40 15 83 38 97 51 15
13 30 24 36 24 5 0 11 4 13 8 5 13 123 83 181 108 200 85 256 105 367 134 146
37 181 50 275 107 69 43 140 110 151 146 8 25 -24 59 -48 51 -13 -4 -28 4 -48
26 -18 20 -38 31 -52 30 -36 -3 -41 -1 -29 14 8 10 6 19 -9 39 -15 19 -20 40
-20 85 0 58 -9 86 -52 167 -12 22 -32 60 -45 84 -13 25 -29 52 -37 60 -8 9
-16 30 -18 46 -2 17 -15 45 -28 63 -14 19 -26 38 -26 43 -1 5 -2 15 -3 23 0 7
-11 28 -24 47 -12 19 -31 57 -41 84 -10 28 -25 57 -32 66 -8 8 -14 23 -14 32
0 9 -8 32 -19 50 -10 18 -22 53 -25 77 -4 30 -14 52 -31 66 -14 12 -25 25 -25
29 0 5 -7 16 -16 26 -8 9 -22 41 -29 70 -8 29 -18 55 -23 58 -10 8 -34 65 -31
77 4 16 -20 64 -35 70 -8 3 -19 24 -25 48 -6 23 -19 50 -29 59 -11 10 -19 32
-20 52 -1 34 -46 124 -80 160 -20 22 -40 58 -66 118 -8 20 -20 37 -25 37 -10
0 -29 45 -33 80 -2 14 -6 30 -10 35 -3 6 -9 26 -12 45 -9 46 -27 82 -49 98 -9
7 -17 23 -17 34 0 23 -46 108 -59 108 -18 0 -49 40 -44 59 3 11 -4 46 -15 78
-11 32 -23 73 -27 91 -4 17 -11 32 -16 32 -5 0 -9 11 -9 24 0 13 -7 29 -16 36
-9 8 -14 25 -12 44 4 37 49 64 116 67 23 2 42 6 42 9 0 4 -29 17 -65 29 -72
26 -145 73 -145 95 0 16 13 21 73 32 27 4 37 11 37 25 0 11 -7 19 -17 20 -10
0 -27 2 -38 4 -11 2 -40 6 -65 8 -87 10 -97 23 -54 68 25 26 25 27 6 33 -25 8
-25 44 0 52 10 3 23 14 28 24 5 10 22 20 37 22 45 5 40 28 -6 28 -22 0 -64 6
-93 13 -29 8 -98 15 -153 16 -55 1 -127 9 -160 17 -148 39 -318 33 -497 -17
-40 -11 -95 -26 -123 -34 -53 -14 -367 -115 -525 -170 -52 -18 -133 -45 -180
-60 -92 -28 -162 -57 -280 -114 -71 -35 -75 -38 -76 -71 0 -19 4 -41 9 -48 6
-7 12 -27 14 -43 2 -17 10 -40 18 -52 19 -27 19 -37 0 -37 -8 0 -15 -4 -15
-10 0 -5 5 -10 10 -10 6 0 10 -12 10 -27 0 -56 29 -126 66 -160 32 -29 34 -33
15 -33 -27 0 -28 -26 -1 -40 11 -6 20 -19 20 -28 0 -10 4 -22 9 -28 5 -5 12
-26 16 -46 6 -34 5 -36 -14 -31 -12 3 -21 1 -21 -6 0 -6 7 -11 15 -11 8 0 15
-6 15 -13 0 -8 9 -22 20 -32 26 -24 25 -37 -2 -33 -21 3 -23 -1 -23 -37 l1
-40 58 4 c39 2 56 0 52 -7 -4 -7 19 -10 71 -7 46 3 73 1 67 -5 -5 -5 -34 -10
-64 -12 -51 -3 -53 -4 -30 -16 22 -11 18 -12 -31 -7 -32 4 -66 1 -80 -5 -24
-11 -24 -14 -18 -78 4 -37 14 -85 23 -107 8 -22 15 -57 16 -77 0 -20 5 -40 10
-43 6 -3 10 -13 10 -21 0 -16 14 -48 106 -240 49 -103 88 -154 118 -154 20 0
83 116 107 197 13 47 7 258 -11 354 -12 63 -68 153 -110 177 l-28 16 25 13
c22 11 29 10 54 -8 33 -23 40 -46 10 -29 -32 17 -38 11 -11 -13 78 -67 114
-177 113 -342 -2 -197 -51 -313 -192 -453 -103 -102 -250 -171 -366 -172 -56
0 -163 31 -221 65 -67 39 -165 141 -188 195 -10 25 -24 60 -32 78 -16 38 -19
158 -4 167 6 3 10 15 10 26 0 42 104 178 192 253 70 59 224 156 308 194 34 16
49 27 39 29 -18 4 -61 -15 -194 -86 -58 -31 -72 -36 -50 -17 17 14 45 33 63
43 35 19 44 53 13 53 -11 0 -22 -6 -25 -12 -3 -9 -8 -8 -16 5 -13 21 -26 21
-64 2 -36 -19 -46 -19 -62 3 -13 16 -13 16 -14 0 0 -10 -4 -18 -10 -18 -5 0
-10 -7 -10 -15 0 -8 -11 -17 -25 -21 -29 -7 -68 -42 -109 -99 -17 -22 -36 -44
-43 -48 -7 -4 -20 -22 -29 -38 -11 -23 -21 -30 -35 -26 -10 3 -19 1 -19 -3 0
-5 -9 -12 -21 -15 -14 -5 -19 -13 -16 -26 4 -13 -3 -25 -20 -36 -17 -12 -23
-23 -20 -39 2 -13 -1 -22 -6 -21 -6 1 -16 -31 -22 -70 -6 -40 -8 -73 -3 -73 4
0 8 -7 8 -15 0 -18 12 -19 28 -3 6 6 15 9 19 5 9 -9 -29 -44 -52 -48 -10 -2
-20 -9 -22 -16 -7 -19 64 7 91 34 15 14 30 21 40 17 26 -10 19 -34 -9 -34 -15
0 -40 -7 -56 -16 -17 -8 -58 -17 -91 -19 -52 -4 -58 -2 -47 11 9 11 9 18 1 26
-6 6 -8 16 -5 24 6 15 -15 84 -25 84 -9 0 -32 73 -32 99 0 11 -4 23 -10 26 -5
3 -10 13 -10 22 0 15 23 15 63 -2 12 -5 17 -3 17 9 0 10 -9 16 -23 16 -13 0
-27 4 -32 9 -6 5 -26 11 -46 15 -27 5 -40 2 -49 -10 -12 -13 -11 -17 1 -25 8
-5 24 -9 37 -9 23 0 23 -1 -6 -25 -35 -29 -41 -30 -57 -9 -10 14 -13 13 -29
-10 -31 -48 -86 -52 -86 -5 0 26 -19 34 -38 15 -15 -15 -15 -18 -2 -26 13 -8
13 -10 -1 -10 -9 0 -22 7 -29 15 -12 14 -15 14 -31 -1 -11 -10 -28 -15 -43
-12 -19 4 -26 0 -30 -19 -4 -12 -12 -23 -20 -23 -20 0 -26 11 -16 30 9 16 3
18 -56 19 -36 0 -69 3 -73 5 -4 3 -24 -1 -45 -8 -22 -8 -34 -16 -27 -20 25
-16 8 -25 -44 -23 -30 1 -55 6 -55 10 0 5 -12 6 -27 2 -16 -4 -68 -9 -117 -11
-68 -3 -92 -7 -98 -19 -5 -8 -20 -15 -34 -15 -13 0 -27 -7 -30 -15 -4 -8 -10
-13 -14 -10 -4 3 -13 -2 -20 -10 -7 -8 -20 -15 -30 -15 -13 0 -17 -6 -13 -19
8 -33 -17 -34 -47 -3 -20 22 -31 27 -39 19 -8 -8 -11 0 -10 29 1 24 3 30 6 16
7 -35 28 -21 31 21 3 37 11 42 54 39 13 -1 19 8 24 38 5 30 11 40 25 40 12 0
19 -7 19 -20 0 -40 15 -19 18 24 2 42 0 45 -25 48 -36 4 -41 26 -8 38 19 7 25
15 21 26 -8 20 23 52 33 35 8 -12 41 -5 41 8 0 5 18 13 41 20 23 7 47 15 55
18 8 3 14 -1 14 -11 0 -9 5 -16 10 -16 6 0 8 11 6 25 -4 20 3 32 35 57 21 17
39 40 39 50 0 11 7 18 19 18 10 0 21 6 24 14 6 15 40 23 132 32 67 6 117 11
125 13 3 1 7 12 8 26 1 16 -3 25 -13 25 -8 0 -15 -4 -15 -9 0 -5 -17 -12 -37
-16 -21 -4 -41 -12 -45 -18 -5 -8 -13 -8 -30 1 -13 6 -34 12 -48 12 -110 4
-112 4 -89 27 7 7 25 9 41 6 22 -4 34 0 49 16 13 14 15 21 7 21 -10 0 -10 2
-1 8 12 8 46 152 38 160 -3 3 0 11 6 19 9 10 8 13 -4 13 -22 0 -30 34 -22 96
7 61 -2 68 -27 24 -16 -29 -43 -48 -53 -38 -8 7 16 68 26 68 5 0 9 8 9 18 0
10 7 28 16 40 11 16 12 27 5 39 -6 10 -11 12 -11 6 0 -19 -20 -16 -20 3 0 9 9
18 21 21 12 4 16 8 10 13 -8 4 -8 15 0 38 6 17 9 39 6 49 -4 14 -5 13 -6 -4 0
-13 -5 -23 -11 -23 -15 0 -12 51 4 69 7 9 16 39 20 66 4 34 3 45 -4 35 -9 -15
-11 -13 -14 12 -1 15 -26 23 -26 9 0 -6 -4 -11 -10 -11 -5 0 -10 13 -10 29 0
37 -10 62 -21 55 -5 -3 -9 1 -9 9 0 8 -7 21 -17 28 -15 13 -15 10 -9 -32 5
-32 2 -60 -8 -90 -9 -24 -16 -54 -16 -66 0 -12 -6 -26 -13 -30 -7 -4 -21 -27
-31 -50 -19 -43 -36 -56 -36 -29 0 8 5 18 10 21 6 3 10 14 10 24 0 9 5 22 12
29 6 6 13 17 14 24 1 7 9 47 18 88 19 89 18 80 6 80 -5 0 -10 -7 -10 -16 0 -8
-4 -13 -9 -10 -5 4 -5 21 0 43 19 80 21 93 13 93 -10 0 -41 -85 -53 -145 -11
-52 -43 -124 -48 -108 -3 7 3 23 11 35 9 12 16 42 16 66 0 23 6 58 14 76 8 19
17 65 20 103 7 77 6 76 -24 -27 -32 -112 -83 -200 -116 -200 -7 0 -15 -6 -17
-12 -4 -10 -6 -10 -6 -1 -1 7 7 17 18 22 19 11 48 68 38 77 -3 3 -14 -5 -26
-17 -16 -17 -21 -19 -21 -7 0 8 12 28 26 43 19 20 29 46 36 94 6 36 19 83 29
103 23 45 27 85 6 53 -7 -11 -26 -49 -41 -85 -52 -118 -59 -135 -91 -185 -17
-27 -42 -72 -55 -98 -24 -49 -46 -74 -56 -65 -3 3 5 24 16 47 15 28 20 49 15
69 -5 23 -1 34 19 53 14 13 26 30 26 37 0 14 19 50 38 70 12 13 17 62 7 62 -3
0 -10 -10 -15 -22 -13 -31 -30 -55 -63 -92 -22 -24 -28 -40 -27 -71 3 -60 2
-62 -21 -68 -12 -3 -18 -10 -14 -16 3 -6 -1 -11 -9 -11 -9 0 -16 -7 -16 -16 0
-8 -4 -13 -9 -9 -5 3 -7 22 -4 42 4 26 3 34 -5 29 -7 -4 -12 -14 -12 -22 0 -8
-8 -22 -19 -33 -10 -10 -24 -27 -30 -37 -6 -12 -11 -14 -11 -6 0 8 8 26 19 40
10 15 33 58 50 95 26 56 36 68 51 64 19 -5 30 10 30 43 0 11 9 24 19 30 22 11
51 64 51 91 0 26 -18 32 -25 9 -4 -12 -24 -40 -45 -62 -29 -31 -42 -39 -52
-32 -16 13 -58 16 -58 4 0 -4 6 -11 13 -14 6 -3 3 -4 -7 -3 -10 1 -21 -4 -23
-11 -3 -7 1 -10 11 -6 18 7 21 -9 5 -37 -5 -11 -14 -17 -20 -14 -5 4 -9 -4 -9
-15 0 -16 -5 -20 -15 -16 -10 4 -15 -1 -15 -14 0 -11 -4 -20 -10 -20 -12 0
-13 27 -1 34 5 3 11 16 14 28 2 13 8 32 12 42 7 17 5 18 -21 12 -27 -7 -28 -7
-12 11 17 18 18 21 18 48 0 8 7 15 15 15 8 0 19 9 25 19 14 28 12 36 -5 21
-22 -18 -18 -2 15 60 19 35 26 56 19 59 -7 2 -16 -3 -20 -10 -35 -55 -70 -116
-75 -129 -19 -51 -48 -102 -52 -91 -2 7 1 18 7 24 6 6 11 19 11 30 0 10 5 15
10 12 6 -3 10 3 10 14 0 11 7 39 16 61 17 41 12 67 -7 40 -8 -11 -8 -8 -3 10
3 14 12 28 20 33 7 4 12 20 12 35 -1 15 6 42 16 59 9 18 16 36 16 41 0 5 18
28 41 50 22 23 38 46 34 52 -4 7 -18 -5 -33 -29 -14 -22 -30 -39 -36 -38 -10
2 -53 -78 -76 -140 -8 -20 -19 -33 -30 -33 -10 0 -28 -16 -39 -36 -12 -20 -25
-33 -29 -29 -4 4 -1 10 6 12 6 3 12 13 12 24 0 10 4 19 10 19 12 0 40 53 40
77 0 15 -2 16 -11 3 -8 -12 -10 -10 -6 10 2 14 8 33 12 44 7 16 6 17 -14 6
-31 -16 -35 -8 -11 23 21 26 27 67 10 67 -5 0 -7 13 -3 30 8 41 -13 39 -31 -2
-12 -27 -15 -29 -15 -11 -1 12 4 25 10 29 6 3 8 17 5 30 -5 17 -3 22 7 18 8
-3 18 6 25 21 7 15 20 25 32 25 11 0 20 4 20 10 0 6 -9 6 -26 0 -33 -13 -67
-13 -59 0 3 5 21 17 40 26 19 9 35 20 35 25 0 5 9 9 20 9 11 0 20 5 20 10 0
16 -19 12 -99 -20 -41 -16 -76 -28 -78 -26 -10 10 14 37 55 60 l47 27 -40 -6
c-72 -11 -85 -15 -85 -29 0 -10 -18 -17 -55 -21 -30 -4 -58 -12 -61 -17 -3 -5
-12 -4 -20 3 -8 7 -14 7 -14 1 0 -15 -37 -21 -50 -8 -9 8 -11 7 -8 -4 2 -10
-7 -16 -27 -18 -16 -2 -32 -8 -35 -13 -8 -12 -45 -16 -45 -4 0 6 8 10 18 9 9
0 17 5 17 13 0 7 9 13 20 13 10 0 24 8 29 18 8 16 34 27 109 48 6 2 12 9 12
15 0 24 -139 -24 -190 -66 -20 -17 -50 -15 -50 3 0 9 -6 12 -15 8 -43 -17 -47
-16 -20 8 30 25 30 25 6 26 -21 0 -22 2 -10 16 12 15 10 16 -20 9 -30 -6 -32
-5 -26 14 5 18 2 21 -24 21 -21 0 -31 5 -31 15 0 8 -4 15 -10 15 -5 0 -10 -5
-10 -11 0 -6 -6 -17 -14 -25 -13 -12 -13 -18 2 -44 9 -16 13 -32 10 -36 -10
-9 -38 15 -38 32 0 18 -10 17 -34 -1 -27 -21 -53 -21 -32 0 8 8 19 15 25 15
17 0 44 48 37 66 -4 11 -13 14 -30 10 -15 -4 -28 0 -36 9 -9 10 -9 15 -1 15 6
0 11 6 11 14 0 8 9 18 20 21 18 6 30 45 13 45 -14 0 -133 -72 -133 -80 0 -6
-6 -10 -14 -10 -8 0 -17 -11 -20 -24 -3 -13 -13 -26 -21 -30 -27 -10 -19 50
10 72 46 37 19 45 -40 12 -20 -11 -42 -20 -50 -20 -7 0 -17 -9 -20 -20 -3 -11
-16 -25 -27 -31 -20 -11 -20 -9 -14 25 7 37 -1 45 -21 25 -9 -9 -20 -9 -43 1
-17 7 -34 10 -37 6 -4 -4 3 -9 15 -13 12 -3 22 -7 22 -10 0 -10 -74 -73 -86
-73 -7 0 -14 -5 -16 -12 -3 -8 -7 -6 -11 4 -4 12 4 20 34 32 22 9 39 23 39 32
0 38 -106 -30 -116 -74 -3 -15 -9 -35 -15 -44 -5 -10 -9 -25 -9 -35 0 -13 -3
-14 -11 -6 -6 6 -19 9 -28 6 -14 -6 -14 -4 2 14 9 11 17 27 17 36 0 9 4 17 9
17 5 0 12 7 15 16 5 13 2 15 -15 11 -20 -5 -19 -3 7 24 15 16 34 29 41 29 7 0
13 5 13 10 0 6 7 10 15 10 8 0 23 8 33 18 18 18 51 36 62 34 3 0 6 8 6 19 0
18 -5 19 -61 13 -33 -4 -67 -13 -76 -20 -8 -8 -32 -14 -51 -14 -22 0 -38 -6
-41 -14 -7 -17 -42 -41 -74 -51 -17 -5 -23 -2 -23 9 0 8 6 13 13 11 16 -6 44
12 34 21 -12 12 -207 -40 -207 -55 0 -7 -43 -31 -55 -31 -15 0 -2 29 15 33 25
6 26 24 3 30 -10 3 -2 5 17 6 l35 2 -25 14 c-24 14 -22 14 35 15 59 0 185 35
185 52 0 20 -216 0 -230 -22 -4 -7 -13 -9 -20 -5 -7 5 1 16 25 32 20 14 34 28
30 31 -15 15 -103 42 -137 42 -43 0 -68 8 -68 22 0 5 -21 34 -46 64 -43 50
-46 57 -41 95 3 23 3 48 0 55 -6 16 -23 19 -23 4z m-935 -296 c150 -37 298
-141 357 -250 10 -19 14 -34 8 -34 -5 0 -10 4 -10 9 0 13 -60 19 -96 9 -24 -6
-44 -4 -74 8 -36 15 -41 20 -36 40 4 15 2 24 -5 24 -6 0 -9 6 -6 13 7 19 -12
47 -32 47 -10 0 -24 7 -31 15 -10 12 -9 15 6 16 14 1 12 3 -6 8 -52 13 -110
46 -107 61 3 20 -62 40 -130 40 -28 0 -54 4 -57 8 -8 13 151 2 219 -14z m1103
-97 c-27 -12 -48 -29 -48 -36 0 -12 -3 -12 -12 -3 -6 6 -10 13 -7 15 51 39 66
47 88 46 22 0 19 -4 -21 -22z m53 -39 c-25 -19 -41 -23 -41 -9 0 13 44 40 54
33 5 -3 -1 -13 -13 -24z m-1774 16 c-3 -3 -12 -4 -19 -1 -8 3 -5 6 6 6 11 1
17 -2 13 -5z m1634 -37 c-8 -8 -11 -7 -11 4 0 20 13 34 18 19 3 -7 -1 -17 -7
-23z m975 6 c-10 -10 -19 5 -10 18 6 11 8 11 12 0 2 -7 1 -15 -2 -18z m-611 7
c-3 -5 -10 -10 -16 -10 -5 0 -9 5 -9 10 0 6 7 10 16 10 8 0 12 -4 9 -10z m716
-13 c-13 -13 -26 -3 -16 12 3 6 11 8 17 5 6 -4 6 -10 -1 -17z m-961 -16 c0 -6
-4 -13 -10 -16 -5 -3 -10 1 -10 9 0 9 5 16 10 16 6 0 10 -4 10 -9z m732 -13
c-7 -7 -12 -8 -12 -2 0 14 12 26 19 19 2 -3 -1 -11 -7 -17z m368 -4 c0 -14 -4
-23 -10 -19 -5 3 -10 15 -10 26 0 10 5 19 10 19 6 0 10 -12 10 -26z m-963 -9
c-4 -8 -14 -15 -23 -15 -16 0 -16 2 1 20 20 22 31 20 22 -5z m-184 9 c11 -11
-3 -24 -18 -18 -8 4 -12 10 -9 15 6 11 18 12 27 3z m414 -20 c-3 -3 -12 -4
-19 -1 -8 3 -5 6 6 6 11 1 17 -2 13 -5z m-589 -21 c2 -7 -2 -13 -10 -13 -7 0
-25 -6 -40 -14 -20 -10 -28 -11 -31 -3 -3 9 -10 9 -26 0 -11 -7 -28 -13 -36
-13 -8 0 -15 -7 -15 -16 0 -13 -3 -14 -13 -5 -11 8 -16 6 -25 -13 -12 -26 -59
-43 -75 -27 -8 8 -8 11 0 11 6 0 24 11 40 23 15 13 51 32 78 42 28 10 56 23
63 28 6 5 12 6 12 3 0 -4 8 -2 18 3 22 14 54 10 60 -6z m57 7 c4 -6 -5 -10
-20 -10 -15 0 -24 4 -20 10 3 6 12 10 20 10 8 0 17 -4 20 -10z m1083 -11 c-2
-6 -8 -10 -13 -10 -5 0 -11 4 -13 10 -2 6 4 11 13 11 9 0 15 -5 13 -11z m-348
-39 c-8 -5 -19 -10 -25 -10 -5 0 -3 5 5 10 8 5 20 10 25 10 6 0 3 -5 -5 -10z
m315 0 c3 -5 -1 -10 -9 -10 -10 0 -16 -9 -16 -25 0 -16 -6 -25 -15 -25 -9 0
-25 -9 -37 -19 -11 -11 -27 -17 -36 -13 -10 4 -12 7 -4 10 7 2 12 11 12 20 0
10 19 29 43 44 47 31 53 32 62 18z m270 0 c3 -6 -4 -10 -17 -10 -18 0 -20 2
-8 10 19 12 18 12 25 0z m-1458 -16 c-3 -3 -12 -4 -19 -1 -8 3 -5 6 6 6 11 1
17 -2 13 -5z m759 -19 c-12 -12 -13 -21 -6 -35 13 -25 13 -30 -4 -24 -9 3 -17
-3 -21 -15 -3 -12 -11 -19 -16 -15 -6 3 -4 15 5 30 9 13 16 29 16 35 0 15 31
51 38 45 2 -3 -3 -12 -12 -21z m134 17 c0 -5 -11 -15 -25 -22 -14 -7 -25 -18
-25 -23 0 -5 -7 -4 -15 3 -8 7 -15 18 -15 24 0 6 5 4 11 -4 8 -11 12 -12 16
-2 2 6 11 12 19 12 8 0 14 5 14 10 0 6 5 10 10 10 6 0 10 -4 10 -8z m620 -2
c0 -5 -4 -10 -9 -10 -6 0 -13 5 -16 10 -3 6 1 10 9 10 9 0 16 -4 16 -10z m365
0 c3 -5 2 -10 -4 -10 -5 0 -13 5 -16 10 -3 6 -2 10 4 10 5 0 13 -4 16 -10z
m-1220 -45 c-9 -20 -20 -34 -23 -30 -3 3 2 21 13 40 24 46 33 37 10 -10z m810
25 c-7 -12 -45 -14 -45 -2 0 4 11 9 26 10 14 1 23 -2 19 -8z m379 -11 c-3 -5
-10 -7 -15 -3 -5 3 -7 10 -3 15 3 5 10 7 15 3 5 -3 7 -10 3 -15z m-1619 1 c-3
-5 -10 -10 -16 -10 -5 0 -9 5 -9 10 0 6 7 10 16 10 8 0 12 -4 9 -10z m460 -28
c-10 -10 -16 -12 -13 -7 3 6 8 19 13 30 5 14 9 16 12 7 3 -8 -3 -21 -12 -30z
m835 28 c0 -5 -5 -10 -11 -10 -5 0 -7 5 -4 10 3 6 8 10 11 10 2 0 4 -4 4 -10z
m-1576 -9 c3 -5 -1 -11 -9 -15 -9 -3 -15 0 -15 9 0 16 16 20 24 6z m1019 -6
c-3 -9 -8 -14 -10 -11 -3 3 -2 9 2 15 9 16 15 13 8 -4z m437 5 c0 -5 -4 -10
-10 -10 -5 0 -10 5 -10 10 0 6 5 10 10 10 6 0 10 -4 10 -10z m500 0 c0 -5 -5
-10 -11 -10 -5 0 -7 5 -4 10 3 6 8 10 11 10 2 0 4 -4 4 -10z m-1390 -9 c0 -13
-26 -32 -33 -24 -8 7 11 33 24 33 5 0 9 -4 9 -9z m280 -7 c0 -8 -4 -12 -10 -9
-5 3 -10 10 -10 16 0 5 5 9 10 9 6 0 10 -7 10 -16z m-1026 -3 c8 -12 -30 -58
-40 -49 -9 10 12 58 25 58 5 0 12 -4 15 -9z m-111 -33 c-3 -16 -9 -28 -14 -28
-5 0 -6 7 -4 15 3 8 7 22 10 31 8 26 14 12 8 -18z m-23 7 c0 -9 -6 -12 -15 -9
-8 4 -15 10 -15 15 0 5 7 9 15 9 8 0 15 -7 15 -15z m182 -7 c-6 -6 -15 -8 -19
-4 -4 4 -1 11 7 16 19 12 27 3 12 -12z m-344 -12 c15 -8 45 -29 67 -46 31 -25
34 -31 15 -24 -14 5 -43 9 -65 9 -22 0 -46 4 -52 8 -7 5 -17 6 -22 3 -21 -13
-90 30 -91 57 0 13 120 7 148 -7z m1487 5 c3 -5 1 -12 -5 -16 -5 -3 -10 1 -10
9 0 18 6 21 15 7z m103 -8 c-2 -11 -12 -17 -23 -16 -11 1 -32 -12 -47 -28 -15
-16 -28 -24 -28 -18 0 13 24 38 59 61 33 23 43 23 39 1z m792 7 c0 -5 -4 -10
-10 -10 -5 0 -10 5 -10 10 0 6 5 10 10 10 6 0 10 -4 10 -10z m-60 -9 c0 -6 -4
-13 -10 -16 -5 -3 -10 1 -10 9 0 9 5 16 10 16 6 0 10 -4 10 -9z m-93 -23 c-3
-8 -6 -5 -6 6 -1 11 2 17 5 13 3 -3 4 -12 1 -19z m-1597 5 c0 -5 -11 -13 -25
-20 -29 -13 -33 -6 -7 13 19 15 32 18 32 7z m664 -15 c-4 -13 -7 -31 -6 -41 1
-15 -1 -16 -15 -2 -18 19 -10 65 13 65 11 0 13 -6 8 -22z m-100 0 c-15 -27
-27 -38 -35 -32 -12 7 13 44 29 44 8 0 10 -5 6 -12z m1206 8 c0 -3 -4 -8 -10
-11 -5 -3 -10 -1 -10 4 0 6 5 11 10 11 6 0 10 -2 10 -4z m-2150 -21 c0 -8 -4
-15 -10 -15 -5 0 -10 7 -10 15 0 8 5 15 10 15 6 0 10 -7 10 -15z m1802 -72
c-2 -24 -8 -40 -13 -37 -5 3 -6 17 -3 32 15 67 23 70 16 5z m-572 29 c0 -11
-37 -32 -44 -25 -3 3 2 12 12 19 19 15 32 18 32 6z m990 -35 c0 -4 -7 -2 -15
7 -8 8 -15 21 -15 28 1 14 30 -20 30 -35z m-1250 4 c-6 -12 -15 -21 -21 -21
-5 0 -2 11 7 25 20 30 31 26 14 -4z m134 -5 c-9 -15 -19 -25 -21 -22 -3 2 3
16 13 30 9 15 19 25 21 22 3 -2 -3 -16 -13 -30z m-514 -1 c-7 -8 -17 -15 -23
-15 -5 0 -2 9 8 20 21 23 35 19 15 -5z m41 -8 c-10 -9 -11 -8 -5 6 3 10 9 15
12 12 3 -3 0 -11 -7 -18z m676 -14 c-15 -16 -39 -41 -53 -58 -16 -19 -24 -23
-20 -11 9 26 47 72 71 84 31 16 32 14 2 -15z m-940 -15 c-3 -8 -6 -5 -6 6 -1
11 2 17 5 13 3 -3 4 -12 1 -19z m1378 -18 c7 -24 7 -24 -9 -5 -8 11 -16 27
-16 35 0 20 16 1 25 -30z m-375 20 c-8 -5 -19 -10 -25 -10 -5 0 -3 5 5 10 8 5
20 10 25 10 6 0 3 -5 -5 -10z m-470 -24 c0 -3 -4 -8 -10 -11 -5 -3 -10 -1 -10
4 0 6 5 11 10 11 6 0 10 -2 10 -4z m530 -6 c0 -5 -5 -10 -11 -10 -5 0 -7 5 -4
10 3 6 8 10 11 10 2 0 4 -4 4 -10z m756 -35 c-3 -9 -11 -13 -16 -10 -8 5 -7
11 1 21 14 18 24 11 15 -11z m-996 5 c0 -5 -5 -10 -11 -10 -5 0 -7 5 -4 10 3
6 8 10 11 10 2 0 4 -4 4 -10z m846 -36 l-15 -29 -1 31 c0 34 9 49 23 35 5 -5
3 -20 -7 -37z m88 31 c-4 -8 -8 -15 -10 -15 -2 0 -4 7 -4 15 0 8 4 15 10 15 5
0 7 -7 4 -15z m-374 -5 c0 -5 -2 -10 -4 -10 -3 0 -8 5 -11 10 -3 6 -1 10 4 10
6 0 11 -4 11 -10z m156 -37 c-6 -62 -6 -63 -16 -32 -9 31 -2 79 11 79 5 0 7
-21 5 -47z m-661 -2 c3 -5 1 -12 -5 -16 -5 -3 -10 1 -10 9 0 18 6 21 15 7z
m902 -46 c-4 -8 -11 -15 -17 -15 -14 0 -13 27 3 33 16 6 21 1 14 -18z m-1059
-5 c-7 -11 -19 -22 -26 -25 -13 -5 -8 8 13 32 17 20 26 15 13 -7z m78 -6 c-4
-9 -9 -15 -11 -12 -3 3 -3 13 1 22 4 9 9 15 11 12 3 -3 3 -13 -1 -22z m814 -3
c0 -6 -4 -13 -10 -16 -5 -3 -10 1 -10 9 0 9 5 16 10 16 6 0 10 -4 10 -9z m294
-25 c-3 -9 -10 -13 -16 -10 -5 3 -4 12 3 20 15 18 22 13 13 -10z m-996 -25
c-21 -34 -41 -53 -36 -33 4 19 41 72 50 72 5 0 -1 -17 -14 -39z m-48 25 c0 -3
-4 -8 -10 -11 -5 -3 -10 -1 -10 4 0 6 5 11 10 11 6 0 10 -2 10 -4z m970 -42
c-18 -21 -24 -10 -9 18 8 14 14 18 17 10 2 -7 -2 -19 -8 -28z m-1117 11 c-3
-9 -8 -14 -10 -11 -3 3 -2 9 2 15 9 16 15 13 8 -4z m758 -82 c-8 -14 -10 -10
-11 24 0 61 14 89 18 36 2 -24 -1 -51 -7 -60z m-641 72 c-7 -9 -15 -13 -17
-11 -7 7 7 26 19 26 6 0 6 -6 -2 -15z m-58 -77 c-12 -12 -24 -19 -28 -15 -4 3
4 15 17 26 31 25 39 17 11 -11z m-52 7 c0 -9 -12 -27 -26 -40 -28 -26 -44 -32
-44 -15 0 6 6 10 14 10 7 0 19 14 26 30 13 32 30 40 30 15z m-89 -168 c-10 -9
-11 -8 -5 6 3 10 9 15 12 12 3 -3 0 -11 -7 -18z m1742 -56 c-4 -3 -14 -18 -20
-33 -7 -16 -18 -28 -24 -28 -12 0 -12 -1 16 57 16 32 22 37 29 26 5 -9 5 -18
-1 -22z m184 7 c-3 -7 -5 -2 -5 12 0 14 2 19 5 13 2 -7 2 -19 0 -25z m-108
-34 c-15 -18 -22 -13 -13 10 3 9 10 13 16 10 5 -3 4 -12 -3 -20z m139 -62
c-11 -37 -24 -71 -28 -77 -4 -5 -11 -25 -15 -42 -7 -36 -25 -45 -25 -13 0 22
24 91 46 132 8 15 15 30 14 33 0 3 0 17 0 31 0 22 3 24 14 15 12 -10 11 -22
-6 -79z m-219 8 c-6 -16 -17 -30 -25 -30 -11 0 -9 8 8 30 12 17 23 30 24 30 2
0 -2 -13 -7 -30z m58 8 c-3 -8 -6 -5 -6 6 -1 11 2 17 5 13 3 -3 4 -12 1 -19z
m-267 -7 c0 -5 -6 -16 -13 -23 -7 -7 -16 -22 -20 -32 -4 -10 -11 -16 -14 -12
-8 8 26 76 39 76 4 0 8 -4 8 -9z m355 -31 c-3 -5 -11 -10 -16 -10 -6 0 -7 5
-4 10 3 6 11 10 16 10 6 0 7 -4 4 -10z m-197 -40 c-7 -10 -14 -17 -17 -15 -4
4 18 35 25 35 2 0 -1 -9 -8 -20z m162 -31 c0 -11 -4 -18 -10 -14 -5 3 -7 12
-3 20 7 21 13 19 13 -6z m-190 -9 c0 -5 -5 -10 -11 -10 -5 0 -7 5 -4 10 3 6 8
10 11 10 2 0 4 -4 4 -10z m1824 -95 c3 -8 1 -15 -3 -15 -5 0 -11 7 -15 15 -3
8 -1 15 3 15 5 0 11 -7 15 -15z m-1486 -206 c-3 -8 -7 -3 -11 10 -4 17 -3 21
5 13 5 -5 8 -16 6 -23z m26 -60 c-8 -14 -24 -10 -24 6 0 9 6 12 15 9 8 -4 12
-10 9 -15z m-64 -159 c-6 -11 -15 -20 -20 -20 -14 0 -12 27 3 33 23 10 28 7
17 -13z m-40 -11 c0 -5 -13 -9 -30 -9 -28 0 -38 9 -25 22 8 8 55 -3 55 -13z
m1781 1 c13 -10 19 -19 13 -20 -15 0 -84 29 -84 35 0 13 51 3 71 -15z m101
-37 c54 -8 27 -30 -29 -25 -35 3 -43 8 -43 24 0 15 4 18 18 13 9 -4 34 -9 54
-12z m-1937 -12 c-3 -5 3 -12 12 -15 10 -2 5 -4 -11 -3 -34 2 -49 27 -16 27
12 0 19 -4 15 -9z m1852 -7 c-3 -3 -12 -4 -19 -1 -8 3 -5 6 6 6 11 1 17 -2 13
-5z m292 -10 c39 -8 54 -34 45 -79 -6 -34 -34 -51 -34 -21 0 18 -31 29 -55 20
-15 -6 -16 -5 -4 15 8 11 22 21 31 21 10 0 18 6 18 13 0 9 -11 12 -35 9 -27
-3 -35 -1 -35 12 0 17 18 20 69 10z m-2119 -40 c0 -10 -5 -14 -15 -10 -9 3
-24 0 -35 -6 -21 -14 -35 -6 -27 14 2 8 21 15 41 16 28 2 36 -1 36 -14z m1913
-24 c41 -26 47 -34 47 -65 0 -38 -7 -42 -43 -23 -12 6 -29 14 -37 18 -8 4 -17
20 -18 36 -2 16 -8 34 -13 40 -8 10 -3 24 11 24 3 0 27 -13 53 -30z m-1963
-50 c0 -10 -32 -30 -49 -30 -19 0 -12 15 12 26 29 15 37 16 37 4z m-77 -37
c-7 -2 -19 -2 -25 0 -7 3 -2 5 12 5 14 0 19 -2 13 -5z m1463 -40 c-7 -7 -26 7
-26 19 0 6 6 6 15 -2 9 -7 13 -15 11 -17z m607 11 c25 -6 27 -10 27 -56 0 -55
-21 -64 -30 -12 -4 20 -12 30 -28 32 -23 3 -46 34 -35 46 4 3 14 4 22 2 9 -3
28 -8 44 -12z m-673 -78 c0 -3 -4 -8 -10 -11 -5 -3 -10 -1 -10 4 0 6 5 11 10
11 6 0 10 -2 10 -4z m-218 -81 c-3 -16 -11 -25 -24 -25 -18 0 -18 1 -1 25 23
31 31 31 25 0z m-65 -87 c-3 -7 -5 -2 -5 12 0 14 2 19 5 13 2 -7 2 -19 0 -25z
m-1484 -45 c-7 -2 -19 -2 -25 0 -7 3 -2 5 12 5 14 0 19 -2 13 -5z m727 3 c0
-2 -3 -11 -6 -20 -9 -23 -34 -20 -34 4 0 13 7 20 20 20 11 0 20 -2 20 -4z
m-760 -96 c0 -5 -2 -10 -4 -10 -3 0 -8 5 -11 10 -3 6 -1 10 4 10 6 0 11 -4 11
-10z m1530 -10 c0 -5 -4 -10 -10 -10 -5 0 -10 5 -10 10 0 6 5 10 10 10 6 0 10
-4 10 -10z m-340 -80 c0 -5 -9 -10 -20 -10 -11 0 -20 5 -20 10 0 6 9 10 20 10
11 0 20 -4 20 -10z m380 -67 c0 -18 -7 -16 -31 8 -12 12 -18 27 -14 37 5 15 9
13 25 -8 11 -14 20 -31 20 -37z m-1530 37 c11 -7 5 -10 -22 -10 -21 0 -38 5
-38 10 0 13 40 13 60 0z m1240 -5 c62 -1 67 -15 15 -41 -52 -27 -85 -31 -85
-10 0 8 -7 16 -15 20 -18 7 -20 32 -2 39 6 3 21 3 32 -1 11 -3 36 -6 55 -7z
m273 -60 c21 -11 89 -67 150 -125 136 -128 154 -141 238 -168 116 -39 284 -22
387 39 20 12 76 62 124 111 100 103 94 103 183 2 90 -103 145 -192 145 -235 0
-10 4 -20 9 -23 5 -4 12 -30 16 -59 7 -55 24 -134 55 -257 29 -112 49 -282 61
-505 10 -196 21 -274 55 -385 11 -39 18 -107 21 -231 6 -198 -7 -293 -54 -389
-30 -62 -36 -71 -77 -108 -16 -15 -46 -42 -65 -60 -20 -18 -48 -38 -63 -45
-16 -6 -28 -15 -28 -18 0 -12 -72 -50 -84 -45 -6 3 -1 8 12 11 12 4 22 11 22
16 0 5 11 14 25 19 28 11 44 38 28 49 -5 3 -15 15 -21 26 -11 19 -11 18 -12
-8 0 -16 -4 -26 -10 -22 -5 3 -10 15 -10 26 0 27 -20 24 -21 -3 0 -23 0 -23
-10 1 -5 14 -8 33 -7 44 2 11 -3 22 -11 25 -10 3 -11 -2 -6 -18 5 -16 4 -21
-6 -18 -8 3 -13 12 -11 22 2 9 -2 16 -8 16 -5 0 -10 -9 -10 -20 0 -11 -4 -20
-10 -20 -5 0 -10 7 -10 16 0 8 -13 28 -28 44 -24 24 -26 29 -13 38 14 10 14
12 1 21 -22 16 -45 9 -48 -16 -2 -15 4 -23 18 -28 15 -5 19 -10 12 -17 -6 -6
-16 -6 -29 1 -15 7 -25 6 -40 -4 -17 -12 -23 -12 -39 0 -11 8 -32 15 -49 15
-23 0 -27 3 -15 10 12 8 12 12 3 18 -10 6 -9 13 3 30 12 18 19 20 30 11 7 -6
12 -18 11 -27 -1 -10 3 -17 8 -17 6 0 10 8 9 18 0 9 3 17 8 17 4 0 8 4 8 9 0
13 50 64 83 86 16 10 33 28 38 39 9 22 30 57 39 66 3 3 13 22 22 43 10 21 25
40 33 43 8 4 15 13 15 21 0 11 -6 14 -22 9 -60 -16 -68 -18 -68 -9 0 5 14 17
31 27 18 10 49 35 70 56 32 31 38 43 37 78 0 42 -14 64 -27 44 -5 -8 -18 -7
-46 3 -34 12 -43 11 -62 -1 -12 -8 -29 -14 -37 -14 -11 0 -14 -9 -12 -35 l2
-35 -48 0 c-26 0 -48 5 -48 10 0 6 7 10 15 10 8 0 15 5 15 10 0 13 -17 13 -25
0 -3 -5 -16 -10 -27 -10 -11 0 -27 -8 -34 -17 -12 -17 -13 -17 -14 -1 0 13 -7
16 -34 11 -42 -7 -69 8 -71 37 -2 23 6 28 105 65 25 9 53 21 62 26 10 5 24 9
32 9 7 0 16 8 18 18 5 18 102 57 118 47 6 -4 7 1 3 11 -5 14 -1 15 24 10 21
-5 35 -2 51 12 27 24 45 69 31 78 -6 3 -9 20 -8 38 1 17 -11 58 -26 91 -28 61
-54 180 -55 248 0 31 4 39 25 47 17 7 25 17 25 34 0 36 -14 39 -41 10 -17 -18
-30 -23 -46 -19 -17 4 -31 -2 -49 -20 -14 -14 -27 -25 -31 -25 -3 0 -14 -11
-24 -24 -10 -13 -39 -32 -64 -42 -48 -21 -56 -29 -46 -57 6 -17 8 -16 28 3 30
27 48 25 72 -9 24 -34 27 -76 7 -88 -8 -4 -16 -23 -18 -42 -3 -34 -28 -58 -28
-27 0 10 -6 13 -15 10 -9 -4 -15 0 -16 7 -1 8 -2 19 -4 24 -1 6 -3 28 -4 50
-1 30 -4 36 -11 25 -8 -12 -10 -11 -10 6 0 11 -7 29 -15 40 -14 17 -16 18 -28
3 -6 -9 -23 -20 -37 -24 -14 -4 -41 -20 -60 -35 -19 -15 -42 -28 -50 -28 -8
-1 -24 -2 -34 -4 -33 -5 -30 22 3 28 17 4 31 10 31 15 0 5 7 9 15 9 15 0 47
61 59 113 4 15 10 26 14 23 4 -2 9 5 9 16 2 20 2 20 -16 2 -32 -34 -65 -59
-95 -72 -31 -14 -51 -6 -23 9 9 6 17 18 17 27 0 9 14 33 30 52 19 22 30 46 30
65 0 22 -3 26 -10 15 -8 -12 -10 -12 -15 2 -4 9 -2 25 3 35 12 24 5 43 -18 43
-10 0 -22 5 -25 10 -3 6 2 10 12 10 15 0 14 4 -7 20 -29 22 -78 20 -92 -4 -13
-24 -37 -19 -44 9 -3 14 -10 25 -15 25 -5 0 -9 9 -9 20 0 29 -37 27 -43 -2 -3
-17 -5 -14 -6 10 -1 27 -5 32 -26 32 -14 0 -30 9 -37 20 -7 11 -18 20 -25 20
-6 0 -15 9 -18 20 -3 11 -11 20 -17 20 -7 0 -7 5 1 14 7 8 8 22 4 33 -11 28
-66 88 -88 97 -15 6 -17 9 -6 16 17 10 7 40 -14 40 -8 0 -15 9 -15 20 0 11 -5
20 -11 20 -5 0 -7 5 -4 10 3 6 0 10 -9 10 -8 0 -17 13 -21 30 -4 17 -13 30
-21 30 -25 0 -55 32 -43 46 15 18 1 37 -22 31 -11 -3 -17 -2 -14 3 3 4 -2 11
-11 14 -17 7 -16 55 1 69 6 4 4 11 -5 17 -18 12 -36 7 -32 -9 1 -6 -4 -11 -12
-11 -9 0 -13 10 -12 30 2 28 0 30 -31 30 -33 0 -46 21 -23 35 6 4 8 10 5 15
-3 5 4 24 15 42 15 25 20 28 20 14 0 -19 1 -19 20 2 11 12 17 28 14 37 -7 18
-30 14 -26 -4 1 -7 -2 -10 -8 -6 -18 11 -11 25 23 39 24 10 35 11 42 2 6 -6
27 -20 48 -31z m-146 -11 c-3 -3 -12 -4 -19 -1 -8 3 -5 6 6 6 11 1 17 -2 13
-5z m-34 -21 c-7 -2 -13 -11 -13 -19 0 -14 -21 -19 -33 -7 -7 6 30 31 48 31 6
0 4 -2 -2 -5z m67 -153 c0 -5 -5 -10 -11 -10 -5 0 -7 5 -4 10 3 6 8 10 11 10
2 0 4 -4 4 -10z m-1046 -24 c-6 -15 -54 -40 -54 -28 0 6 48 41 57 42 1 0 0 -6
-3 -14z m36 -140 c0 -11 -19 -15 -25 -6 -3 5 1 10 9 10 9 0 16 -2 16 -4z m194
-8 c11 -11 10 -18 -6 -40 -25 -37 -48 -36 -48 0 0 44 28 64 54 40z m-434 -48
c0 -5 -7 -10 -15 -10 -8 0 -15 5 -15 10 0 6 7 10 15 10 8 0 15 -4 15 -10z
m497 -36 c-3 -3 -12 -4 -19 -1 -8 3 -5 6 6 6 11 1 17 -2 13 -5z m49 -59 c2
-18 -3 -25 -17 -25 -10 0 -19 -4 -19 -10 0 -5 -8 -9 -17 -7 -10 1 -19 -2 -21
-8 -5 -15 30 -19 39 -4 4 7 11 10 14 7 12 -12 -31 -49 -51 -44 -53 11 -64 19
-64 43 0 21 4 24 21 20 12 -3 18 -3 15 1 -8 8 63 52 84 52 9 0 16 -10 16 -25z
m-603 -35 c-3 -12 -8 -19 -11 -16 -5 6 5 36 12 36 2 0 2 -9 -1 -20z m613 -27
c-10 -10 -19 5 -10 18 6 11 8 11 12 0 2 -7 1 -15 -2 -18z m-631 -43 c3 -5 1
-10 -4 -10 -6 0 -11 5 -11 10 0 6 2 10 4 10 3 0 8 -4 11 -10z m543 -13 c15
-10 16 -27 0 -27 -6 0 -25 -10 -42 -23 -17 -12 -44 -28 -60 -35 -24 -11 -31
-10 -47 4 -26 23 -24 33 14 68 28 28 37 30 77 26 25 -3 51 -9 58 -13z m49 7
c-3 -3 -12 -4 -19 -1 -8 3 -5 6 6 6 11 1 17 -2 13 -5z m143 -30 c0 -3 -10 -20
-22 -36 -17 -25 -19 -34 -10 -49 6 -10 8 -20 3 -23 -5 -3 -12 -22 -16 -43 -6
-31 -3 -40 17 -56 16 -13 19 -20 10 -24 -10 -4 -9 -8 4 -18 16 -11 14 -15 -27
-33 -39 -18 -50 -19 -87 -9 l-43 11 6 41 c9 58 15 75 26 75 6 0 1 12 -10 26
-26 32 -20 42 19 38 23 -3 32 1 36 14 12 40 38 81 53 85 26 7 41 7 41 1z
m-822 -33 c3 -8 -1 -12 -9 -9 -7 2 -15 10 -17 17 -3 8 1 12 9 9 7 -2 15 -10
17 -17z m645 -11 c-12 -5 -25 -15 -30 -23 -4 -8 -21 -17 -36 -21 -19 -4 -26
-3 -22 4 3 5 12 10 19 10 7 0 23 9 36 20 13 11 30 20 39 19 11 0 9 -3 -6 -9z
m-538 -61 c17 -32 15 -49 -2 -27 -13 16 -26 58 -19 58 3 0 13 -14 21 -31z
m365 27 c0 -6 -60 -36 -72 -36 -16 0 -8 15 15 26 23 12 57 17 57 10z m360 -16
c0 -5 -4 -10 -10 -10 -5 0 -10 5 -10 10 0 6 5 10 10 10 6 0 10 -4 10 -10z
m-800 -45 c0 -8 -4 -15 -10 -15 -5 0 -10 7 -10 15 0 8 5 15 10 15 6 0 10 -7
10 -15z m810 -5 c0 -5 -4 -10 -10 -10 -5 0 -10 5 -10 10 0 6 5 10 10 10 6 0
10 -4 10 -10z m39 1 c9 -6 10 -11 2 -15 -13 -8 -31 1 -31 15 0 11 11 11 29 0z
m-752 -43 c-3 -8 -6 -5 -6 6 -1 11 2 17 5 13 3 -3 4 -12 1 -19z m483 2 c0 -21
-15 -27 -25 -10 -7 12 2 30 16 30 5 0 9 -9 9 -20z m-569 -20 c6 0 7 5 4 10 -9
14 8 13 23 -2 18 -18 14 -28 -12 -28 -25 0 -51 22 -39 34 4 4 9 2 11 -3 2 -6
8 -11 13 -11z m-44 4 c-3 -3 -12 -4 -19 -1 -8 3 -5 6 6 6 11 1 17 -2 13 -5z
m953 -4 c0 -5 -2 -10 -4 -10 -3 0 -8 5 -11 10 -3 6 -1 10 4 10 6 0 11 -4 11
-10z m-793 -22 c-3 -8 -6 -5 -6 6 -1 11 2 17 5 13 3 -3 4 -12 1 -19z m42 -27
c7 -5 12 -14 9 -21 -2 -7 -10 -4 -22 9 -19 21 -12 28 13 12z m308 -27 c-3 -3
-12 -4 -19 -1 -8 3 -5 6 6 6 11 1 17 -2 13 -5z m-151 -76 c22 -11 67 -23 99
-27 72 -10 242 -2 223 10 -9 6 -3 9 17 9 l30 0 -33 -21 c-28 -18 -49 -21 -147
-22 -129 -1 -204 18 -258 65 l-32 28 30 -11 c17 -6 48 -20 71 -31z m609 2 c3
-5 -2 -21 -11 -35 -13 -19 -20 -23 -30 -14 -15 13 -34 4 -34 -17 0 -8 -9 -14
-21 -14 -18 0 -19 -3 -9 -15 20 -24 4 -45 -35 -45 -34 0 -47 -13 -22 -23 6 -3
-3 -6 -20 -6 -33 -1 -47 -24 -20 -34 6 -2 9 -8 5 -12 -4 -4 -21 -2 -39 5 -25
11 -32 11 -39 0 -11 -18 -29 -3 -23 20 4 15 0 20 -16 20 -12 0 -21 6 -21 14 0
20 55 24 104 9 33 -11 37 -11 26 2 -6 8 -21 17 -32 21 -16 5 -17 8 -7 14 7 5
21 4 32 -2 10 -5 30 -7 44 -3 l26 6 -23 21 -23 21 53 24 c29 13 59 23 67 23 8
0 11 5 7 12 -5 8 -2 9 9 5 10 -3 17 -2 17 3 0 13 27 13 35 0z m-245 -236 c0
-16 -16 -19 -25 -4 -8 13 4 32 16 25 5 -4 9 -13 9 -21z m4607 -6 c-3 -8 -6 -5
-6 6 -1 11 2 17 5 13 3 -3 4 -12 1 -19z m-3303 -59 c-7 -11 -34 -12 -34 -1 0
14 11 21 26 15 8 -3 11 -9 8 -14z m263 -48 c14 -18 14 -18 17 -49 2 -12 -6
-32 -16 -44 -10 -12 -18 -16 -18 -9 0 6 -8 11 -17 9 -12 -2 -19 4 -21 20 -2
12 -7 22 -12 22 -4 0 -4 -16 0 -35 10 -43 0 -45 -23 -5 -10 17 -13 30 -8 30 6
0 11 13 11 29 0 57 54 76 87 32z m192 -40 c25 -34 27 -51 6 -51 -14 0 -19 11
-16 38 3 19 -20 14 -45 -9 -12 -12 -27 -20 -33 -18 -13 5 42 69 58 69 5 0 19
-13 30 -29z m-309 -19 c0 -13 -12 -22 -22 -16 -10 6 -1 24 13 24 5 0 9 -4 9
-8z m-75 -22 c3 -5 -3 -10 -15 -10 -12 0 -18 5 -15 10 3 6 10 10 15 10 5 0 12
-4 15 -10z m-175 -150 c0 -5 -2 -10 -4 -10 -3 0 -8 5 -11 10 -3 6 -1 10 4 10
6 0 11 -4 11 -10z m350 -40 c0 -5 -7 -10 -15 -10 -8 0 -15 5 -15 10 0 6 7 10
15 10 8 0 15 -4 15 -10z m-3172 -170 c-13 -20 -38 -28 -38 -12 0 12 23 32 37
32 11 0 11 -4 1 -20z m201 -39 c12 -8 12 -12 2 -25 -25 -30 -68 -16 -55 18 7
18 31 21 53 7z m220 -80 c8 -5 11 -16 6 -31 -5 -16 -12 -20 -28 -16 -12 3 -28
6 -34 6 -16 0 -17 22 -1 38 14 14 37 15 57 3z m1351 -32 c0 -5 -4 -9 -10 -9
-5 0 -10 7 -10 16 0 8 5 12 10 9 6 -3 10 -10 10 -16z m60 -4 c0 -8 6 -15 13
-16 10 0 10 -2 0 -6 -20 -8 -15 -23 7 -23 25 0 26 -15 3 -24 -10 -3 -24 -9
-30 -12 -9 -4 -13 3 -13 18 0 13 -7 32 -15 42 -21 28 -19 36 10 36 16 0 25 -6
25 -15z m-772 -113 c5 -17 -55 6 -62 24 -4 12 -1 12 26 1 17 -7 33 -18 36 -25z
m-1015 22 c3 -3 1 -15 -6 -25 -21 -33 -67 -19 -53 16 5 15 47 21 59 9z m600
-5 c30 -16 30 -15 17 -38 -12 -24 -28 -26 -53 -6 -13 9 -17 20 -12 34 7 24 17
26 48 10z m515 -79 c7 0 12 -4 12 -9 0 -5 21 -17 48 -27 26 -9 54 -24 62 -33
17 -19 118 -88 164 -113 17 -10 47 -33 66 -51 38 -36 127 -102 171 -127 15 -8
56 -39 91 -68 35 -29 68 -57 75 -62 6 -5 29 -19 50 -31 21 -11 47 -31 58 -43
25 -27 131 -108 165 -126 14 -7 43 -29 66 -49 22 -20 53 -45 68 -56 l28 -20
-26 -15 c-24 -12 -28 -12 -36 0 -6 9 -6 16 0 18 22 8 9 24 -14 18 -14 -3 -28
-2 -31 4 -3 5 -1 10 6 10 10 0 10 3 1 12 -10 10 -14 10 -21 0 -6 -9 -15 -10
-33 -3 -30 11 -74 64 -59 69 18 6 13 19 -9 25 -11 3 -18 1 -14 -4 16 -27 -52
11 -106 59 -3 3 1 7 8 9 6 3 12 9 12 14 0 13 -28 11 -32 -2 -6 -17 -53 12
-118 71 -42 38 -52 52 -41 59 10 6 10 10 1 16 -7 4 -16 2 -20 -6 -7 -10 -11
-10 -25 1 -12 10 -13 15 -3 21 7 4 9 11 5 15 -3 4 -13 1 -21 -5 -20 -16 -66
10 -90 50 -10 16 -23 29 -30 29 -14 0 -55 40 -55 55 -1 6 -9 10 -19 11 -29 2
-101 45 -107 65 -4 10 -22 28 -41 39 -18 12 -34 26 -34 31 0 5 -6 9 -13 9 -7
0 -20 9 -30 20 -9 11 -24 20 -32 20 -9 0 -41 25 -72 55 -31 30 -61 55 -65 55
-4 0 -8 5 -8 12 0 6 7 4 18 -5 10 -10 24 -17 30 -17z m-908 5 c30 -15 30 -15
10 -35 -14 -14 -28 -18 -45 -14 -31 8 -36 15 -28 42 6 26 23 28 63 7z m95 -52
c20 -9 35 -24 35 -34 0 -26 24 -40 58 -33 38 8 82 -17 82 -46 0 -11 5 -20 12
-20 6 0 9 -3 6 -6 -11 -10 -78 14 -108 40 -17 14 -54 37 -83 51 -59 30 -80 47
-48 38 12 -3 24 -9 27 -14 7 -12 34 -12 34 0 0 5 -17 16 -37 24 -21 9 -33 16
-26 16 7 1 28 -7 48 -16z m534 -34 c34 -28 15 -47 -28 -29 -34 14 -37 20 -19
38 16 16 19 15 47 -9z m-464 -17 c-3 -3 -11 0 -18 7 -9 10 -8 11 6 5 10 -3 15
-9 12 -12z m2692 -28 c-3 -3 -12 -4 -19 -1 -8 3 -5 6 6 6 11 1 17 -2 13 -5z
m-3222 -14 c3 -5 1 -10 -4 -10 -6 0 -11 5 -11 10 0 6 2 10 4 10 3 0 8 -4 11
-10z m705 -75 c0 -8 -7 -11 -19 -8 -16 4 -17 8 -8 18 14 15 27 10 27 -10z
m-486 0 c11 -8 16 -18 13 -22 -10 -9 -59 9 -65 25 -5 17 28 15 52 -3z m526
-25 c-19 -13 -30 -13 -30 0 0 6 10 10 23 10 18 0 19 -2 7 -10z m489 -4 c7 -8
8 -17 3 -20 -11 -6 -62 15 -62 27 0 13 47 7 59 -7z m-1819 -16 c0 -5 -4 -10
-10 -10 -5 0 -10 5 -10 10 0 6 5 10 10 10 6 0 10 -4 10 -10z m1360 0 c0 -5 -8
-10 -17 -10 -15 0 -16 2 -3 10 19 12 20 12 20 0z m-692 -17 c41 -9 38 -26 -4
-18 -45 8 -54 12 -54 27 0 6 7 7 18 3 9 -4 27 -10 40 -12z m765 6 c30 -16 38
-31 25 -46 -24 -29 -96 5 -83 40 8 20 27 22 58 6z m-473 -25 c0 -2 -7 -4 -15
-4 -8 0 -15 4 -15 10 0 5 7 7 15 4 8 -4 15 -8 15 -10z m-215 -14 c3 -5 -1 -10
-9 -10 -9 0 -16 5 -16 10 0 6 4 10 9 10 6 0 13 -4 16 -10z m-348 -30 c13 0 21
-4 18 -10 -8 -14 -144 -5 -158 10 -10 10 0 11 52 6 35 -3 75 -6 88 -6z m1088
0 c3 -5 1 -10 -4 -10 -6 0 -11 5 -11 10 0 6 2 10 4 10 3 0 8 -4 11 -10z m-371
-25 c3 -8 11 -14 18 -13 8 2 12 -5 10 -16 -3 -17 -1 -18 11 -8 12 10 28 6 85
-23 83 -42 100 -59 83 -79 -16 -19 -65 -5 -100 28 -14 13 -36 27 -48 31 -13 3
-23 11 -23 16 0 5 -7 9 -15 9 -8 0 -15 8 -15 19 0 10 -10 26 -22 34 -18 13
-19 16 -7 16 9 1 19 -6 23 -14z m-1060 -15 c41 -15 33 -34 -11 -24 -21 4 -57
8 -80 7 -41 0 -51 6 -36 20 10 10 98 8 127 -3z m589 -17 c-7 -2 -19 -2 -25 0
-7 3 -2 5 12 5 14 0 19 -2 13 -5z m1392 -4 c12 -19 -5 -23 -22 -6 -16 16 -16
17 -1 17 9 0 20 -5 23 -11z m-455 -9 c0 -5 -2 -10 -4 -10 -3 0 -8 5 -11 10 -3
6 -1 10 4 10 6 0 11 -4 11 -10z m123 -21 c14 -12 -3 -49 -22 -49 -10 0 -30 10
-45 21 -25 20 -26 22 -11 39 14 16 21 17 43 7 15 -6 31 -14 35 -18z m-1383 6
c0 -1 -9 -5 -20 -8 -12 -3 -20 0 -20 8 0 8 8 11 20 8 11 -3 20 -7 20 -8z
m1067 -105 c3 -11 10 -20 17 -19 6 1 24 -3 41 -10 22 -9 26 -14 16 -20 -8 -5
-10 -14 -6 -20 5 -9 10 -9 21 0 11 9 21 9 44 -1 42 -17 51 -31 35 -54 -13 -17
-18 -17 -45 -6 -17 7 -36 20 -43 30 -7 9 -37 32 -67 50 -30 19 -56 34 -58 35
-1 1 0 10 4 19 9 22 35 20 41 -4z m2642 -24 l22 -23 -25 4 c-14 3 -33 14 -42
24 -16 18 -16 19 3 19 11 0 30 -11 42 -24z m-2079 -20 c7 -9 5 -18 -4 -31 -12
-16 -17 -17 -45 -6 -34 15 -40 35 -15 49 20 11 49 5 64 -12z m315 4 c3 -5 2
-10 -4 -10 -5 0 -13 5 -16 10 -3 6 -2 10 4 10 5 0 13 -4 16 -10z m1708 -14 c3
-8 -4 -11 -24 -8 -28 4 -36 12 -23 24 8 9 42 -3 47 -16z m145 -48 c28 -11 52
-24 52 -29 0 -5 -24 -9 -53 -9 -41 0 -58 5 -72 20 -10 11 -24 20 -32 20 -14 0
-17 12 -6 24 9 9 43 1 111 -26z m-1178 -29 c0 -5 -10 -7 -22 -5 -34 7 -34 7
-13 15 22 9 35 5 35 -10z m-1304 -35 c-3 -7 7 -22 22 -33 51 -37 16 -30 -40 8
-47 32 -53 39 -39 48 20 13 64 -5 57 -23z m-195 -32 c29 -25 23 -35 -8 -15
-33 21 -53 39 -53 48 0 8 36 -12 61 -33z m239 12 c0 -2 -7 -4 -15 -4 -8 0 -15
4 -15 10 0 5 7 7 15 4 8 -4 15 -8 15 -10z m503 1 c13 -9 17 -20 12 -34 -5 -17
-10 -18 -35 -9 -31 10 -34 16 -24 42 7 19 23 20 47 1z m1861 -13 c8 -13 -11
-35 -23 -28 -16 10 -14 36 3 36 8 0 17 -4 20 -8z m-2274 -37 c17 -9 30 -20 30
-24 0 -22 -14 -41 -30 -41 -25 0 -71 46 -64 64 8 20 27 20 64 1z m-1447 -12
c-7 -2 -19 -2 -25 0 -7 3 -2 5 12 5 14 0 19 -2 13 -5z m2885 -15 c22 -12 31
-38 11 -38 -5 0 -8 4 -5 9 3 5 -5 11 -19 13 -18 4 -26 0 -30 -13 -4 -11 -10
-19 -15 -19 -5 0 -7 7 -4 15 4 8 1 15 -5 15 -6 0 -11 -4 -11 -10 0 -5 -4 -10
-10 -10 -15 0 -12 18 8 39 17 19 38 19 80 -1z m800 -8 c-7 -11 -19 -20 -26
-20 -10 0 -10 5 -2 20 6 11 17 20 25 20 13 0 13 -3 3 -20z m322 0 c0 -5 -5
-10 -11 -10 -5 0 -7 5 -4 10 3 6 8 10 11 10 2 0 4 -4 4 -10z m-470 -30 c0 -5
-7 -10 -16 -10 -8 0 -12 5 -9 10 3 6 10 10 16 10 5 0 9 -4 9 -10z m-1990 -10
c0 -5 -4 -10 -10 -10 -5 0 -10 5 -10 10 0 6 5 10 10 10 6 0 10 -4 10 -10z
m1145 0 c3 -5 2 -10 -4 -10 -5 0 -13 5 -16 10 -3 6 -2 10 4 10 5 0 13 -4 16
-10z m1221 -27 c-11 -11 -19 6 -11 24 8 17 8 17 12 0 3 -10 2 -21 -1 -24z
m-2791 16 c11 -17 -1 -21 -15 -4 -8 9 -8 15 -2 15 6 0 14 -5 17 -11z m45 -9
c0 -5 -4 -10 -9 -10 -6 0 -13 5 -16 10 -3 6 1 10 9 10 9 0 16 -4 16 -10z
m1579 -10 c18 -15 22 -26 17 -46 -5 -17 -3 -23 4 -19 5 3 10 2 10 -3 0 -16 33
-24 41 -10 14 22 20 2 9 -27 -10 -27 -11 -27 -33 -9 -12 11 -26 25 -30 32 -4
6 -14 12 -21 12 -8 0 -24 8 -36 18 -19 16 -20 21 -9 45 14 32 17 32 48 7z
m-640 -26 c-8 -10 -16 -11 -30 -3 -35 18 -20 43 17 27 18 -9 21 -14 13 -24z
m1541 26 c0 -12 -55 -41 -63 -33 -4 3 -2 14 4 24 10 20 59 27 59 9z m-1259
-37 c13 -15 12 -15 -8 -4 -24 12 -29 21 -14 21 5 0 15 -7 22 -17z m-2491 -3
c12 -8 9 -10 -13 -10 -16 0 -26 4 -22 10 8 12 16 12 35 0z m3070 0 c0 -5 -2
-10 -4 -10 -3 0 -8 5 -11 10 -3 6 -1 10 4 10 6 0 11 -4 11 -10z m-1255 -20
c17 -19 17 -22 2 -37 -13 -14 -20 -14 -47 -3 -38 16 -45 27 -30 45 18 21 54
18 75 -5z m1375 -10 c0 -5 -9 -10 -19 -10 -11 0 -23 5 -26 10 -4 6 5 10 19 10
14 0 26 -4 26 -10z m-4290 -20 c0 -5 -5 -10 -11 -10 -5 0 -7 5 -4 10 3 6 8 10
11 10 2 0 4 -4 4 -10z m690 -34 c0 -7 -17 -36 -39 -64 -32 -44 -40 -50 -51
-38 -14 18 -2 42 43 84 9 9 17 25 17 35 0 16 3 17 15 7 8 -7 15 -18 15 -24z
m447 28 c-3 -3 -12 -4 -19 -1 -8 3 -5 6 6 6 11 1 17 -2 13 -5z m3147 -36 c-9
-30 -8 -30 -38 -22 -17 4 -26 13 -26 25 0 15 7 19 36 19 32 0 35 -2 28 -22z
m174 -11 c12 -11 22 -24 22 -29 0 -15 -30 -8 -51 13 -12 12 -24 17 -28 12 -9
-15 -40 -12 -34 4 3 7 11 13 19 13 8 0 14 4 14 10 0 13 31 1 58 -23z m-3528
-21 c0 -3 -4 -8 -10 -11 -5 -3 -10 -1 -10 4 0 6 5 11 10 11 6 0 10 -2 10 -4z
m2620 -18 c0 -13 -32 -6 -37 9 -3 7 3 9 16 6 12 -3 21 -10 21 -15z m1075 3 c6
-11 -33 -26 -43 -16 -4 3 0 10 8 15 19 12 27 12 35 1z m-835 -11 c0 -5 7 -10
15 -10 8 0 15 -7 15 -15 0 -20 -3 -19 -30 10 -13 14 -18 25 -12 25 7 0 12 -4
12 -10z m-2269 -44 c4 -21 4 -47 2 -57 -5 -16 -50 -32 -65 -22 -12 6 -10 55 3
92 9 24 16 31 33 29 16 -2 22 -12 27 -42z m1644 30 c19 -14 19 -15 1 -35 -18
-20 -24 -20 -64 7 -19 13 -3 42 22 42 12 0 31 -6 41 -14z m-4700 -19 c24 -18
3 -32 -24 -15 -15 9 -23 9 -36 -2 -24 -20 -16 -64 12 -68 13 -2 36 -22 55 -48
34 -48 43 -51 75 -29 13 9 32 13 46 10 15 -4 32 1 47 13 29 22 90 33 214 38
49 2 103 8 120 14 39 12 103 16 112 7 4 -4 2 -18 -4 -32 -7 -14 -12 -34 -12
-44 0 -10 -15 -34 -32 -54 l-33 -37 -55 13 c-75 17 -95 12 -115 -29 -9 -19
-19 -34 -23 -34 -4 0 -34 13 -67 29 -124 59 -181 73 -290 69 l-100 -3 -10 50
c-5 28 -20 67 -32 88 -13 21 -23 47 -23 58 0 17 7 19 78 19 50 0 85 -5 97 -13z
m2765 -2 c-13 -16 -40 -20 -40 -7 0 14 12 22 33 22 16 0 17 -3 7 -15z m3300
-20 c0 -8 -4 -15 -10 -15 -5 0 -10 7 -10 15 0 8 5 15 10 15 6 0 10 -7 10 -15z
m-4555 -24 c-3 -12 -11 -21 -16 -21 -5 0 -9 -5 -9 -11 0 -16 -38 -61 -43 -52
-8 12 19 69 43 93 25 25 35 21 25 -9z m4247 4 c0 -5 -5 -11 -11 -13 -6 -2 -11
4 -11 13 0 9 5 15 11 13 6 -2 11 -8 11 -13z m-4012 -49 c0 -13 -33 -103 -42
-111 -14 -14 -14 23 0 55 9 19 14 45 13 57 -2 17 2 21 13 17 9 -3 16 -11 16
-18z m603 10 c6 -14 -73 -96 -91 -96 -20 0 -22 32 -4 37 11 2 26 20 35 39 17
35 50 46 60 20z m-2514 -9 c6 -8 8 -17 4 -20 -7 -8 -33 11 -33 24 0 13 16 11
29 -4z m248 -13 c-9 -9 -28 6 -21 18 4 6 10 6 17 -1 6 -6 8 -13 4 -17z m6023
-5 c0 -6 -4 -7 -10 -4 -5 3 -10 11 -10 16 0 6 5 7 10 4 6 -3 10 -11 10 -16z
m-585 1 c3 -5 1 -10 -4 -10 -6 0 -11 5 -11 10 0 6 2 10 4 10 3 0 8 -4 11 -10z
m-3995 -25 c0 -14 -4 -25 -10 -25 -5 0 -10 -11 -10 -24 0 -23 -16 -44 -25 -34
-7 6 29 108 38 108 4 0 7 -11 7 -25z m3418 5 c28 -17 32 -23 22 -35 -27 -32
-88 -5 -76 33 9 27 13 27 54 2z m352 -1 c0 -6 -4 -7 -10 -4 -5 3 -10 11 -10
16 0 6 5 7 10 4 6 -3 10 -11 10 -16z m756 -25 c-3 -9 -6 -20 -6 -25 0 -5 -13
-9 -30 -9 -16 0 -30 4 -30 9 0 5 -3 16 -6 25 -5 13 2 16 36 16 34 0 41 -3 36
-16z m54 6 c0 -5 -8 -10 -17 -10 -15 0 -16 2 -3 10 19 12 20 12 20 0z m-4790
-4 c0 -3 -4 -8 -10 -11 -5 -3 -10 -1 -10 4 0 6 5 11 10 11 6 0 10 -2 10 -4z
m1524 -12 c23 -22 20 -34 -8 -34 -31 0 -50 22 -34 38 16 16 23 15 42 -4z
m-1506 -39 c-21 -43 -38 -58 -38 -34 0 17 40 79 51 79 5 0 -1 -20 -13 -45z
m1382 15 c0 -5 -15 -9 -32 -9 l-33 1 30 8 c17 4 31 8 33 9 1 0 2 -3 2 -9z
m-1130 -72 c0 -4 -5 -8 -11 -8 -5 0 -8 -4 -4 -9 3 -5 1 -12 -4 -15 -15 -10
-21 9 -14 44 6 31 7 32 20 15 7 -11 13 -22 13 -27z m-222 -59 c-12 -27 -23
-48 -25 -45 -2 2 1 32 8 66 10 54 14 61 25 46 10 -14 9 -26 -8 -67z m3270 36
c-2 -12 -7 -7 -15 16 -12 30 -11 32 3 17 9 -8 14 -23 12 -33z m556 0 c17 -13
18 -18 8 -40 -12 -26 -12 -26 -42 -8 -28 16 -38 41 -23 56 11 11 37 7 57 -8z
m316 6 c0 -5 9 -7 20 -4 15 4 20 0 20 -16 0 -13 -6 -21 -18 -21 -23 0 -64 29
-57 41 8 12 35 12 35 0z m-2846 -53 l19 -33 -32 33 c-17 18 -31 38 -31 44 0
16 22 -6 44 -44z m-1117 10 c-3 -8 -6 -5 -6 6 -1 11 2 17 5 13 3 -3 4 -12 1
-19z m112 -84 c-7 -24 -17 -44 -22 -44 -10 0 -1 59 15 99 18 41 23 -1 7 -55z
m-215 42 c8 -14 8 -20 -1 -23 -7 -3 -13 -20 -13 -38 0 -36 -17 -56 -30 -35 -9
14 7 60 25 72 6 5 6 11 -3 20 -6 6 -12 16 -12 21 0 14 23 3 34 -17z m3357 8
c12 -14 11 -16 -5 -13 -11 2 -21 10 -24 17 -5 17 13 15 29 -4z m1551 -56 c-15
-15 -26 -4 -18 18 5 13 9 15 18 6 9 -9 9 -15 0 -24z m-5113 -22 c-9 -8 -10 -7
-5 7 3 10 7 24 7 30 1 7 3 4 6 -7 3 -10 -1 -23 -8 -30z m1711 23 c0 -7 8 -17
17 -24 15 -11 15 -13 -3 -23 -11 -6 -33 -12 -50 -14 -25 -3 -29 1 -32 25 -3
21 2 29 20 36 32 13 48 13 48 0z m-140 -23 c0 -3 -4 -8 -10 -11 -5 -3 -10 -1
-10 4 0 6 5 11 10 11 6 0 10 -2 10 -4z m2626 -41 c-4 -14 -28 -17 -45 -6 -8 5
-11 16 -6 30 6 20 7 20 30 3 14 -9 23 -21 21 -27z m-496 25 c0 -5 -5 -10 -11
-10 -5 0 -7 5 -4 10 3 6 8 10 11 10 2 0 4 -4 4 -10z"/>
<path d="M6168 3753 c7 -3 16 -2 19 1 4 3 -2 6 -13 5 -11 0 -14 -3 -6 -6z"/>
<path d="M6556 3375 c4 -8 8 -15 10 -15 2 0 4 7 4 15 0 8 -4 15 -10 15 -5 0
-7 -7 -4 -15z"/>
<path d="M7234 3355 c7 -18 -3 -24 -50 -29 -22 -2 -57 -7 -80 -11 -39 -7 -40
-8 -39 -48 1 -41 3 -43 59 -72 32 -17 63 -37 70 -46 19 -25 94 -51 116 -39 24
13 40 13 20 0 -10 -6 -3 -8 23 -3 24 4 37 2 37 -6 0 -6 9 -11 20 -11 11 0 20
-6 20 -14 0 -7 8 -16 18 -20 9 -3 24 -9 32 -12 8 -3 4 4 -10 15 -35 29 -9 27
74 -4 36 -14 66 -21 66 -16 0 6 -4 13 -10 16 -5 3 -10 16 -10 28 0 16 3 18 9
8 5 -8 16 -11 29 -7 19 6 21 1 27 -79 4 -47 4 -122 0 -168 -7 -91 8 -177 31
-177 14 0 18 15 15 56 -1 11 5 26 13 33 12 10 13 18 5 33 -7 14 -7 23 1 33 8
10 8 15 -1 20 -7 5 -9 22 -7 44 3 20 2 45 -2 56 -4 12 -2 28 6 40 16 23 18 71
4 80 -5 3 -10 14 -10 23 0 10 -9 24 -20 32 -11 8 -20 20 -20 26 0 17 -49 47
-66 40 -8 -3 -14 0 -14 6 0 14 -99 108 -115 108 -7 0 -20 9 -30 20 -10 11 -26
20 -36 20 -10 0 -20 4 -23 9 -5 8 -43 16 -129 27 -22 2 -28 0 -23 -11z"/>
<path d="M6722 3149 c2 -6 8 -10 13 -10 5 0 11 4 13 10 2 6 -4 11 -13 11 -9 0
-15 -5 -13 -11z"/>
<path d="M6775 3110 c3 -5 11 -10 16 -10 6 0 7 5 4 10 -3 6 -11 10 -16 10 -6
0 -7 -4 -4 -10z"/>
<path d="M6786 3035 c4 -8 10 -12 15 -9 11 6 2 24 -11 24 -5 0 -7 -7 -4 -15z"/>
<path d="M6830 2990 c0 -5 7 -10 16 -10 8 0 12 5 9 10 -3 6 -10 10 -16 10 -5
0 -9 -4 -9 -10z"/>
<path d="M7690 2620 c0 -5 5 -10 11 -10 5 0 7 5 4 10 -3 6 -8 10 -11 10 -2 0
-4 -4 -4 -10z"/>
<path d="M7475 2092 c-23 -16 -14 -32 18 -32 21 0 28 3 19 9 -8 4 -13 12 -12
17 2 12 -13 15 -25 6z"/>
<path d="M7566 2045 c-3 -9 0 -15 9 -15 16 0 20 16 6 24 -5 3 -11 -1 -15 -9z"/>
<path d="M7681 2013 c-1 -12 -7 -24 -13 -26 -10 -4 -10 -6 0 -6 15 -1 26 23
19 41 -3 7 -6 3 -6 -9z"/>
<path d="M7311 1974 c0 -11 3 -14 6 -6 3 7 2 16 -1 19 -3 4 -6 -2 -5 -13z"/>
<path d="M7275 1971 c-3 -5 -1 -12 5 -16 5 -3 10 1 10 9 0 18 -6 21 -15 7z"/>
<path d="M7405 1940 c3 -5 10 -10 16 -10 5 0 9 5 9 10 0 6 -7 10 -16 10 -8 0
-12 -4 -9 -10z"/>
<path d="M7618 1823 c7 -3 16 -2 19 1 4 3 -2 6 -13 5 -11 0 -14 -3 -6 -6z"/>
<path d="M7556 1681 c-3 -5 1 -15 10 -22 13 -10 17 -10 24 1 6 9 4 17 -3 22
-16 10 -25 10 -31 -1z"/>
<path d="M7360 1461 c0 -10 30 -24 37 -17 3 3 2 9 -2 15 -8 13 -35 15 -35 2z"/>
<path d="M5680 2551 c0 -6 5 -13 10 -16 6 -3 10 1 10 9 0 9 -4 16 -10 16 -5 0
-10 -4 -10 -9z"/>
<path d="M6080 970 c0 -5 5 -10 10 -10 6 0 10 5 10 10 0 6 -4 10 -10 10 -5 0
-10 -4 -10 -10z"/>
<path d="M4392 6349 c-44 -8 -102 -38 -102 -51 0 -12 16 -10 57 7 47 20 137
21 130 1 -5 -11 2 -11 34 3 21 9 39 19 39 23 0 17 -104 28 -158 17z"/>
<path d="M4260 6300 c0 -5 5 -10 11 -10 5 0 7 5 4 10 -3 6 -8 10 -11 10 -2 0
-4 -4 -4 -10z"/>
<path d="M4165 6260 c-3 -5 1 -10 9 -10 8 0 18 5 21 10 3 6 -1 10 -9 10 -8 0
-18 -4 -21 -10z"/>
<path d="M4345 6219 c-11 -16 -2 -17 25 -2 24 12 24 13 3 13 -12 0 -25 -5 -28
-11z"/>
<path d="M4400 6220 c0 -6 7 -10 15 -10 8 0 15 2 15 4 0 2 -7 6 -15 10 -8 3
-15 1 -15 -4z"/>
<path d="M4948 6203 c12 -2 32 -2 45 0 12 2 2 4 -23 4 -25 0 -35 -2 -22 -4z"/>
<path d="M5113 6203 c9 -2 25 -2 35 0 9 3 1 5 -18 5 -19 0 -27 -2 -17 -5z"/>
<path d="M5375 6200 c3 -5 21 -10 38 -10 24 0 28 3 17 10 -20 13 -63 13 -55 0z"/>
<path d="M4588 6193 c7 -3 16 -2 19 1 4 3 -2 6 -13 5 -11 0 -14 -3 -6 -6z"/>
<path d="M5060 6190 c0 -5 7 -7 15 -4 8 4 15 8 15 10 0 2 -7 4 -15 4 -8 0 -15
-4 -15 -10z"/>
<path d="M5238 6193 c7 -3 16 -2 19 1 4 3 -2 6 -13 5 -11 0 -14 -3 -6 -6z"/>
<path d="M4390 6180 c-8 -5 -12 -11 -9 -14 2 -3 11 -1 19 4 8 5 12 11 9 14 -2
3 -11 1 -19 -4z"/>
<path d="M4465 6180 c11 -5 27 -9 35 -9 9 0 8 4 -5 9 -11 5 -27 9 -35 9 -9 0
-8 -4 5 -9z"/>
<path d="M4848 6183 c6 -2 18 -2 25 0 6 3 1 5 -13 5 -14 0 -19 -2 -12 -5z"/>
<path d="M5437 6165 c-8 -18 11 -31 25 -17 11 11 3 32 -12 32 -4 0 -10 -7 -13
-15z"/>
<path d="M4663 6163 c9 -2 23 -2 30 0 6 3 -1 5 -18 5 -16 0 -22 -2 -12 -5z"/>
<path d="M4418 6153 c-10 -2 -18 -9 -18 -14 0 -13 12 -11 34 6 20 15 16 17
-16 8z"/>
<path d="M4996 6121 c-4 -5 -2 -12 3 -15 5 -4 12 -2 15 3 4 5 2 12 -3 15 -5 4
-12 2 -15 -3z"/>
<path d="M5540 6120 c0 -5 9 -10 20 -10 11 0 20 5 20 10 0 6 -9 10 -20 10 -11
0 -20 -4 -20 -10z"/>
<path d="M4428 6113 c-10 -2 -18 -9 -18 -14 0 -12 3 -12 36 6 28 14 19 18 -18
8z"/>
<path d="M5232 6113 c-18 -2 -30 -8 -27 -13 6 -10 76 -1 90 11 9 9 -1 9 -63 2z"/>
<path d="M5025 6090 c-3 -5 -2 -10 4 -10 5 0 13 5 16 10 3 6 2 10 -4 10 -5 0
-13 -4 -16 -10z"/>
<path d="M5586 6091 c-4 -7 -5 -15 -2 -18 9 -9 19 4 14 18 -4 11 -6 11 -12 0z"/>
<path d="M5133 6078 c-13 -6 -23 -15 -23 -21 0 -5 10 -7 23 -3 12 3 25 6 30 6
4 0 7 7 7 15 0 17 -6 18 -37 3z"/>
<path d="M5865 6080 c3 -5 8 -10 11 -10 2 0 4 5 4 10 0 6 -5 10 -11 10 -5 0
-7 -4 -4 -10z"/>
<path d="M4962 6043 c-23 -15 -42 -35 -42 -45 0 -21 -16 -32 -24 -16 -3 7 -4
0 -3 -16 2 -35 26 -47 34 -17 3 12 9 21 14 21 5 0 9 7 9 15 0 8 6 15 13 15 14
0 67 50 67 63 0 14 -27 6 -68 -20z"/>
<path d="M5068 6063 c7 -3 16 -2 19 1 4 3 -2 6 -13 5 -11 0 -14 -3 -6 -6z"/>
<path d="M5915 6060 c-3 -5 -1 -10 4 -10 6 0 11 5 11 10 0 6 -2 10 -4 10 -3 0
-8 -4 -11 -10z"/>
<path d="M5610 6050 c0 -5 5 -10 10 -10 6 0 10 5 10 10 0 6 -4 10 -10 10 -5 0
-10 -4 -10 -10z"/>
<path d="M5720 6036 c0 -9 5 -16 10 -16 6 0 10 4 10 9 0 6 -4 13 -10 16 -5 3
-10 -1 -10 -9z"/>
<path d="M5965 6018 c11 -15 24 -28 28 -28 15 0 1 23 -23 39 l-24 16 19 -27z"/>
<path d="M5039 6003 c-9 -10 -25 -23 -35 -29 -10 -7 -15 -15 -11 -20 4 -5 16
-3 25 4 19 13 46 27 77 37 l20 7 -20 8 c-30 13 -39 12 -56 -7z"/>
<path d="M6010 5996 c0 -2 11 -6 25 -8 13 -3 22 -1 19 3 -5 9 -44 13 -44 5z"/>
<path d="M4880 5910 c0 -5 5 -10 11 -10 5 0 7 5 4 10 -3 6 -8 10 -11 10 -2 0
-4 -4 -4 -10z"/>
<path d="M4918 5899 c-20 -21 -23 -39 -9 -39 5 0 16 14 25 30 16 34 10 38 -16
9z"/>
<path d="M6107 5866 c15 -14 30 -20 31 -15 6 15 -19 39 -40 39 -16 0 -15 -3 9
-24z"/>
<path d="M5565 5780 c-3 -5 -2 -10 4 -10 5 0 13 5 16 10 3 6 2 10 -4 10 -5 0
-13 -4 -16 -10z"/>
<path d="M5505 5757 c-16 -7 -31 -20 -33 -29 -4 -26 13 -22 50 12 35 31 31 36
-17 17z"/>
<path d="M5823 5763 c9 -2 23 -2 30 0 6 3 -1 5 -18 5 -16 0 -22 -2 -12 -5z"/>
<path d="M5830 5743 c-33 -6 -52 -23 -46 -40 3 -8 -2 -13 -13 -13 -18 0 -37
-27 -26 -38 2 -3 7 3 11 12 3 9 13 16 21 16 8 0 21 7 29 15 9 8 27 15 42 14
15 0 21 -3 13 -6 -15 -6 -54 -43 -46 -43 3 0 25 9 47 20 23 11 52 20 65 20 16
0 21 4 17 15 -4 8 -17 15 -31 15 -13 0 -21 4 -18 10 6 10 -19 11 -65 3z"/>
<path d="M5910 5670 c-26 -16 -3 -22 27 -6 23 13 24 15 8 15 -11 1 -27 -3 -35
-9z"/>
<path d="M5610 5639 c0 -5 5 -7 10 -4 6 3 10 8 10 11 0 2 -4 4 -10 4 -5 0 -10
-5 -10 -11z"/>
<path d="M5870 5639 c0 -5 5 -7 10 -4 6 3 10 8 10 11 0 2 -4 4 -10 4 -5 0 -10
-5 -10 -11z"/>
<path d="M5703 5605 c-3 -9 -3 -18 -1 -21 3 -3 8 4 11 16 6 23 -1 27 -10 5z"/>
<path d="M5973 5613 c-7 -2 -13 -11 -13 -19 0 -11 5 -11 28 -2 41 18 49 28 22
27 -14 0 -31 -3 -37 -6z"/>
<path d="M9109 5591 c-8 -9 -21 -30 -28 -48 -7 -18 -18 -34 -24 -36 -7 -2 2
-2 18 1 34 5 64 37 65 69 0 29 -11 34 -31 14z"/>
<path d="M5920 5575 c0 -8 2 -15 4 -15 2 0 6 7 10 15 3 8 1 15 -4 15 -6 0 -10
-7 -10 -15z"/>
<path d="M5601 5564 c0 -11 3 -14 6 -6 3 7 2 16 -1 19 -3 4 -6 -2 -5 -13z"/>
<path d="M5361 5524 c0 -11 3 -14 6 -6 3 7 2 16 -1 19 -3 4 -6 -2 -5 -13z"/>
<path d="M5677 5403 c-4 -3 -7 -11 -7 -17 0 -6 5 -5 12 2 6 6 9 14 7 17 -3 3
-9 2 -12 -2z"/>
<path d="M5754 5396 c-4 -9 -4 -20 0 -23 3 -4 12 -1 18 5 9 9 9 15 0 24 -9 9
-13 7 -18 -6z"/>
<path d="M5615 5330 c-3 -5 -1 -10 4 -10 6 0 11 5 11 10 0 6 -2 10 -4 10 -3 0
-8 -4 -11 -10z"/>
<path d="M5770 5323 c0 -13 5 -23 10 -23 13 0 13 11 0 30 -8 12 -10 11 -10 -7z"/>
<path d="M6620 5316 c0 -8 5 -18 10 -21 6 -3 10 3 10 14 0 12 -4 21 -10 21 -5
0 -10 -6 -10 -14z"/>
<path d="M5677 5250 c3 -11 7 -20 9 -20 2 0 4 9 4 20 0 11 -4 20 -9 20 -5 0
-7 -9 -4 -20z"/>
<path d="M5683 5156 c0 -19 5 -33 9 -30 11 7 10 64 -1 64 -5 0 -9 -15 -8 -34z"/>
<path d="M5800 5181 c0 -6 4 -13 10 -16 6 -3 7 1 4 9 -7 18 -14 21 -14 7z"/>
<path d="M5620 5118 c0 -13 5 -30 10 -38 7 -11 10 -5 10 23 0 20 -4 37 -10 37
-5 0 -10 -10 -10 -22z"/>
<path d="M6742 5118 c2 -6 10 -14 16 -16 7 -2 10 2 6 12 -7 18 -28 22 -22 4z"/>
<path d="M5670 5096 c0 -8 4 -17 8 -20 4 -2 8 4 8 15 0 10 -4 19 -8 19 -4 0
-8 -6 -8 -14z"/>
<path d="M6820 5059 c0 -15 7 -32 15 -39 10 -9 14 -22 10 -39 -4 -20 2 -34 25
-59 16 -18 30 -37 30 -41 0 -9 34 -41 43 -41 14 0 7 39 -9 55 -10 9 -18 27
-19 39 -3 27 -26 66 -38 66 -5 0 -6 11 -3 25 6 22 -2 31 -19 23 -2 -2 -11 6
-19 17 -15 19 -15 19 -16 -6z"/>
<path d="M5672 5000 c0 -14 2 -19 5 -12 2 6 2 18 0 25 -3 6 -5 1 -5 -13z"/>
<path d="M6810 5006 c0 -8 4 -17 9 -20 5 -4 7 3 4 14 -6 23 -13 26 -13 6z"/>
<path d="M5770 4916 c0 -9 5 -16 10 -16 6 0 10 4 10 9 0 6 -4 13 -10 16 -5 3
-10 -1 -10 -9z"/>
<path d="M5757 4876 c-4 -10 -5 -21 -2 -24 9 -9 17 6 13 25 -3 17 -4 17 -11
-1z"/>
<path d="M5687 4801 c-3 -12 -1 -21 3 -21 15 0 23 21 12 32 -6 6 -11 2 -15
-11z"/>
<path d="M5669 4672 c-22 -23 -20 -86 3 -90 13 -3 17 3 17 25 0 15 2 40 6 56
8 30 -2 34 -26 9z"/>
<path d="M6757 4574 c-3 -3 -22 -6 -41 -6 -20 0 -36 -4 -36 -8 0 -5 -9 -11
-19 -15 -12 -3 -21 -17 -23 -33 -2 -21 -11 -30 -36 -38 -19 -6 -46 -24 -62
-40 -49 -51 -70 -65 -91 -59 -15 5 -19 2 -19 -17 0 -13 -7 -33 -15 -44 -20
-27 -18 -44 5 -44 11 0 20 -4 20 -10 0 -14 -37 -12 -43 3 -3 9 -9 8 -22 -4
-16 -15 -15 -18 10 -43 14 -14 32 -26 40 -26 8 0 17 -11 21 -25 6 -25 6 -25
24 -5 9 11 24 20 33 20 9 0 28 5 42 12 19 9 25 17 21 32 -4 16 4 27 29 44 19
12 35 28 35 35 0 8 20 28 45 46 25 18 43 36 40 41 -3 5 15 21 40 37 24 15 44
34 45 41 0 7 5 10 11 7 6 -4 21 3 33 14 14 13 29 19 39 15 10 -3 17 -1 17 4 0
6 -9 14 -20 17 -11 3 -20 10 -20 15 0 5 -13 11 -30 15 -16 4 -30 11 -30 16 0
10 -33 12 -43 3z m-227 -234 c0 -5 -4 -10 -10 -10 -5 0 -10 5 -10 10 0 6 5 10
10 10 6 0 10 -4 10 -10z m20 -80 c0 -5 -2 -10 -4 -10 -3 0 -8 5 -11 10 -3 6
-1 10 4 10 6 0 11 -4 11 -10z"/>
<path d="M7183 4443 c9 -2 23 -2 30 0 6 3 -1 5 -18 5 -16 0 -22 -2 -12 -5z"/>
<path d="M6738 4393 c6 -2 18 -2 25 0 6 3 1 5 -13 5 -14 0 -19 -2 -12 -5z"/>
<path d="M7060 4350 c-8 -5 -37 -19 -63 -31 -49 -24 -84 -53 -56 -48 7 1 33
-4 57 -11 26 -8 46 -10 50 -4 4 5 16 14 26 20 11 5 26 20 34 33 15 22 15 22
-11 10 -32 -14 -50 -3 -24 15 29 22 19 35 -13 16z"/>
<path d="M6838 4212 c-62 -53 -88 -80 -137 -142 -51 -64 -71 -107 -81 -170
-10 -63 -3 -76 26 -49 l24 22 0 -27 c0 -18 7 -29 23 -36 17 -7 18 -9 5 -9 -19
-1 -26 -21 -8 -21 6 0 10 -7 10 -15 0 -8 5 -15 10 -15 15 0 12 -26 -4 -39 -10
-8 -16 -9 -21 -1 -3 5 -1 10 4 10 6 0 11 7 11 15 0 8 -7 15 -15 15 -8 0 -15 6
-15 13 0 7 -9 20 -20 30 -19 16 -20 16 -20 -8 0 -14 9 -42 20 -62 11 -21 20
-44 20 -51 0 -7 7 -15 15 -18 8 -4 15 -13 15 -21 0 -8 7 -13 18 -11 13 3 17
13 15 50 -1 31 3 48 12 52 17 6 55 -4 55 -15 0 -5 7 -6 15 -3 8 4 15 1 15 -5
0 -21 38 -11 44 12 5 20 12 22 67 23 33 1 66 7 72 13 6 6 7 11 2 12 -6 0 -37
1 -70 2 -71 3 -85 10 -85 43 0 13 -5 24 -11 24 -7 0 -9 -9 -6 -22 8 -28 -8
-47 -33 -41 -24 6 -25 16 -5 33 8 7 15 16 15 21 0 11 -42 8 -57 -4 -7 -5 -13
-6 -13 -3 0 13 28 36 44 36 8 0 34 10 58 23 80 43 84 47 80 78 -3 23 0 29 14
31 11 1 26 2 34 4 8 1 19 2 24 3 4 1 -2 9 -15 20 -22 18 -23 18 -43 0 -11 -11
-23 -19 -28 -19 -4 0 -8 -6 -8 -13 0 -16 -36 -47 -55 -47 -26 0 -16 25 18 40
32 15 32 16 34 88 1 51 -3 77 -13 87 -34 33 -11 41 64 21 9 -2 23 -5 30 -5 7
-1 18 -12 24 -26 13 -28 30 -32 48 -10 9 11 9 15 1 15 -7 0 -9 5 -6 10 3 6 15
10 26 10 12 0 17 -4 14 -11 -12 -18 29 -5 43 14 17 22 9 34 -27 42 -16 3 -32
13 -35 20 -4 10 -14 13 -36 9 -16 -4 -30 -2 -30 3 0 5 -29 10 -64 11 -60 0
-67 -2 -108 -36z m42 -132 c0 -11 -2 -20 -5 -20 -2 0 -9 9 -15 20 -9 16 -8 20
5 20 8 0 15 -9 15 -20z m-110 -305 c0 -8 -4 -17 -10 -20 -6 -4 -10 5 -10 20 0
15 4 24 10 20 6 -3 10 -12 10 -20z m-50 -95 c0 -5 -5 -10 -11 -10 -5 0 -7 5
-4 10 3 6 8 10 11 10 2 0 4 -4 4 -10z"/>
<path d="M6250 4170 c0 -5 5 -10 10 -10 6 0 10 5 10 10 0 6 -4 10 -10 10 -5 0
-10 -4 -10 -10z"/>
<path d="M6385 4160 c-3 -5 -1 -10 4 -10 6 0 11 5 11 10 0 6 -2 10 -4 10 -3 0
-8 -4 -11 -10z"/>
<path d="M7017 4063 c-4 -3 -7 -11 -7 -17 0 -6 5 -5 12 2 6 6 9 14 7 17 -3 3
-9 2 -12 -2z"/>
<path d="M6287 4033 c-11 -10 -8 -43 3 -43 6 0 10 11 10 25 0 26 -2 29 -13 18z"/>
<path d="M5208 3983 c7 -3 16 -2 19 1 4 3 -2 6 -13 5 -11 0 -14 -3 -6 -6z"/>
<path d="M6890 3700 c0 -5 9 -10 20 -10 11 0 20 5 20 10 0 6 -9 10 -20 10 -11
0 -20 -4 -20 -10z"/>
<path d="M3532 1147 c-17 -20 -12 -40 6 -28 8 5 12 16 10 26 -3 17 -4 17 -16
2z"/>
<path d="M3848 1123 c7 -3 16 -2 19 1 4 3 -2 6 -13 5 -11 0 -14 -3 -6 -6z"/>
<path d="M3938 1103 c6 -2 18 -2 25 0 6 3 1 5 -13 5 -14 0 -19 -2 -12 -5z"/>
<path d="M3387 1083 c-4 -3 -7 -19 -7 -35 0 -24 -5 -30 -30 -35 -30 -5 -47
-19 -37 -29 3 -3 14 -1 25 5 29 15 54 4 42 -19 -6 -12 -5 -23 5 -36 8 -11 15
-28 15 -38 0 -16 3 -17 12 -8 7 7 31 12 55 12 24 0 51 4 61 9 9 6 29 12 45 16
15 3 27 12 27 20 0 8 4 15 8 15 5 0 17 7 28 16 17 14 14 15 -41 8 -33 -4 -77
-6 -97 -5 -26 1 -38 -2 -38 -12 0 -10 14 -13 53 -12 30 1 59 5 65 9 7 4 12 3
12 -3 0 -18 -33 -28 -106 -33 l-72 -5 -9 59 c-5 32 -6 61 -1 64 4 3 8 14 8 25
0 19 -11 25 -23 12z"/>
<path d="M3507 1083 c-2 -5 -7 -21 -11 -38 -7 -29 -7 -29 13 -11 21 19 29 56
12 56 -6 0 -12 -3 -14 -7z"/>
<path d="M3665 1060 c3 -5 8 -10 11 -10 2 0 4 5 4 10 0 6 -5 10 -11 10 -5 0
-7 -4 -4 -10z"/>
<path d="M3743 1063 c9 -2 25 -2 35 0 9 3 1 5 -18 5 -19 0 -27 -2 -17 -5z"/>
<path d="M4250 1055 c0 -8 8 -15 18 -15 9 0 34 -11 54 -25 45 -31 57 -32 32
-4 -17 19 -84 59 -99 59 -3 0 -5 -7 -5 -15z"/>
<path d="M3308 1053 c7 -3 16 -2 19 1 4 3 -2 6 -13 5 -11 0 -14 -3 -6 -6z"/>
<path d="M4110 1045 c17 -21 79 -31 93 -15 10 10 8 12 -6 7 -10 -4 -31 0 -47
8 -39 20 -57 20 -40 0z"/>
<path d="M3565 1030 c-18 -8 -17 -9 8 -9 15 -1 27 4 27 9 0 12 -8 12 -35 0z"/>
<path d="M3633 1033 c9 -2 25 -2 35 0 9 3 1 5 -18 5 -19 0 -27 -2 -17 -5z"/>
<path d="M3848 1033 c6 -2 18 -2 25 0 6 3 1 5 -13 5 -14 0 -19 -2 -12 -5z"/>
<path d="M4005 1030 c-3 -5 3 -10 14 -10 12 0 21 5 21 10 0 6 -6 10 -14 10 -8
0 -18 -4 -21 -10z"/>
<path d="M3928 1023 c12 -2 32 -2 45 0 12 2 2 4 -23 4 -25 0 -35 -2 -22 -4z"/>
<path d="M4230 1000 c0 -6 10 -15 23 -20 12 -5 33 -18 46 -27 23 -17 24 -17
16 7 -4 14 -12 31 -17 38 -12 14 -68 16 -68 2z"/>
<path d="M10045 1002 c-1 -1 -60 -6 -131 -10 -111 -6 -129 -9 -132 -24 -3 -15
4 -18 38 -18 36 0 41 -2 35 -17 -16 -37 -9 -143 9 -143 18 0 30 67 21 120 -4
26 -3 40 4 40 6 0 11 -17 12 -37 1 -21 5 -49 9 -63 8 -24 8 -24 9 -2 2 34 48
31 57 -4 4 -15 18 -30 33 -36 24 -10 25 -11 6 -18 -18 -7 -17 -8 9 -15 17 -5
42 -3 60 3 23 9 36 9 59 -3 16 -8 40 -12 53 -9 13 3 36 8 51 10 83 11 109 18
120 33 6 9 8 20 3 26 -4 5 -4 20 1 32 7 19 14 22 37 17 19 -4 34 -1 45 10 8 9
21 16 27 16 6 0 9 4 6 9 -4 5 0 12 6 14 10 4 10 6 1 6 -7 1 -13 8 -13 17 0 10
4 12 13 7 6 -4 39 -8 72 -8 56 0 60 -2 63 -24 3 -19 6 -21 13 -10 7 11 9 10
10 -6 2 -24 16 27 18 63 l1 23 -157 -2 c-87 -1 -227 0 -311 2 -85 2 -155 3
-157 1z m210 -152 c3 -5 1 -10 -4 -10 -6 0 -11 5 -11 10 0 6 2 10 4 10 3 0 8
-4 11 -10z m0 -50 c3 -5 1 -10 -4 -10 -6 0 -11 5 -11 10 0 6 2 10 4 10 3 0 8
-4 11 -10z"/>
<path d="M3733 968 c-18 -13 -33 -26 -33 -29 0 -7 213 -19 220 -13 10 11 -29
24 -92 30 -77 7 -89 21 -25 27 l42 4 -40 1 c-28 1 -50 -5 -72 -20z"/>
<path d="M3240 970 c0 -5 5 -10 10 -10 6 0 10 5 10 10 0 6 -4 10 -10 10 -5 0
-10 -4 -10 -10z"/>
<path d="M3890 970 c20 -13 73 -13 65 0 -3 6 -23 10 -43 10 -28 0 -33 -3 -22
-10z"/>
<path d="M4370 978 c0 -2 8 -25 18 -53 17 -46 20 -50 47 -47 15 2 37 7 48 11
17 7 14 10 -21 24 -23 9 -49 28 -58 42 -13 20 -34 34 -34 23z"/>
<path d="M4188 963 c7 -3 16 -2 19 1 4 3 -2 6 -13 5 -11 0 -14 -3 -6 -6z"/>
<path d="M4060 921 c8 -5 29 -11 45 -15 28 -6 29 -5 11 9 -11 8 -31 15 -45 15
-19 -1 -22 -3 -11 -9z"/>
<path d="M4600 913 c0 -7 5 -15 10 -18 15 -9 12 -27 -2 -19 -7 4 9 -15 35 -41
52 -50 70 -54 41 -8 -26 40 -84 100 -84 86z"/>
<path d="M9766 913 c-11 -12 -6 -41 8 -46 9 -4 12 -14 9 -25 -6 -24 10 -36 37
-27 21 7 29 55 9 55 -5 0 -8 4 -5 9 10 15 -45 47 -58 34z"/>
<path d="M3980 905 c0 -7 190 -95 204 -95 13 1 -45 50 -59 50 -5 0 -32 12 -60
25 -46 23 -85 32 -85 20z"/>
<path d="M4310 892 c0 -5 7 -9 15 -9 8 0 15 4 15 9 0 4 -7 8 -15 8 -8 0 -15
-4 -15 -8z"/>
<path d="M4180 882 c0 -6 9 -12 20 -15 11 -3 20 -3 20 -1 0 2 -9 8 -20 14 -11
6 -20 7 -20 2z"/>
<path d="M10400 854 c0 -9 5 -14 12 -12 18 6 21 28 4 28 -9 0 -16 -7 -16 -16z"/>
<path d="M10651 854 c0 -11 3 -14 6 -6 3 7 2 16 -1 19 -3 4 -6 -2 -5 -13z"/>
<path d="M10672 850 c0 -14 2 -19 5 -12 2 6 2 18 0 25 -3 6 -5 1 -5 -13z"/>
<path d="M4465 850 c4 -6 11 -8 16 -5 14 9 11 15 -7 15 -8 0 -12 -5 -9 -10z"/>
<path d="M3345 840 c3 -5 8 -10 11 -10 2 0 4 5 4 10 0 6 -5 10 -11 10 -5 0 -7
-4 -4 -10z"/>
<path d="M4546 841 c-4 -6 -16 -11 -28 -11 -17 0 -18 -3 -8 -15 7 -8 16 -12
21 -10 5 3 14 -3 21 -15 13 -21 38 -28 38 -10 0 20 -38 72 -44 61z"/>
<path d="M4420 830 c0 -5 7 -10 15 -10 7 0 18 -6 22 -12 12 -19 90 -78 102
-78 27 0 -3 36 -51 61 -13 6 -25 15 -28 18 -6 7 -48 31 -55 31 -3 0 -5 -4 -5
-10z"/>
<path d="M4210 794 c8 -4 19 -13 23 -20 4 -8 12 -14 17 -14 4 0 30 -10 57 -22
84 -38 90 -40 59 -14 -36 30 -102 63 -141 70 -16 4 -23 3 -15 0z"/>
<path d="M4650 757 c0 -31 4 -39 28 -49 15 -7 42 -23 60 -36 38 -29 43 -11 6
23 -22 21 -23 24 -7 28 14 4 13 5 -4 6 -13 0 -23 6 -23 11 0 6 -5 10 -11 10
-6 0 -19 10 -30 23 l-18 22 -1 -38z"/>
<path d="M10370 785 c0 -2 9 -9 19 -14 14 -8 20 -7 25 4 4 11 -2 15 -19 15
-14 0 -25 -2 -25 -5z"/>
<path d="M3037 758 c-21 -19 -22 -25 -11 -36 8 -7 14 -8 14 -2 0 5 6 10 14 10
24 0 38 26 22 39 -11 9 -19 7 -39 -11z"/>
<path d="M10080 735 c0 -19 40 -20 66 0 18 13 16 14 -23 15 -32 0 -43 -4 -43
-15z"/>
<path d="M3830 720 c-11 -7 2 -10 43 -10 36 0 56 -4 52 -10 -10 -15 54 -12 70
4 8 7 11 16 8 20 -10 10 -157 7 -173 -4z"/>
<path d="M4113 723 c-21 -4 -28 -14 -24 -35 0 -5 -4 -7 -11 -5 -7 1 -12 -5
-13 -13 0 -9 -14 -17 -35 -21 -20 -4 -26 -7 -13 -8 34 -2 73 -21 133 -67 30
-22 69 -48 86 -57 16 -8 44 -32 61 -52 38 -44 134 -120 185 -146 36 -18 88
-61 88 -72 0 -3 -8 -7 -17 -9 -14 -3 -8 -14 32 -54 28 -28 67 -70 89 -93 21
-23 54 -48 72 -56 19 -8 34 -19 34 -24 0 -7 68 -11 205 -11 132 0 205 4 205
10 0 6 -13 9 -29 8 -34 -2 -61 17 -61 43 0 16 -13 36 -55 83 -5 6 -23 31 -40
55 -16 24 -40 50 -53 59 -13 8 -30 29 -39 46 -19 39 -94 110 -138 130 -18 9
-49 16 -67 16 -37 0 -63 21 -69 54 -2 10 -25 30 -51 43 -27 14 -48 29 -48 34
0 5 -7 9 -15 9 -8 0 -15 4 -15 8 0 5 -14 19 -31 31 -40 30 -59 15 -33 -25 l19
-27 -26 17 c-15 9 -33 14 -42 10 -19 -7 -64 21 -72 45 -3 9 -29 31 -58 49 -52
31 -90 37 -154 25z m697 -317 c0 -3 -4 -8 -10 -11 -5 -3 -10 -1 -10 4 0 6 5
11 10 11 6 0 10 -2 10 -4z m-189 -187 c19 -16 20 -18 4 -10 -34 17 -51 31 -39
31 7 0 22 -9 35 -21z m154 -128 c-8 -8 -35 22 -35 38 0 12 5 10 20 -9 10 -14
17 -27 15 -29z"/>
<path d="M2872 673 c3 -41 -3 -60 -25 -72 -12 -6 -30 -25 -39 -42 -10 -17 -22
-27 -28 -24 -16 10 -12 47 8 61 21 16 0 19 -29 4 -23 -13 -25 -52 -4 -70 8 -7
15 -21 15 -31 0 -11 25 -44 55 -75 30 -30 69 -79 86 -109 17 -30 35 -57 39
-60 5 -3 14 -22 21 -43 14 -43 41 -84 87 -129 17 -18 32 -38 32 -44 0 -6 7
-17 15 -25 11 -12 41 -14 142 -12 l128 3 -42 28 c-24 15 -43 32 -43 39 0 6
-17 30 -37 52 -71 79 -103 121 -128 172 -14 28 -40 68 -58 90 -18 21 -52 69
-76 107 -24 37 -46 67 -50 67 -3 0 -17 27 -30 60 -25 62 -42 86 -39 53z m58
-130 c0 -17 -55 -113 -63 -110 -9 3 -9 3 -1 47 4 16 10 30 15 30 5 0 9 9 9 20
0 13 7 20 20 20 11 0 20 -3 20 -7z m97 -159 c6 -17 -32 -63 -43 -51 -9 8 16
67 28 67 5 0 11 -7 15 -16z m-55 -96 c-9 -9 -12 -7 -12 12 0 19 3 21 12 12 9
-9 9 -15 0 -24z m168 -98 c0 -10 -4 -21 -10 -25 -5 -3 -8 7 -7 24 2 31 17 32
17 1z m-32 -74 c-7 -8 -15 -12 -17 -11 -5 6 10 25 20 25 5 0 4 -6 -3 -14z"/>
<path d="M4646 661 c34 -30 149 -101 165 -101 5 0 9 5 9 10 0 6 -6 10 -13 10
-6 0 -45 25 -85 55 -79 59 -132 77 -76 26z"/>
<path d="M4788 679 c6 -7 12 -21 12 -31 0 -10 5 -18 10 -18 6 0 10 -7 10 -15
0 -8 5 -15 10 -15 24 0 -13 80 -40 88 -12 4 -13 2 -2 -9z"/>
<path d="M3811 672 c-21 -7 -53 -43 -46 -50 10 -10 187 -1 209 10 17 9 17 11
2 26 -15 15 -132 26 -165 14z"/>
<path d="M2835 660 c-3 -5 -1 -10 4 -10 6 0 11 5 11 10 0 6 -2 10 -4 10 -3 0
-8 -4 -11 -10z"/>
<path d="M4953 640 c2 -11 11 -30 20 -41 9 -10 17 -23 17 -28 0 -13 39 -45 47
-38 3 4 -1 15 -10 25 -10 10 -17 23 -17 28 0 5 -14 24 -30 42 -25 28 -30 30
-27 12z"/>
<path d="M5038 632 c23 -54 75 -144 93 -161 21 -19 23 -19 36 -3 8 9 12 11 8
5 -3 -7 0 -13 7 -14 34 -2 54 -9 66 -26 13 -16 13 -16 7 7 -16 54 -24 66 -70
108 -32 29 -54 42 -66 39 -11 -3 -19 0 -19 6 0 7 -16 22 -35 34 -29 19 -33 20
-27 5z m112 -92 c0 -5 7 -10 15 -10 18 0 19 -7 3 -24 -10 -11 -15 -8 -25 12
-16 29 -16 32 -3 32 6 0 10 -4 10 -10z m47 -52 c-3 -8 -6 -5 -6 6 -1 11 2 17
5 13 3 -3 4 -12 1 -19z"/>
<path d="M2805 630 c-3 -5 -1 -10 4 -10 6 0 11 5 11 10 0 6 -2 10 -4 10 -3 0
-8 -4 -11 -10z"/>
<path d="M4880 631 c0 -5 9 -19 21 -32 11 -13 18 -17 15 -9 -3 8 -9 23 -12 33
-7 18 -24 24 -24 8z"/>
<path d="M4720 540 c0 -5 5 -10 11 -10 5 0 7 5 4 10 -3 6 -8 10 -11 10 -2 0
-4 -4 -4 -10z"/>
<path d="M2623 520 c-11 -16 -10 -18 2 -14 8 4 15 12 15 20 0 19 -3 18 -17 -6z"/>
<path d="M4900 502 c0 -7 10 -20 21 -30 12 -9 29 -24 38 -33 21 -21 93 -69
103 -69 15 0 8 18 -9 24 -23 7 -52 26 -78 51 -51 50 -75 68 -75 57z"/>
<path d="M4210 450 c0 -5 5 -10 10 -10 6 0 10 5 10 10 0 6 -4 10 -10 10 -5 0
-10 -4 -10 -10z"/>
<path d="M5331 407 c-1 -7 34 -79 72 -151 22 -40 67 -67 53 -31 -3 8 -1 15 4
15 6 0 10 -6 10 -12 0 -13 69 -52 77 -44 6 5 -54 114 -86 155 -19 25 -31 31
-61 31 -28 0 -42 6 -53 23 -9 12 -16 18 -16 14z"/>
<path d="M4945 370 c40 -32 45 -34 45 -22 0 8 -62 52 -74 52 -5 0 8 -13 29
-30z"/>
<path d="M5210 381 c0 -12 28 -22 35 -12 3 5 -2 12 -11 15 -21 8 -24 8 -24 -3z"/>
<path d="M5268 384 c-9 -8 25 -74 38 -74 7 0 15 -7 18 -16 4 -9 9 -15 11 -12
6 5 -42 95 -54 103 -5 2 -10 2 -13 -1z"/>
<path d="M4400 335 c0 -11 120 -129 125 -123 12 12 -20 59 -59 85 -23 15 -47
31 -53 36 -7 5 -13 6 -13 2z"/>
<path d="M5130 307 c90 -81 161 -139 166 -134 4 3 -1 13 -10 22 -9 9 -16 20
-16 25 0 5 -13 11 -29 15 -16 3 -34 17 -42 31 -7 14 -26 32 -41 40 -34 18 -47
18 -28 1z"/>
<path d="M5100 183 c0 -7 20 -37 45 -67 25 -31 45 -62 45 -70 0 -35 13 -46 51
-46 21 0 39 4 39 9 0 5 -22 23 -50 40 -27 17 -50 38 -50 46 0 8 -18 34 -40 57
-22 24 -40 37 -40 31z"/>
<path d="M5545 150 c9 -31 25 -50 25 -30 0 8 -8 24 -16 35 -16 19 -16 19 -9
-5z"/>
<path d="M5360 113 c0 -8 107 -113 115 -113 14 0 2 27 -21 45 -14 11 -37 32
-51 48 -25 26 -43 35 -43 20z"/>
<path d="M5685 90 c3 -5 8 -10 11 -10 2 0 4 5 4 10 0 6 -5 10 -11 10 -5 0 -7
-4 -4 -10z"/>
<path d="M4577 72 c-13 -21 57 -72 99 -72 25 0 22 4 -29 40 -59 42 -63 44 -70
32z"/>
<path d="M5558 50 c18 -17 37 -30 44 -30 7 0 -2 14 -21 30 -44 39 -63 39 -23
0z"/>
<path d="M4520 40 c0 -5 5 -10 10 -10 6 0 10 5 10 10 0 6 -4 10 -10 10 -5 0
-10 -4 -10 -10z"/>
<path d="M5355 10 c-3 -5 1 -10 10 -10 9 0 13 5 10 10 -3 6 -8 10 -10 10 -2 0
-7 -4 -10 -10z"/>
</g>
</svg>
