<?xml version="1.0" standalone="no"?>
<!DOCTYPE svg PUBLIC "-//W3C//DTD SVG 20010904//EN"
 "http://www.w3.org/TR/2001/REC-SVG-20010904/DTD/svg10.dtd">
<svg version="1.0" xmlns="http://www.w3.org/2000/svg"
 width="1129.000000pt" height="791.000000pt" viewBox="0 0 1129.000000 791.000000"
 preserveAspectRatio="xMidYMid meet">
<metadata>
Created by potrace 1.16, written by Peter Selinger 2001-2019
</metadata>
<g transform="translate(0.000000,791.000000) scale(0.100000,-0.100000)"
fill="#000000" stroke="none">
<path d="M6894 7698 c-4 -6 -21 -37 -37 -67 -16 -31 -50 -85 -74 -120 l-45
-65 24 -18 c12 -9 25 -18 28 -18 3 0 21 23 40 51 19 28 45 63 58 77 l22 27 21
-25 c12 -14 32 -46 45 -72 25 -48 37 -56 64 -38 12 8 11 17 -12 63 -15 30 -24
58 -21 61 4 3 39 6 80 6 71 0 73 1 73 25 l0 25 -108 0 c-60 0 -111 3 -115 6
-3 3 2 21 10 40 9 19 15 35 12 37 -13 12 -59 16 -65 5z"/>
<path d="M7230 7684 c-6 -16 -34 -75 -62 -132 -44 -86 -50 -105 -38 -112 31
-20 47 -9 85 55 48 83 64 83 123 -2 39 -56 45 -61 63 -50 25 16 24 29 -6 65
-29 35 -32 54 -7 51 9 -1 47 -1 85 0 65 1 67 2 67 26 l0 25 -131 0 c-147 0
-134 -8 -113 68 5 16 2 22 -9 22 -8 0 -22 3 -31 6 -11 4 -19 -3 -26 -22z"/>
<path d="M5957 7448 c-5 -285 -17 -355 -82 -476 -33 -62 -34 -68 -18 -79 9 -7
21 -13 26 -13 12 0 83 155 97 213 7 26 16 49 20 52 4 2 24 -25 45 -60 39 -68
42 -70 64 -56 20 13 8 46 -48 131 -47 70 -50 79 -51 138 0 57 4 69 39 120 37
55 71 115 71 126 0 3 -9 10 -19 16 -17 8 -23 3 -48 -38 l-28 -47 -5 110 c-5
110 -5 110 -31 113 l-26 3 -6 -253z"/>
<path d="M6225 7690 c-3 -5 -5 -43 -4 -82 2 -48 -2 -73 -9 -76 -7 -2 -12 6
-12 17 0 37 -38 26 -55 -16 -9 -20 -27 -52 -41 -70 -21 -27 -23 -37 -14 -48
14 -17 40 -20 40 -5 0 19 26 10 54 -19 l27 -28 -28 -19 c-15 -10 -44 -27 -63
-37 -49 -27 -52 -31 -36 -53 15 -19 16 -19 55 4 47 26 49 26 47 9 -2 -22 61
-87 79 -81 25 10 17 36 -21 75 l-36 37 52 48 c61 57 103 124 98 156 -2 19 -10
24 -40 26 -33 3 -38 7 -38 28 0 22 4 24 50 24 47 0 50 2 50 25 0 23 -3 25 -49
25 -49 0 -50 1 -53 33 -2 24 -8 33 -25 35 -11 2 -24 -2 -28 -8z"/>
<path d="M3845 7633 c-61 -85 -105 -235 -105 -358 1 -126 51 -287 116 -372 18
-24 33 -33 55 -33 16 0 29 3 29 6 0 3 -16 31 -35 62 -71 116 -102 266 -85 414
14 116 38 188 94 277 14 22 26 43 26 46 0 3 -13 5 -30 5 -24 0 -36 -9 -65 -47z"/>
<path d="M4090 7620 l0 -30 183 -2 182 -3 -65 -36 c-73 -41 -222 -103 -288
-119 -38 -10 -42 -14 -36 -33 3 -12 10 -26 15 -32 12 -12 112 21 238 81 51 24
98 44 102 44 5 0 9 -31 9 -70 l0 -70 36 0 36 0 -4 62 c-2 53 0 63 14 66 10 2
86 -20 170 -48 84 -28 158 -48 166 -45 7 3 12 15 10 27 -3 20 -21 29 -138 66
-74 24 -152 49 -174 55 l-38 11 26 23 c26 22 35 23 167 23 l139 0 0 30 0 30
-375 0 -375 0 0 -30z"/>
<path d="M5334 7625 c-4 -14 -4 -28 -1 -31 3 -3 38 -7 79 -7 l73 -2 -3 -30
c-5 -52 -8 -55 -67 -55 l-55 0 0 -225 0 -225 170 0 170 0 0 225 0 225 -80 0
c-87 0 -89 2 -69 58 7 19 17 31 27 30 10 -1 52 0 95 0 l78 2 -3 28 -3 27 -202
3 -203 2 -6 -25z m311 -215 l0 -35 -115 0 c-113 0 -115 0 -118 23 -7 49 -1 52
120 49 l113 -2 0 -35z m0 -130 l0 -35 -115 0 c-113 0 -115 0 -118 23 -7 50 -1
53 120 50 l113 -3 0 -35z m3 -132 l-3 -33 -115 0 -115 0 -3 33 -3 32 121 0
121 0 -3 -32z"/>
<path d="M4970 7610 l0 -30 163 2 162 3 0 25 0 25 -162 3 -163 2 0 -30z"/>
<path d="M6402 7583 c1 -39 8 -55 35 -86 18 -20 33 -42 33 -47 0 -12 -72 -65
-117 -87 -35 -16 -38 -20 -24 -42 13 -20 51 -7 122 41 l61 42 34 -39 c19 -22
34 -43 34 -47 0 -14 27 -9 40 7 10 12 5 24 -28 68 l-41 52 34 69 c19 37 33 77
31 89 -3 21 -9 22 -109 25 l-107 3 2 -48z"/>
<path d="M5000 7360 c0 -128 0 -130 23 -130 18 -1 19 -2 6 -10 -15 -9 -14 -18
7 -107 13 -54 24 -101 24 -105 0 -4 -25 -10 -55 -13 -52 -7 -55 -9 -55 -36 0
-34 -7 -34 162 -14 193 23 202 26 206 59 l4 29 -51 -6 c-28 -3 -51 -3 -51 1 0
4 9 41 21 82 11 41 19 85 16 97 -2 13 2 24 10 27 11 5 13 31 11 128 l-3 123
-137 3 -138 3 0 -131z m220 0 l0 -71 -82 3 -83 3 -3 54 c-5 80 -4 81 88 81
l80 0 0 -70z m-21 -157 c-1 -50 -44 -188 -60 -191 -10 -2 -20 22 -37 85 -12
49 -25 98 -28 111 -6 21 -4 22 60 22 66 0 66 0 65 -27z"/>
<path d="M7358 7415 c-8 -9 -338 -35 -437 -35 -92 0 -93 0 -87 -22 3 -13 6
-26 6 -30 0 -5 59 -8 130 -8 l130 0 0 -50 0 -50 -175 0 -175 0 0 -30 0 -30
163 0 c90 0 166 -3 170 -6 11 -11 -20 -59 -62 -97 -50 -45 -93 -67 -198 -102
-46 -15 -83 -29 -83 -30 0 -2 5 -16 10 -30 9 -24 14 -26 45 -21 49 10 172 62
227 97 46 30 100 83 111 111 4 10 10 8 21 -7 46 -57 105 -107 164 -138 65 -34
191 -82 198 -74 2 1 5 18 6 37 3 32 1 34 -46 46 -77 20 -174 74 -232 129 -87
82 -82 86 99 85 83 -1 158 -1 165 0 7 0 12 13 12 30 l0 30 -175 0 -175 0 0 54
0 54 43 6 c23 3 79 8 125 12 86 7 94 13 72 55 -10 17 -40 26 -52 14z"/>
<path d="M4110 7290 l0 -30 163 -2 162 -3 0 -140 0 -140 -80 0 -80 0 -3 107
c-2 93 -5 108 -21 113 -45 14 -51 -1 -51 -116 l0 -109 -70 0 c-68 0 -70 -1
-70 -25 l0 -25 400 0 400 0 0 25 0 25 -177 2 -178 3 -3 58 -3 57 136 0 135 0
0 30 0 29 -132 3 -133 3 0 50 0 50 155 5 155 5 0 25 0 25 -352 3 -353 2 0 -30z"/>
<path d="M6338 7223 l-3 -58 -112 -3 c-113 -3 -113 -3 -113 -27 0 -24 3 -25
63 -26 34 -1 85 -2 112 -3 l50 -1 3 -117 3 -118 24 0 25 0 0 118 0 119 117 2
c64 1 118 3 119 4 1 1 4 11 6 22 3 19 -3 20 -119 23 l-123 3 0 59 c0 57 -1 60
-25 60 -22 0 -24 -4 -27 -57z"/>
<path d="M5350 6970 c-93 -59 -102 -71 -76 -98 11 -12 19 -11 47 4 48 24 169
106 169 113 -1 11 -27 41 -36 41 -5 -1 -52 -28 -104 -60z"/>
<path d="M2958 6613 c-9 -10 -19 -28 -22 -40 -9 -28 -62 -73 -87 -73 -12 0
-25 13 -36 35 -18 38 -16 38 -161 37 -75 -1 -129 -24 -210 -90 -62 -51 -99
-72 -124 -72 -14 0 -18 9 -18 41 0 22 -5 49 -10 60 -10 18 -11 18 -48 -1 -64
-35 -110 -21 -147 44 -10 17 -13 17 -33 5 -19 -12 -23 -11 -34 4 -12 16 -15
16 -49 -1 -20 -10 -49 -28 -64 -40 -15 -12 -37 -22 -49 -22 -12 0 -37 -11 -56
-25 -25 -18 -46 -25 -82 -25 -37 0 -48 -4 -48 -16 0 -9 -7 -14 -17 -12 -10 1
-24 -1 -32 -6 -7 -5 -48 -8 -90 -7 l-76 2 -55 60 c-31 33 -59 57 -63 53 -4 -4
-7 -24 -7 -44 0 -54 -28 -130 -48 -130 -34 1 -168 27 -187 38 -11 5 -29 19
-39 31 -27 30 -76 36 -136 16 -40 -13 -57 -14 -82 -6 -40 14 -71 14 -119 -1
l-39 -11 0 -2982 c0 -2980 0 -2982 20 -3008 11 -14 29 -29 40 -32 11 -4 20
-15 20 -27 0 -17 -4 -19 -27 -13 -26 6 -27 5 -9 -8 14 -10 22 -33 27 -78 8
-71 3 -84 -42 -94 l-29 -7 0 -84 0 -84 84 0 85 0 3 33 c4 45 44 45 73 0 l20
-32 588 -1 588 0 -6 58 c-5 43 -3 62 9 77 15 19 15 19 16 -13 0 -18 5 -53 11
-78 l12 -45 58 2 c50 2 59 5 59 20 0 11 -4 19 -10 19 -5 0 -10 8 -10 18 0 9
-10 35 -22 57 -39 73 -40 184 -1 199 11 4 11 1 3 -15 -8 -15 -8 -29 -1 -51 6
-17 11 -42 11 -55 0 -14 9 -38 20 -54 12 -15 33 -52 48 -81 27 -51 30 -53 72
-56 40 -2 47 0 62 25 l17 28 1 -27 c0 -23 4 -28 25 -28 31 0 31 5 1 44 -12 17
-29 48 -37 69 -7 22 -21 43 -30 48 -9 4 -22 22 -29 39 -7 16 -16 30 -21 30 -5
0 -9 6 -9 14 0 7 -7 27 -15 42 -25 49 -19 105 21 183 20 39 50 85 65 103 30
33 40 27 14 -8 -8 -10 -15 -27 -15 -37 0 -10 -11 -38 -25 -63 -37 -66 -35
-137 5 -192 17 -23 30 -44 30 -47 0 -2 14 -26 30 -52 17 -26 30 -55 30 -64 0
-9 17 -31 37 -48 21 -17 46 -37 56 -46 13 -12 47 -15 167 -15 83 0 150 4 150
8 0 14 -87 72 -107 72 -22 0 -98 53 -131 92 -13 15 -32 30 -42 33 -11 4 -20
12 -20 19 0 6 -18 30 -40 51 -22 21 -40 43 -40 49 0 5 -10 29 -21 54 -28 56
-22 118 15 164 29 37 29 36 74 100 17 25 32 51 32 56 0 5 7 16 16 23 16 13 41
48 85 117 12 17 27 32 34 32 7 0 16 6 18 13 4 7 6 6 6 -5 1 -9 -10 -25 -24
-36 -14 -11 -25 -26 -25 -34 0 -8 -9 -23 -20 -33 -11 -10 -20 -23 -20 -29 0
-6 -18 -39 -40 -74 -22 -34 -40 -65 -40 -68 0 -3 -15 -24 -34 -45 -47 -56 -53
-106 -22 -184 16 -40 34 -67 55 -80 17 -11 33 -28 36 -37 9 -26 75 -86 104
-93 26 -7 70 -41 153 -120 36 -34 55 -45 80 -45 25 0 29 3 20 12 -7 7 -12 20
-12 30 0 10 -4 18 -10 18 -5 0 -10 9 -10 21 0 11 -8 33 -18 47 -10 15 -27 45
-37 67 -20 44 -63 106 -83 118 -7 5 -18 15 -25 24 -6 8 -36 39 -65 68 -35 34
-62 73 -77 111 -26 62 -28 62 -25 2 1 -28 -3 -38 -13 -38 -8 0 -22 -16 -31
-35 -10 -20 -21 -33 -27 -30 -15 10 -10 30 16 69 14 20 25 42 25 49 0 7 -8 0
-18 -15 -19 -32 -32 -36 -32 -10 0 9 16 28 35 42 18 14 36 34 40 45 6 19 7 19
13 2 7 -18 8 -17 25 1 10 11 15 26 11 36 -3 9 -1 16 5 16 6 0 11 -4 11 -9 0
-20 34 -2 93 50 52 46 74 67 125 121 4 4 21 20 38 35 26 24 45 54 45 73 0 3 6
12 13 20 8 8 18 26 23 40 20 55 48 110 56 110 10 0 9 -21 -8 -94 -8 -35 -12
-71 -9 -79 3 -9 0 -25 -6 -37 -9 -16 -9 -25 0 -35 6 -8 10 -24 8 -37 -2 -13 4
-31 13 -41 18 -20 14 -57 -6 -57 -7 0 -15 -3 -17 -7 -2 -5 -17 -21 -34 -36
-34 -31 -69 -28 -61 4 3 11 -3 36 -13 56 -17 34 -18 35 -25 14 -10 -31 2 -88
20 -95 8 -3 15 -12 15 -20 0 -19 60 -118 83 -134 9 -7 17 -20 17 -29 0 -21 63
-123 94 -152 14 -14 26 -28 26 -33 0 -14 99 -135 124 -152 14 -8 34 -32 46
-53 39 -70 51 -73 325 -73 207 0 244 2 249 15 7 19 30 19 46 0 10 -12 39 -15
141 -15 71 0 129 2 129 5 0 3 -14 31 -30 62 -17 32 -30 66 -28 78 4 27 35 31
60 8 21 -19 68 -115 68 -139 0 -16 45 -19 54 -5 4 5 24 12 46 16 42 7 52 20
23 28 -15 4 -15 6 5 12 12 4 22 12 22 17 0 6 -6 8 -14 5 -8 -3 -24 5 -37 19
-26 28 -7 35 27 9 10 -8 24 -15 31 -15 22 0 1 30 -31 46 -64 31 -76 39 -76 51
0 6 8 13 18 15 28 6 -39 68 -73 68 -19 0 -26 -4 -22 -14 3 -7 1 -18 -5 -24 -8
-8 -8 -15 0 -25 17 -20 -4 -37 -45 -37 -38 0 -53 22 -34 52 6 10 9 23 6 27 -7
13 19 21 47 15 12 -3 3 5 -22 17 -41 21 -59 23 -190 24 -108 0 -144 3 -143 12
2 8 -14 12 -52 12 -39 -1 -55 -5 -55 -14 0 -21 -16 -26 -44 -14 -47 22 -27 52
27 42 16 -3 56 4 92 16 59 20 71 21 182 11 65 -5 137 -13 161 -16 27 -4 42 -2
42 5 0 6 -4 11 -9 11 -5 0 -11 10 -13 23 -2 14 -9 21 -21 20 -12 -1 -17 4 -13
14 6 15 -35 61 -93 102 -32 23 -36 24 -200 18 -91 -3 -181 -10 -199 -16 -20
-6 -43 -7 -57 -1 -30 11 -115 -11 -151 -39 -29 -22 -53 -27 -55 -11 -1 6 -2
16 -3 23 -1 6 -9 11 -19 11 -9 -1 -17 2 -17 7 0 5 7 9 15 9 8 0 15 4 15 9 0 5
17 11 38 14 20 3 57 12 82 20 25 9 61 18 82 22 34 5 36 8 36 42 0 26 7 42 21
54 12 10 21 20 21 23 0 8 -169 6 -200 -3 -18 -5 -25 -14 -27 -35 -1 -15 -7
-34 -14 -42 -6 -7 -9 -20 -6 -28 3 -7 0 -19 -6 -25 -17 -17 -29 -13 -18 6 6
12 5 20 -6 29 -14 10 -14 14 1 44 9 18 16 35 16 37 0 2 -21 1 -46 -3 -34 -5
-45 -4 -40 5 15 23 -6 33 -28 12 -11 -11 -33 -23 -48 -26 -18 -5 -28 -14 -28
-26 0 -15 89 -144 110 -159 4 -3 9 -10 11 -17 8 -24 104 -152 115 -153 20 0
55 -46 48 -63 -4 -11 -1 -17 7 -17 8 0 6 -5 -6 -14 -24 -18 -52 -9 -73 22 -9
14 -55 66 -102 117 -47 50 -103 121 -125 158 -22 37 -43 67 -47 67 -8 0 -81
148 -101 205 -27 76 9 302 55 354 98 109 145 139 93 57 -18 -29 -41 -77 -50
-107 -9 -30 -20 -67 -25 -84 -8 -27 -12 -71 -11 -145 1 -14 7 -38 15 -55 8
-16 20 -43 26 -60 6 -16 19 -41 29 -54 l19 -25 27 32 c15 18 35 32 46 32 17 0
24 11 20 33 -1 5 4 7 11 5 7 -3 14 -14 16 -26 2 -12 6 -22 9 -22 14 0 89 24
97 32 14 12 66 10 66 -3 0 -7 46 -10 133 -10 72 0 180 -2 239 -5 116 -7 141
-3 132 20 -4 10 -15 13 -40 9 -32 -5 -50 10 -22 19 7 3 -6 9 -29 15 -23 6 -47
7 -55 2 -8 -6 0 -9 25 -9 20 0 37 -4 37 -9 0 -17 -20 -23 -35 -11 -9 8 -31 10
-62 6 -76 -10 -103 -10 -116 3 -9 9 -6 13 11 17 42 12 22 24 -40 25 -45 1 -56
3 -38 8 14 5 39 6 56 3 18 -2 39 0 49 5 13 8 2 11 -46 16 -103 10 -168 -9
-169 -49 0 -24 -73 -34 -86 -12 -4 6 3 19 16 30 22 18 22 18 -39 18 -38 0 -61
-4 -61 -11 0 -7 -5 -8 -12 -3 -24 17 -107 -1 -89 -19 6 -6 11 -15 11 -19 0
-13 -28 -9 -33 5 -3 9 -8 9 -16 1 -7 -6 -23 -9 -37 -6 -22 4 -25 9 -20 32 3
19 1 30 -9 34 -11 4 -14 20 -11 62 2 49 6 59 29 72 34 21 34 31 2 24 -30 -5
-33 11 -4 31 12 9 16 17 10 21 -7 5 -7 15 1 34 17 38 16 38 34 16 15 -18 15
-18 9 4 -6 21 4 29 19 15 4 -5 15 -8 24 -9 65 -4 63 -3 56 -31 -4 -16 -12 -34
-18 -42 -5 -7 -10 -22 -11 -34 0 -11 -7 -23 -15 -27 -8 -4 -28 -14 -44 -21
-28 -13 -28 -14 -7 -17 12 -2 28 2 36 8 18 15 38 3 30 -17 -3 -9 2 -27 10 -40
9 -13 13 -33 10 -43 -7 -23 10 -27 19 -5 4 10 20 15 51 15 25 0 53 4 63 9 9 6
29 12 45 16 15 3 27 11 27 18 0 8 15 21 33 30 l32 18 -64 -6 c-35 -3 -81 -5
-102 -5 -29 0 -39 -4 -39 -16 0 -13 7 -15 33 -10 17 3 46 2 62 -3 32 -9 35 -8
-107 -26 l-36 -5 -7 50 c-12 86 22 190 62 190 15 0 23 6 23 18 0 9 9 31 20 47
11 17 20 40 20 53 0 12 5 22 11 22 5 0 15 13 20 29 7 19 25 36 56 52 25 13 49
34 54 47 7 18 15 23 37 20 30 -3 36 -21 8 -26 -25 -5 -56 -34 -56 -52 0 -8 -9
-21 -20 -28 -12 -7 -20 -23 -20 -40 0 -15 -9 -42 -20 -60 -11 -18 -20 -44 -20
-57 0 -14 -4 -26 -10 -26 -5 -1 -14 -2 -20 -3 -16 -2 -32 -24 -28 -36 3 -9 8
-8 20 4 12 12 18 13 21 3 4 -9 6 -9 6 1 1 7 13 24 27 39 l25 25 6 -22 c5 -20
11 -22 58 -18 43 4 52 2 47 -10 -4 -12 -1 -12 19 -2 36 18 79 72 79 98 0 12 4
22 9 22 11 0 41 57 41 79 1 22 68 71 97 71 26 0 30 -12 8 -30 -8 -7 -15 -21
-15 -31 0 -10 -4 -20 -9 -23 -5 -3 -26 -41 -47 -83 -21 -43 -40 -81 -42 -85
-2 -5 20 -7 50 -6 42 2 66 -4 113 -28 46 -23 68 -29 95 -24 30 5 32 6 15 14
-11 5 -31 8 -45 8 -14 -1 -19 1 -12 4 24 11 12 27 -16 21 -15 -3 -34 -2 -42 4
-11 6 -6 9 20 10 46 3 49 2 90 -10 l35 -10 -32 28 c-18 15 -33 31 -33 34 0 17
39 4 68 -23 18 -16 37 -30 41 -30 15 0 43 -39 36 -49 -3 -6 1 -11 10 -11 8 0
23 -4 33 -9 9 -5 30 -15 47 -22 16 -8 54 -39 85 -70 l55 -56 60 2 c33 2 64 3
69 4 4 1 -23 29 -60 63 -38 35 -91 86 -119 113 -73 73 -134 120 -184 139 -33
13 -46 14 -51 5 -8 -12 -30 -4 -30 11 0 4 12 22 27 39 20 23 36 31 60 31 39 0
44 -17 8 -26 -34 -8 -32 -16 12 -39 20 -11 61 -39 92 -62 47 -37 71 -51 71
-40 0 2 -18 22 -40 46 -63 68 -46 105 30 66 33 -17 38 -32 15 -41 -12 -5 -12
-10 3 -32 9 -15 19 -29 22 -32 4 -3 12 -20 19 -38 13 -31 53 -73 206 -215 38
-36 67 -69 63 -73 -4 -4 -14 -1 -23 6 -45 37 -13 -30 58 -122 26 -34 33 -38
76 -38 26 0 52 -5 59 -12 9 -9 12 -8 12 5 0 9 -20 36 -45 59 -56 53 -57 66 -4
36 56 -31 119 -107 168 -202 66 -125 74 -134 122 -131 34 2 47 -3 66 -23 l23
-25 -17 48 c-11 27 -37 66 -62 91 -46 46 -50 65 -9 42 29 -17 94 -85 111 -118
7 -14 18 -34 24 -45 6 -11 30 -60 54 -108 31 -62 52 -93 72 -103 15 -8 32 -12
37 -9 17 10 59 -26 65 -56 7 -31 25 -50 25 -25 0 8 -4 18 -10 21 -5 3 -10 15
-10 27 0 25 -52 125 -89 169 -20 24 -37 34 -58 34 -39 1 -63 21 -63 51 l0 24
53 -27 c75 -38 125 -94 187 -208 42 -78 52 -88 45 -45 -5 29 -4 32 5 17 6 -10
23 -22 36 -28 14 -5 23 -13 20 -18 -3 -5 1 -14 9 -21 8 -7 15 -18 15 -24 0 -7
-3 -7 -8 -1 -4 6 -16 12 -27 13 -11 2 -26 9 -32 14 -10 8 -13 5 -13 -10 0 -31
11 -52 26 -52 8 0 14 -4 14 -8 0 -5 18 -14 40 -21 22 -6 40 -16 40 -21 0 -6 7
-10 15 -10 8 0 15 3 15 6 0 13 -63 124 -70 124 -4 0 -13 13 -20 30 -7 16 -16
30 -21 30 -5 0 -9 5 -9 10 0 15 26 12 40 -4 6 -8 17 -13 24 -10 6 2 23 -7 36
-21 19 -20 20 -25 7 -25 -9 0 -21 8 -26 17 -6 10 -11 13 -11 7 0 -6 9 -19 20
-29 12 -11 35 -45 52 -77 30 -56 50 -71 62 -45 5 9 7 9 12 -1 9 -20 45 -14 51
8 7 27 52 27 86 0 25 -20 40 -20 741 -20 445 0 716 4 716 9 0 6 -23 37 -50 70
-28 33 -50 66 -49 73 1 21 49 109 109 199 30 45 60 101 65 123 8 31 15 42 33
44 12 2 22 -1 22 -7 0 -6 -4 -11 -10 -11 -5 0 -10 -7 -10 -16 0 -8 5 -12 10
-9 6 3 10 -1 10 -10 0 -8 11 -20 23 -24 33 -13 51 -61 44 -119 -8 -56 1 -71
63 -102 25 -12 66 -44 92 -71 26 -26 58 -51 70 -54 13 -4 32 -15 43 -25 11 -9
41 -26 67 -36 27 -10 48 -22 48 -26 0 -5 29 -8 65 -8 36 0 65 1 65 3 0 10 -65
189 -80 222 -10 22 -21 47 -24 56 -2 10 -20 19 -43 23 -21 4 -51 9 -66 12 -20
4 -27 2 -25 -8 2 -7 -7 -14 -22 -16 -17 -1 -37 9 -66 36 -32 30 -49 59 -78
138 -21 54 -44 113 -51 129 -32 67 -36 87 -24 122 7 22 7 38 1 46 -14 18 -20
77 -8 77 15 0 58 -69 51 -80 -6 -9 33 -30 54 -30 5 0 -5 39 -22 88 -16 48 -33
103 -38 122 -4 19 -17 62 -29 95 -27 76 -21 119 20 140 16 8 36 15 44 15 14 0
96 35 176 75 39 20 160 52 215 58 64 7 157 42 194 73 57 48 399 219 576 288
66 26 138 56 160 65 91 41 113 51 186 79 82 33 126 56 204 106 163 106 427
210 647 256 44 9 194 92 247 136 20 18 45 48 56 67 19 35 19 37 0 56 -10 12
-28 21 -40 21 -12 0 -34 13 -48 30 -15 16 -34 30 -42 30 -8 0 -15 6 -15 14 0
8 -7 16 -15 20 -8 3 -15 12 -15 21 0 8 -4 15 -10 15 -6 0 -10 29 -10 66 0 38
-6 77 -14 92 -8 15 -22 45 -31 66 -10 22 -26 49 -36 60 -10 11 -22 29 -25 40
-3 12 -15 30 -25 42 -11 12 -20 37 -21 57 -1 22 -9 44 -20 53 -10 10 -18 22
-18 28 0 10 -28 67 -74 151 -9 17 -16 37 -16 45 0 8 -7 24 -15 34 -8 11 -15
27 -15 37 0 9 -7 22 -15 29 -9 7 -13 21 -10 30 3 11 -1 20 -10 24 -9 3 -15 18
-15 41 0 26 -8 43 -30 65 -16 16 -30 36 -30 43 0 8 -7 20 -15 27 -8 6 -21 36
-30 66 -8 30 -19 54 -23 54 -10 0 -36 70 -28 77 7 8 -32 83 -44 83 -5 0 -12
16 -16 35 -3 19 -14 45 -23 58 -10 12 -23 48 -29 80 -6 32 -18 65 -27 73 -8 9
-15 18 -15 22 0 4 -18 27 -40 52 -24 27 -46 66 -55 99 -11 35 -22 55 -35 58
-19 5 -24 19 -36 106 -3 26 -10 50 -15 52 -4 3 -6 12 -3 19 3 7 -2 16 -10 19
-9 4 -16 13 -16 22 0 8 -5 15 -10 15 -6 0 -14 10 -19 23 -5 12 -17 43 -27 68
-11 29 -31 55 -51 69 -25 17 -33 30 -33 52 0 40 -20 118 -31 118 -5 0 -9 18
-9 40 0 22 -4 40 -10 40 -5 0 -12 11 -16 25 -3 13 -12 29 -20 36 -8 6 -14 24
-14 40 0 38 33 59 104 66 56 6 71 16 39 26 -112 37 -193 84 -193 112 0 15 13
20 73 31 27 4 37 11 37 25 0 21 -17 26 -105 33 -101 8 -116 23 -70 66 14 13
25 19 25 13 0 -8 13 -8 42 -1 23 5 43 10 44 11 1 1 5 19 9 40 10 49 -15 51
-38 2 -20 -42 -34 -49 -70 -36 -34 13 -39 61 -7 61 13 0 24 10 30 25 5 14 15
25 21 25 26 0 -2 12 -57 25 -33 7 -79 13 -104 13 -73 0 -202 11 -240 22 -124
34 -130 34 -259 22 -170 -16 -327 -56 -711 -184 -124 -42 -283 -94 -353 -117
-71 -23 -155 -54 -187 -70 -32 -16 -69 -32 -82 -36 -12 -5 -37 -19 -54 -32
-35 -26 -34 -14 -4 -133 5 -19 16 -52 25 -72 14 -35 14 -37 -2 -32 -17 5 -17
5 0 -9 10 -8 13 -17 8 -18 -7 -3 -6 -25 2 -65 11 -50 20 -69 51 -98 34 -32 36
-36 17 -36 -24 0 -29 -28 -6 -36 17 -7 39 -50 54 -106 9 -37 9 -38 -15 -32
-14 4 -24 2 -24 -5 0 -6 7 -11 15 -11 8 0 15 -6 15 -13 0 -8 9 -22 20 -32 26
-24 25 -37 -2 -33 -23 3 -24 2 -20 -55 2 -22 5 -23 56 -19 29 2 56 0 59 -5 4
-6 37 -8 74 -6 46 3 65 1 58 -6 -5 -5 -35 -11 -65 -13 -51 -3 -53 -4 -30 -16
22 -11 18 -12 -31 -7 -32 4 -66 1 -80 -5 -24 -11 -24 -14 -18 -80 3 -38 11
-75 17 -82 5 -7 13 -35 17 -63 8 -60 28 -123 60 -190 13 -27 46 -98 73 -156
46 -98 86 -149 116 -149 19 0 80 111 105 191 15 48 14 181 -3 307 -12 90 -18
110 -50 158 -20 30 -51 64 -69 75 -24 16 -26 20 -10 16 15 -3 20 -1 17 8 -5
13 -48 25 -90 25 -18 0 -24 6 -24 21 0 16 4 19 18 14 9 -4 34 -9 55 -12 23 -4
34 -9 26 -13 -8 -5 -4 -10 12 -15 30 -9 89 -53 89 -66 0 -6 -10 -3 -22 5 -34
24 -47 18 -18 -7 78 -67 114 -177 113 -342 -2 -197 -51 -313 -192 -453 -103
-102 -247 -171 -361 -172 -61 0 -166 30 -226 65 -67 39 -165 141 -188 195 -10
25 -24 60 -32 78 -16 38 -19 158 -4 167 6 3 10 15 10 25 0 19 55 119 72 131 4
3 18 19 31 36 23 31 157 153 169 153 3 0 44 23 90 52 45 28 107 62 137 75 29
13 51 26 48 29 -8 8 -94 -25 -139 -53 -21 -13 -41 -23 -45 -23 -5 0 -26 -12
-46 -26 -21 -14 -41 -24 -43 -21 -3 3 22 22 55 43 33 22 60 44 60 51 1 16 -22
29 -27 15 -5 -17 -32 -15 -38 3 -8 19 -18 19 -61 -2 -28 -13 -39 -14 -54 -5
-15 9 -19 8 -24 -8 -6 -18 -65 -59 -65 -45 0 3 -18 -14 -40 -36 -22 -23 -40
-46 -40 -51 0 -5 -15 -23 -34 -41 -19 -18 -39 -42 -45 -54 -7 -13 -18 -23 -26
-23 -25 0 -65 -23 -65 -37 0 -20 28 -16 42 7 17 27 26 25 20 -5 -3 -19 -11
-25 -31 -25 -36 -1 -75 -35 -68 -60 3 -12 0 -20 -7 -20 -8 0 -16 -27 -22 -70
-5 -38 -6 -70 -2 -70 4 0 8 -7 8 -15 0 -20 17 -19 28 1 7 12 11 13 17 5 8 -14
-27 -51 -49 -51 -15 0 -32 -18 -24 -25 6 -7 91 35 102 51 13 18 46 9 46 -12 0
-8 -10 -14 -25 -14 -15 0 -40 -7 -56 -16 -17 -8 -60 -17 -97 -20 -58 -3 -64
-2 -47 10 16 12 17 16 6 29 -7 9 -10 21 -6 27 8 13 -13 80 -26 80 -5 0 -9 9
-9 19 0 11 -4 23 -10 26 -5 3 -10 21 -10 40 0 19 -4 37 -10 40 -12 7 -14 45
-2 45 5 0 17 -7 28 -15 25 -19 44 -19 44 0 0 9 -9 15 -23 15 -13 0 -27 4 -32
9 -6 5 -26 11 -46 15 -27 5 -40 2 -49 -10 -12 -13 -11 -17 1 -25 8 -5 24 -9
37 -9 23 0 22 -1 -8 -27 -26 -21 -35 -24 -50 -15 -14 9 -22 6 -40 -13 -25 -27
-52 -36 -71 -24 -7 4 -21 3 -32 -2 -14 -8 -23 -7 -36 5 -21 19 -111 12 -111
-9 0 -7 -6 -18 -14 -24 -17 -14 -32 3 -28 30 2 12 -5 16 -28 15 -17 -1 -30 -6
-30 -13 0 -7 -6 -13 -13 -13 -7 0 -21 -9 -30 -21 -14 -16 -21 -18 -32 -9 -14
12 -10 40 6 40 5 0 9 5 9 10 0 6 -11 8 -27 4 -29 -7 -45 -23 -37 -36 3 -4 -33
-7 -78 -7 -46 0 -127 0 -180 0 -88 0 -97 -2 -103 -21 -4 -12 -15 -20 -29 -20
-12 0 -27 -5 -34 -12 -7 -7 -12 -8 -12 -3 0 4 -13 -10 -29 -33 -41 -56 -47
-57 -81 -22 -17 17 -35 28 -40 25 -6 -4 -10 13 -9 42 l1 48 10 -35 11 -35 9
30 c4 17 6 38 4 48 -4 16 23 30 59 32 6 0 11 13 13 29 3 25 7 28 33 24 25 -4
29 -1 29 18 0 18 -7 23 -40 29 -21 4 -44 4 -49 1 -5 -3 -7 2 -4 12 2 10 19 24
36 30 26 10 29 14 17 22 -13 9 -13 10 0 11 8 1 18 1 21 1 3 -1 12 10 19 23 15
28 30 33 30 10 0 -8 4 -15 8 -15 15 0 30 22 25 36 -3 9 0 12 9 9 8 -3 39 1 69
9 29 8 46 15 37 15 -9 1 -20 6 -24 13 -5 7 0 9 14 6 15 -4 29 2 44 18 13 13
28 24 35 24 15 0 25 32 17 54 -4 11 -12 15 -23 11 -9 -4 -22 -9 -28 -12 -9 -4
-12 7 -11 36 1 23 5 41 10 41 4 0 8 -7 8 -15 0 -8 5 -15 10 -15 15 0 12 11 -7
32 -16 18 -16 19 5 25 16 4 21 11 17 23 -9 27 20 45 50 32 15 -7 26 -8 30 -2
4 6 15 10 27 10 20 0 20 -1 3 -26 -18 -28 -15 -40 10 -31 8 4 15 16 15 27 0
11 6 20 13 20 8 0 14 6 15 13 7 68 6 90 -4 94 -7 2 -15 20 -18 39 -4 19 -11
34 -15 34 -5 0 -6 11 -4 24 4 18 -2 32 -21 50 l-27 24 36 71 c20 39 34 77 32
84 -4 7 -6 6 -6 -4 -1 -10 -9 -16 -18 -15 -13 1 -18 -6 -18 -23 0 -13 -6 -26
-12 -28 -19 -7 -16 12 11 65 17 34 24 66 25 117 1 49 6 72 16 78 17 9 21 67 5
67 -5 0 -10 -6 -10 -14 0 -8 -6 -21 -12 -28 -7 -7 -14 -20 -15 -28 0 -8 -12
-44 -25 -80 -14 -36 -23 -71 -20 -78 2 -7 -5 -12 -17 -12 -15 0 -21 -6 -21
-21 0 -11 -4 -17 -10 -14 -12 8 -13 45 -1 45 5 0 12 12 16 28 3 15 12 41 19
57 22 52 36 101 36 126 0 17 -3 20 -9 11 -6 -11 -10 -8 -14 10 -9 34 2 68 19
61 8 -3 14 0 14 7 0 13 -39 67 -41 56 -1 -3 -3 -18 -4 -33 -2 -16 -9 -52 -16
-82 -8 -38 -9 -62 -2 -80 5 -15 6 -33 2 -41 -4 -8 -15 -34 -24 -57 -10 -23
-21 -40 -26 -38 -4 3 -9 -12 -11 -32 -2 -21 -7 -36 -13 -33 -5 3 -8 10 -6 15
2 6 5 21 7 35 3 32 20 76 32 84 5 3 7 17 4 31 -4 26 -5 25 -22 -12 -18 -41
-50 -75 -50 -53 0 6 7 28 16 48 29 66 38 87 42 95 2 4 -2 7 -8 7 -6 0 -17 -14
-24 -31 -8 -18 -16 -27 -20 -21 -4 6 2 30 14 54 11 24 24 67 30 97 12 66 12
71 1 71 -10 0 -27 -42 -35 -86 -11 -69 -93 -211 -157 -275 -28 -28 -23 -5 9
43 15 22 32 48 37 57 6 9 22 32 37 51 14 20 29 52 33 73 4 20 11 34 16 31 5
-3 9 15 9 39 0 25 7 64 15 87 8 23 15 51 15 62 0 34 -18 10 -25 -34 -4 -23
-18 -61 -31 -85 -14 -24 -20 -43 -15 -43 6 0 15 8 20 18 14 23 14 -1 0 -35
-29 -70 -43 -98 -56 -111 -11 -11 -13 -9 -13 16 0 16 7 35 15 42 8 7 15 22 15
34 -1 20 -2 19 -25 -6 -25 -29 -55 -37 -55 -16 0 7 11 22 23 33 27 22 51 64
44 72 -3 3 -12 -4 -19 -16 -13 -21 -38 -29 -38 -11 0 5 14 23 31 41 20 20 31
43 34 67 1 21 6 55 9 77 l7 40 -25 -50 c-13 -27 -27 -57 -30 -65 -3 -8 -17
-33 -30 -55 -14 -22 -39 -67 -57 -100 -17 -33 -38 -67 -45 -76 -8 -8 -14 -25
-14 -37 0 -11 -5 -24 -11 -27 -5 -4 -14 -18 -19 -31 -13 -33 -32 -31 -24 2 4
14 18 48 31 76 23 49 25 78 3 78 -5 0 -10 -7 -10 -15 0 -8 -7 -15 -15 -15 -8
0 -15 -8 -15 -17 0 -9 -3 -13 -7 -10 -3 4 -12 2 -19 -4 -11 -9 -15 -7 -20 5
-6 14 -11 12 -35 -16 -15 -18 -28 -41 -29 -50 0 -10 -4 -18 -9 -18 -15 0 0 42
35 97 18 29 47 82 64 118 17 37 37 65 45 65 8 0 15 4 15 9 0 6 -18 9 -40 9
-32 0 -40 -4 -40 -18 0 -22 -48 -62 -63 -53 -6 4 -8 -3 -3 -20 5 -21 3 -25 -9
-21 -17 7 -21 54 -5 54 6 0 10 10 10 23 0 13 6 29 13 36 10 11 7 12 -15 7 -29
-7 -38 9 -19 29 5 6 16 35 26 65 10 30 23 62 29 70 21 29 37 62 32 67 -6 6
-36 -21 -36 -32 0 -4 -13 -26 -28 -49 -15 -22 -33 -59 -40 -81 -6 -22 -18 -49
-26 -60 -15 -19 -15 -19 -16 6 0 14 3 29 7 33 26 26 36 146 13 146 -5 0 -6 9
-3 21 5 19 4 20 -14 9 -10 -7 -27 -26 -37 -44 -12 -20 -20 -26 -24 -17 -2 7 1
17 8 21 7 4 10 12 6 18 -3 6 5 24 19 40 30 35 35 64 7 39 -21 -19 -32 -22 -32
-7 0 6 7 10 15 10 8 0 15 6 15 13 0 6 6 24 14 38 12 24 12 27 -2 25 -9 -2 -18
-8 -20 -14 -2 -7 -7 -12 -12 -12 -4 0 -3 16 2 35 6 19 14 32 19 30 15 -10 18
27 4 48 -10 15 -11 24 -4 33 6 8 9 19 7 26 -8 22 -36 -35 -39 -77 -1 -22 -7
-49 -13 -60 -6 -11 -9 -25 -8 -32 2 -7 -12 -40 -29 -74 -19 -35 -34 -82 -37
-111 -3 -35 -7 -46 -13 -35 -13 22 -20 87 -9 87 9 0 40 56 40 72 0 6 9 21 20
36 16 20 18 27 8 34 -20 12 -25 10 -32 -18 -4 -14 -11 -31 -17 -37 -5 -7 -16
-21 -24 -32 -7 -11 -16 -17 -20 -13 -7 7 15 49 32 61 6 4 14 21 18 38 6 26 11
30 31 26 14 -2 25 1 28 9 3 8 1 14 -4 14 -23 0 4 93 33 111 5 4 6 12 2 18 -5
9 -10 9 -21 0 -8 -6 -17 -10 -20 -7 -8 8 46 39 56 33 6 -3 10 2 10 13 0 14
-12 21 -51 30 -67 16 -82 15 -76 -2 6 -16 -19 -30 -28 -16 -4 6 -18 10 -33 11
-24 0 -22 3 18 21 25 12 53 20 63 19 9 -1 17 1 16 6 -4 22 4 34 32 48 37 20
33 27 -9 19 -18 -4 -32 -13 -32 -20 0 -8 -10 -14 -24 -14 -14 0 -28 -4 -31
-10 -3 -5 -17 -10 -31 -10 -13 0 -24 -5 -24 -11 0 -5 -4 -7 -10 -4 -5 3 -10 2
-10 -3 0 -6 -17 -8 -39 -5 -23 3 -41 1 -45 -6 -4 -6 -18 -11 -31 -11 -13 0
-25 -5 -27 -11 -2 -7 -28 -13 -57 -14 -41 -2 -51 0 -47 11 7 17 -5 18 -38 3
-14 -7 -23 -16 -20 -20 3 -5 -2 -6 -10 -3 -9 3 -16 10 -16 14 0 5 -3 15 -6 24
-4 10 8 24 35 42 41 27 49 44 14 29 -31 -14 -41 -13 -47 1 -3 8 -12 14 -20 14
-9 0 -19 13 -23 30 -6 22 -12 27 -22 21 -12 -8 -12 -14 3 -44 9 -20 25 -37 36
-39 28 -4 10 -27 -26 -32 -16 -2 -34 -5 -39 -7 -6 -2 -11 1 -13 6 -1 6 6 11
18 13 25 4 25 14 1 36 -19 17 -20 17 -32 -5 -10 -20 -13 -21 -18 -7 -5 15 -9
15 -36 4 -16 -8 -39 -17 -50 -21 -11 -3 -15 -9 -10 -13 6 -4 11 -15 13 -24 3
-21 -23 -25 -32 -5 -3 6 -3 2 0 -10 4 -18 1 -23 -13 -23 -10 0 -27 -11 -37
-25 -10 -14 -24 -25 -31 -25 -6 0 -18 -11 -25 -25 -9 -16 -19 -24 -29 -20 -16
6 -71 -41 -71 -62 0 -7 -3 -13 -7 -13 -5 0 -32 -23 -60 -50 -29 -27 -53 -44
-53 -36 0 7 9 21 20 31 11 10 20 26 20 35 0 17 27 46 39 44 14 -3 31 9 31 22
0 8 3 14 8 14 4 0 24 17 44 38 60 60 68 70 68 81 0 6 10 16 23 22 39 20 66 50
60 67 -4 10 -2 13 5 8 6 -4 19 -2 29 3 10 5 31 12 46 16 35 7 79 50 75 72 -4
22 -27 28 -33 9 -3 -9 -7 -23 -10 -32 -4 -13 -8 -14 -21 -4 -10 9 -12 16 -4
24 18 18 10 27 -23 23 -44 -5 -57 -14 -57 -38 0 -24 -8 -24 -27 -1 -11 12 -13
13 -10 2 4 -12 -4 -14 -37 -12 -39 3 -42 2 -55 -32 -15 -38 -33 -41 -24 -3 7
27 42 67 60 67 7 0 13 5 13 11 0 6 11 20 25 31 37 29 20 43 -21 18 -20 -11
-40 -20 -45 -20 -14 0 -89 -81 -89 -97 0 -24 -18 -14 -23 13 -3 20 2 33 20 50
14 13 22 28 18 35 -6 8 -10 7 -17 -5 -5 -9 -16 -16 -24 -16 -21 0 -86 -67 -71
-74 7 -2 -1 -5 -16 -5 -36 -1 -65 -27 -48 -44 8 -8 11 -8 11 1 0 7 6 12 13 12
6 -1 1 -9 -12 -20 -27 -23 -45 -17 -35 12 4 14 2 19 -7 16 -8 -3 -23 -32 -34
-65 -11 -33 -26 -67 -33 -76 -8 -9 -12 -26 -10 -39 4 -22 5 -22 12 -3 38 96
67 137 81 115 4 -6 -1 -20 -11 -31 -22 -25 -10 -24 27 2 16 11 33 17 39 14 5
-3 10 1 10 9 0 8 9 20 20 26 18 10 24 7 21 -12 0 -4 7 -5 17 -1 9 3 -2 -14
-25 -38 -22 -24 -43 -53 -45 -63 -4 -22 -28 -34 -28 -14 0 8 -11 13 -31 12
-22 -1 -45 -14 -80 -47 -27 -26 -58 -51 -68 -57 -16 -8 -18 -7 -14 10 3 11 15
30 27 43 12 12 22 36 24 52 2 27 1 28 -12 9 -8 -10 -18 -15 -22 -11 -9 8 57
147 84 179 12 15 12 16 -7 11 -12 -3 -21 -12 -21 -19 0 -8 -9 -14 -20 -14 -11
0 -20 -4 -20 -10 0 -5 -6 -10 -14 -10 -7 0 -21 -11 -30 -24 -8 -14 -24 -27
-35 -31 -12 -4 -18 -12 -14 -21 3 -9 -2 -14 -16 -14 -12 0 -21 -6 -21 -14 0
-23 -26 -38 -39 -23 -12 15 12 42 61 67 15 7 46 35 68 62 23 26 47 48 54 48 7
0 31 16 54 35 22 20 56 42 75 50 44 18 55 52 21 67 -20 9 -28 8 -45 -7 -11
-11 -32 -21 -47 -23 -15 -2 -57 -23 -93 -48 -36 -24 -72 -44 -80 -44 -8 0 -20
-5 -27 -12 -9 -9 -13 -7 -18 5 -5 13 -10 14 -25 6 -11 -5 -17 -14 -14 -19 3
-5 -3 -18 -14 -29 -16 -16 -17 -21 -5 -25 7 -3 11 -12 8 -21 -8 -21 -25 -19
-31 4 -3 12 -11 17 -19 14 -8 -3 -14 1 -14 11 0 21 64 86 85 86 8 0 15 5 15
10 0 15 -49 1 -91 -25 -20 -13 -51 -28 -70 -33 -54 -17 -108 -38 -115 -45 -4
-4 -19 -7 -33 -7 -24 0 -68 -19 -46 -20 6 0 -6 -10 -25 -22 -19 -12 -47 -32
-63 -45 -16 -13 -34 -20 -44 -16 -11 4 -14 3 -9 -5 5 -8 -4 -12 -28 -12 -19 0
-36 -6 -39 -12 -2 -7 -8 -1 -12 15 -10 37 -26 35 -18 -3 4 -23 2 -30 -11 -30
-14 0 -21 11 -17 33 3 17 -17 5 -29 -18 -8 -14 -24 -28 -37 -31 -13 -4 -23
-11 -23 -16 0 -15 -43 -47 -62 -48 -20 0 -25 34 -7 45 6 4 8 14 5 22 -4 9 -2
21 4 28 8 9 8 15 0 20 -6 4 -15 -7 -21 -24 -6 -17 -15 -28 -20 -25 -5 3 -12
-2 -15 -10 -9 -24 -21 -19 -38 15 -17 34 -12 54 10 45 7 -3 16 -1 19 4 4 6 15
10 27 10 11 0 31 9 45 20 14 11 35 20 47 20 22 1 112 30 133 43 6 4 40 16 75
28 34 11 74 30 88 44 14 13 54 38 90 55 36 17 82 41 104 51 21 11 48 18 60 16
16 -3 10 -9 -31 -28 -29 -13 -53 -27 -53 -31 0 -14 47 -8 60 7 7 8 23 15 36
15 13 0 28 9 34 19 13 26 13 31 -5 31 -25 0 -17 14 21 38 20 13 32 27 28 31
-16 14 -73 30 -135 37 -49 5 -62 11 -69 28 -5 11 -27 41 -50 66 -39 43 -41 47
-35 93 6 51 -8 63 -37 30z m-967 -257 c180 -32 346 -138 408 -258 8 -16 18
-28 23 -28 5 0 6 -5 3 -11 -5 -7 -12 -6 -23 4 -25 21 -58 26 -97 16 -49 -14
-118 16 -110 49 3 12 1 22 -4 22 -6 0 -8 7 -5 15 8 19 -13 45 -35 45 -9 0 -23
5 -31 10 -13 9 -13 11 0 20 13 8 12 10 -3 10 -9 0 -40 12 -68 26 -36 19 -47
30 -40 37 17 17 -62 37 -146 37 -42 0 -73 4 -73 10 0 14 111 12 201 -4z m1963
-508 c-9 -18 -37 -53 -60 -77 -48 -49 -61 -76 -45 -95 8 -9 0 -23 -34 -54 -47
-44 -63 -82 -25 -62 11 6 20 15 20 19 0 5 7 11 15 15 13 5 14 2 1 -22 -8 -15
-24 -37 -35 -49 -12 -12 -21 -26 -21 -30 0 -18 -43 -45 -66 -40 -15 3 -24 0
-24 -9 0 -17 -40 -44 -65 -44 -18 1 -17 3 9 24 16 13 26 28 22 34 -3 6 4 18
16 27 21 14 24 14 35 -1 11 -15 15 -14 42 7 31 25 39 45 20 51 -9 3 -9 10 0
26 9 18 9 22 -2 22 -8 0 -20 -7 -27 -15 -7 -8 -19 -15 -26 -15 -8 0 -14 -7
-14 -15 0 -8 -6 -15 -14 -15 -8 0 -28 -16 -44 -35 -17 -19 -34 -30 -37 -25 -6
10 2 21 57 77 34 33 32 56 -2 35 -34 -21 -22 3 23 45 23 22 59 59 81 81 38 42
65 56 49 27 -5 -8 -35 -42 -68 -75 -43 -45 -55 -64 -47 -72 8 -8 15 -8 27 2 8
7 15 9 15 4 0 -5 9 9 21 31 11 22 31 50 44 61 13 12 30 35 39 52 8 16 29 41
46 55 16 14 30 29 30 33 0 7 53 60 58 58 2 -1 -4 -17 -14 -36z m2556 -2130
c34 -22 108 -84 164 -137 123 -118 143 -132 227 -159 116 -39 266 -24 379 36
25 13 84 64 132 114 100 104 94 103 183 2 90 -103 145 -192 145 -235 0 -10 4
-20 9 -23 5 -4 12 -30 16 -59 7 -52 13 -83 59 -277 29 -121 52 -329 61 -543 6
-147 20 -237 51 -332 25 -76 31 -376 10 -481 -16 -76 -56 -175 -82 -201 -7 -7
-14 -16 -16 -20 -6 -15 -155 -133 -166 -133 -7 0 -12 -4 -12 -9 0 -13 -70 -53
-84 -47 -6 3 -1 8 12 11 12 4 22 11 22 16 0 5 11 14 24 19 31 11 55 50 31 50
-8 0 -15 9 -15 20 0 11 -4 20 -10 20 -5 0 -10 -12 -10 -27 0 -26 -10 -27 -14
-1 -1 7 -7 22 -14 33 -10 18 -12 17 -13 -15 l-1 -35 -8 34 c-5 19 -6 41 -3 48
4 11 -2 14 -28 11 -27 -2 -34 -7 -32 -23 3 -19 2 -19 -10 -2 -35 52 -35 52
-55 41 -12 -8 -24 -9 -36 -2 -12 7 -26 7 -42 -1 -25 -11 -54 -6 -54 10 0 5 -9
9 -20 9 -11 0 -20 -6 -20 -12 0 -9 -4 -8 -10 2 -5 8 -9 32 -8 53 1 29 5 37 20
37 10 0 18 5 18 10 0 6 5 10 10 10 6 0 9 -3 8 -7 -3 -9 5 -13 25 -13 9 0 8 3
-2 9 -19 12 -6 29 35 46 19 8 34 19 34 25 0 6 4 8 10 5 5 -3 15 5 21 19 6 13
20 27 30 29 10 3 22 13 25 24 12 38 48 98 67 112 27 20 7 33 -33 21 -43 -12
-48 -7 -15 17 15 10 39 30 55 44 16 15 37 33 47 41 21 15 37 39 59 86 20 44
15 55 -18 38 -46 -24 -88 -30 -88 -12 0 8 5 18 10 21 13 8 3 25 -16 25 -8 0
-14 -9 -14 -20 0 -12 -7 -20 -18 -20 -10 0 -28 -7 -40 -16 -13 -9 -32 -14 -43
-11 -15 4 -17 2 -11 -10 5 -8 7 -26 4 -39 -4 -21 -10 -24 -48 -24 -24 0 -44 5
-44 10 0 6 7 10 15 10 8 0 15 5 15 10 0 6 -4 10 -9 10 -6 0 -13 -5 -16 -10 -3
-5 -17 -10 -30 -10 -13 0 -29 -8 -34 -17 -10 -17 -10 -17 -11 -1 0 13 -7 16
-32 13 -48 -6 -68 3 -68 31 0 25 4 27 105 69 22 9 48 20 57 25 10 6 24 10 32
10 8 0 16 7 18 16 2 10 24 24 56 34 56 19 68 10 25 -18 -42 -26 -40 -42 7 -42
44 0 48 4 24 27 -14 15 -14 17 1 25 10 6 14 16 10 29 -6 17 -3 19 18 14 52
-13 111 55 87 100 -6 12 -10 31 -8 42 1 11 -2 31 -9 44 -29 60 -42 100 -57
177 -23 118 -21 140 9 152 17 7 25 17 25 34 0 36 -19 42 -45 13 -16 -17 -31
-23 -47 -20 -19 4 -36 -7 -79 -49 -30 -29 -70 -60 -89 -68 -19 -7 -38 -19 -43
-26 -4 -7 -21 -15 -37 -19 -17 -4 -30 -10 -30 -14 0 -4 -11 -13 -24 -19 -14
-6 -36 -21 -50 -33 -31 -27 -117 -39 -96 -14 7 9 19 14 27 11 8 -3 16 1 19 9
4 8 12 15 20 15 14 0 47 63 59 113 4 15 10 25 14 23 4 -3 8 5 8 17 2 20 1 21
-11 5 -7 -10 -16 -18 -20 -18 -4 0 -17 -10 -29 -23 -25 -26 -77 -51 -86 -42
-3 4 2 11 12 16 9 6 17 18 17 27 1 9 14 33 30 52 30 35 41 82 18 77 -12 -2
-15 21 -7 53 2 8 -6 19 -18 24 -15 7 -21 17 -18 27 5 16 -8 24 -58 35 -9 2
-26 -5 -38 -17 -16 -16 -23 -18 -35 -9 -7 7 -12 16 -9 20 3 4 -2 13 -10 20 -8
7 -15 19 -15 26 0 20 -38 17 -43 -3 -3 -11 -5 -7 -6 10 -1 21 -6 27 -23 27
-20 0 -48 22 -94 72 -6 7 -9 22 -6 34 2 12 -1 32 -8 44 -9 16 -9 25 -1 33 15
15 14 27 -4 27 -8 0 -15 -8 -15 -17 0 -16 -3 -15 -18 3 -9 12 -26 24 -36 28
-14 5 -16 10 -8 18 13 13 4 38 -14 38 -8 0 -14 6 -14 14 0 7 -7 20 -17 27 -9
8 -22 29 -30 47 -7 17 -19 32 -26 32 -6 0 -23 9 -36 19 -20 15 -21 19 -7 24 9
4 13 13 10 22 -4 9 -13 14 -21 11 -26 -10 -52 26 -49 67 3 36 -7 50 -18 25 -3
-9 -8 -7 -17 6 -9 15 -13 16 -20 5 -4 -7 -11 -10 -16 -5 -4 4 0 12 10 17 9 6
17 15 17 20 0 6 -5 7 -10 4 -6 -3 -19 -3 -31 0 -17 6 -19 12 -14 38 4 18 13
41 20 53 12 19 11 21 -15 21 -16 0 -27 -4 -25 -8 5 -8 -19 -19 -41 -19 -22 0
-16 16 11 28 38 18 95 15 95 -3 0 -12 3 -12 18 3 21 19 18 42 -5 42 -8 0 -11
-5 -7 -12 4 -7 3 -8 -4 -4 -19 12 -14 24 16 40 15 8 28 15 28 16 1 0 30 -19
64 -42z m-780 -478 c0 -5 -5 -10 -11 -10 -7 0 -9 -10 -5 -26 9 -36 -4 -95 -23
-101 -9 -3 -22 -7 -30 -9 -10 -3 -11 -8 -4 -15 15 -15 4 -47 -18 -54 -10 -4
-25 -13 -33 -21 -18 -18 -76 -30 -76 -16 0 5 12 12 28 16 15 3 41 17 57 31 26
22 27 25 10 25 -11 0 -36 -10 -55 -23 -19 -13 -55 -31 -80 -41 -25 -10 -53
-22 -62 -27 -10 -5 -24 -9 -32 -9 -8 0 -16 -7 -20 -15 -8 -22 -25 -18 -19 5 3
10 13 22 23 25 10 3 28 15 41 26 20 17 21 23 11 40 -13 21 -8 39 10 39 7 0 22
10 35 21 12 12 35 22 50 23 25 1 28 4 25 34 -3 23 1 32 12 32 8 0 21 6 28 14
8 7 24 17 36 20 12 4 22 12 22 17 0 5 18 9 40 9 22 0 40 -4 40 -10z m89 -159
c12 -8 12 -12 2 -25 -11 -13 -11 -16 3 -16 18 0 21 -15 5 -26 -12 -7 37 -53
57 -54 22 0 23 -28 2 -42 -18 -12 -19 -17 -9 -35 14 -27 14 -43 1 -43 -5 0
-19 -9 -30 -20 -11 -11 -29 -20 -41 -20 -12 0 -17 -4 -13 -11 4 -6 -1 -10 -12
-8 -11 2 -30 -1 -43 -5 -13 -5 -42 -3 -67 4 -44 13 -44 13 -38 49 4 20 7 43 7
51 0 8 4 21 10 28 7 9 7 16 -1 24 -20 20 -14 48 11 49 12 1 26 1 30 0 5 -1 14
12 20 29 6 16 15 30 19 30 4 0 8 6 8 14 0 8 12 19 28 24 35 13 34 13 51 3z
m136 -361 c3 -6 -1 -17 -9 -26 -9 -8 -16 -20 -16 -25 0 -5 -10 -8 -22 -6 -14
1 -23 -4 -23 -13 0 -10 -9 -14 -25 -13 -14 1 -19 -1 -12 -3 6 -3 12 -17 12
-30 0 -21 -5 -24 -36 -24 -28 0 -35 -3 -30 -15 5 -14 -16 -21 -46 -16 -5 0 -8
-6 -8 -14 0 -8 5 -15 10 -15 6 0 10 -5 10 -11 0 -7 -10 -9 -25 -5 -20 5 -25 3
-25 -13 0 -13 -6 -19 -19 -18 -10 0 -17 6 -14 13 2 6 -6 14 -19 17 -18 5 -20
9 -10 19 18 18 15 28 -8 28 -11 0 -20 6 -20 14 0 20 68 26 108 9 21 -9 32 -10
32 -3 0 6 -15 18 -32 26 l-33 15 40 -5 c48 -6 80 8 53 25 -29 16 -22 25 41 50
33 13 57 27 54 33 -4 5 3 7 15 4 12 -4 22 -2 22 3 0 12 27 11 35 -1z m1434
-196 c25 -31 28 -82 6 -90 -9 -4 -15 -19 -15 -40 0 -28 -5 -36 -27 -45 -20 -7
-30 -6 -39 3 -16 16 -26 106 -13 114 5 3 9 11 9 17 0 7 -4 6 -10 -3 -8 -13
-10 -13 -10 2 0 22 41 68 62 68 9 0 26 -12 37 -26z m-2163 -909 c4 -8 12 -15
20 -15 8 0 14 -4 14 -9 0 -5 21 -16 46 -25 25 -8 60 -28 78 -43 44 -38 126
-95 156 -109 14 -7 45 -31 70 -53 25 -23 63 -54 85 -69 22 -15 42 -30 43 -34
2 -5 10 -8 17 -8 8 0 33 -17 57 -37 24 -21 59 -49 77 -63 18 -14 38 -30 45
-36 7 -7 30 -21 52 -32 21 -11 54 -36 72 -56 18 -19 68 -59 110 -88 43 -29
106 -75 140 -102 56 -44 60 -50 44 -62 -23 -18 -39 -17 -46 1 -3 8 -1 15 4 15
6 0 10 5 10 10 0 6 -12 9 -27 8 -22 -2 -27 1 -25 15 2 9 -2 17 -8 17 -5 0 -10
-5 -10 -11 0 -19 -44 2 -85 40 -47 44 -163 131 -175 131 -4 0 -48 34 -96 76
-56 48 -88 82 -86 93 2 13 1 13 -7 2 -13 -20 -66 3 -87 39 -9 15 -32 35 -50
45 -18 10 -36 26 -39 36 -4 11 -12 19 -19 19 -23 0 -105 50 -111 68 -3 9 -30
35 -60 56 -30 22 -55 43 -55 47 0 4 -11 10 -26 13 -14 4 -51 31 -82 61 -31 30
-60 55 -64 55 -4 0 -8 5 -8 10 0 16 20 12 26 -5z m-4258 -1101 c12 -4 22 -13
22 -20 0 -16 -18 -18 -39 -5 -24 15 -41 1 -41 -35 0 -27 4 -34 19 -34 21 0 31
-9 69 -59 23 -29 25 -30 51 -16 15 7 43 13 61 13 21 -1 38 5 46 17 8 11 29 20
51 21 138 10 276 24 323 33 30 6 58 7 63 2 15 -15 -22 -116 -52 -145 -27 -25
-32 -27 -67 -17 -78 22 -134 5 -134 -41 0 -25 -21 -23 -81 7 -67 34 -167 65
-187 58 -11 -5 -13 -3 -7 6 6 10 -14 12 -96 10 l-104 -4 -10 50 c-5 28 -20 67
-32 88 -13 21 -23 47 -23 58 0 17 7 19 73 19 39 0 82 -3 95 -6z"/>
<path d="M7230 3357 c0 -11 -13 -18 -37 -22 -21 -3 -52 -10 -69 -15 -17 -6
-37 -10 -45 -10 -11 0 -15 -11 -14 -42 1 -42 2 -44 59 -73 32 -17 63 -37 70
-46 18 -24 96 -50 117 -39 23 13 38 13 19 0 -11 -7 -5 -8 19 -3 25 4 36 2 43
-10 5 -10 16 -17 23 -17 8 0 15 -4 15 -9 0 -5 8 -11 18 -15 9 -3 23 -9 30 -12
6 -3 12 -1 12 5 0 6 -7 11 -15 11 -8 0 -15 5 -15 10 0 15 10 13 84 -15 36 -14
66 -21 66 -16 0 6 -4 13 -10 16 -5 3 -10 16 -10 28 0 13 3 17 8 11 4 -6 18
-11 32 -10 l25 1 1 -185 c1 -180 11 -249 34 -235 5 3 10 24 10 45 0 21 5 42
11 45 6 4 7 19 4 36 -5 20 -3 29 6 29 10 0 10 3 1 12 -19 19 -15 68 5 68 15 0
14 2 -2 14 -18 13 -19 18 -7 61 10 38 10 54 0 84 -14 40 -32 63 -42 54 -3 -4
-6 3 -6 13 0 25 -56 69 -66 52 -4 -7 -12 -1 -21 16 -27 52 -138 136 -179 136
-8 0 -22 7 -30 15 -10 9 -34 15 -64 15 -27 0 -55 3 -64 6 -10 4 -16 1 -16 -9z"/>
<path d="M6755 4569 c-16 -5 -38 -6 -47 -3 -20 6 -71 -35 -64 -53 5 -13 -30
-43 -51 -43 -7 0 -39 -25 -70 -55 -40 -38 -63 -53 -75 -49 -13 4 -18 0 -18
-16 0 -11 -7 -31 -15 -44 -14 -21 -14 -23 10 -34 37 -17 32 -33 -7 -22 -47 14
-63 -4 -32 -35 14 -14 31 -25 39 -25 7 0 17 -9 20 -20 6 -20 7 -20 31 -1 13
10 40 22 60 26 29 5 35 10 31 26 -4 14 5 27 29 45 19 15 34 32 34 40 0 7 20
27 45 44 25 17 43 35 40 39 -2 5 13 21 34 36 22 14 42 33 45 41 3 8 13 14 21
14 9 0 23 7 32 15 9 9 23 13 34 10 11 -4 19 -2 19 4 0 6 -6 11 -14 11 -7 0
-19 7 -26 15 -7 8 -21 15 -32 15 -10 0 -21 7 -24 15 -7 17 -7 17 -49 4z"/>
<path d="M6839 4212 c-83 -70 -178 -183 -201 -240 -14 -36 -27 -114 -20 -130
3 -10 11 -7 28 9 l24 22 0 -27 c0 -18 7 -29 23 -36 17 -7 18 -9 5 -9 -23 -1
-23 -12 2 -39 11 -12 20 -25 20 -30 0 -16 -28 -34 -34 -23 -4 5 -2 12 4 16 15
9 12 25 -5 25 -8 0 -15 7 -15 15 0 8 -9 19 -20 25 -17 9 -20 8 -20 -10 0 -11
9 -37 20 -57 11 -21 20 -44 20 -51 0 -7 7 -15 15 -18 8 -4 15 -13 15 -21 0 -8
7 -13 18 -11 14 3 16 13 14 50 -2 39 0 47 17 53 12 3 26 3 33 -1 7 -4 25 -7
40 -6 21 2 26 -1 22 -13 -4 -10 0 -15 11 -15 9 0 15 6 13 12 -8 22 15 33 70
35 83 4 98 20 23 25 -35 1 -65 0 -68 -5 -2 -4 -11 0 -20 8 -11 11 -19 13 -28
5 -10 -8 -31 -9 -63 -1 -2 1 4 11 12 23 9 12 16 25 16 29 0 9 -34 7 -47 -4
-19 -14 -16 -1 4 23 10 11 26 20 36 20 24 0 97 38 97 50 0 6 7 10 16 10 10 0
14 7 13 23 -4 26 8 50 21 42 5 -3 12 -1 15 5 5 8 11 8 20 0 9 -8 15 -8 20 0 3
5 0 10 -8 10 -8 0 -18 7 -21 16 -5 13 -9 12 -28 -5 -12 -12 -25 -21 -30 -21
-4 0 -8 -6 -8 -13 0 -20 -33 -47 -58 -47 -32 0 -27 19 8 32 41 14 51 36 49
108 -1 43 -8 67 -21 82 -10 12 -16 23 -14 26 3 2 28 1 56 -3 50 -7 82 -27 92
-56 2 -7 11 -10 22 -6 12 5 15 13 11 27 -5 17 -2 20 27 20 25 0 29 -3 18 -10
-8 -5 -10 -10 -4 -10 7 0 22 8 34 18 25 20 20 42 -9 42 -10 0 -29 8 -42 19
-13 10 -30 16 -37 14 -7 -3 -20 -2 -30 2 -9 4 -42 9 -73 11 -52 3 -59 1 -100
-34z"/>
<path d="M4650 756 c0 -32 5 -38 75 -80 42 -25 80 -46 85 -46 6 0 10 -9 10
-20 0 -32 -28 -24 -103 31 -80 58 -128 65 -57 8 55 -44 155 -101 163 -93 3 3
3 12 1 19 -3 7 -1 16 5 20 14 8 14 45 1 45 -5 0 -10 6 -10 13 0 8 -11 24 -25
37 -24 22 -37 16 -14 -7 6 -6 9 -17 6 -25 -3 -7 -13 5 -23 29 -12 27 -26 43
-36 43 -10 0 -18 5 -18 10 0 6 -6 10 -14 10 -8 0 -18 9 -21 20 -10 32 -25 23
-25 -14z"/>
<path d="M3830 720 c-11 -7 2 -10 45 -11 33 0 53 -3 45 -6 -8 -3 -18 -11 -22
-16 -4 -8 -14 -7 -32 1 -19 9 -27 8 -36 -4 -7 -8 -18 -14 -24 -14 -15 0 -49
-40 -41 -48 10 -10 187 -1 208 10 14 7 16 13 7 23 -8 10 -8 19 2 34 7 12 16
21 21 21 4 0 5 5 2 10 -8 13 -155 13 -175 0z"/>
<path d="M4082 700 c-12 -16 -22 -34 -22 -40 0 -5 -15 -10 -32 -11 l-33 -1 30
-8 c17 -4 39 -11 50 -16 34 -15 187 -127 225 -164 52 -53 118 -104 180 -140
50 -29 90 -62 90 -74 0 -2 -8 -6 -17 -8 -15 -3 -9 -13 27 -50 25 -25 64 -67
88 -92 24 -25 59 -53 78 -61 18 -7 34 -19 34 -24 0 -7 69 -11 206 -11 139 0
203 3 199 10 -4 6 -16 8 -27 5 -23 -8 -58 20 -58 46 0 16 -13 36 -55 83 -5 6
-23 31 -40 55 -16 24 -40 50 -53 59 -13 8 -30 29 -39 45 -21 41 -91 116 -126
133 -15 8 -45 16 -65 18 -53 4 -84 23 -80 49 2 17 -6 26 -38 42 -23 12 -68 40
-99 64 -40 30 -60 40 -68 32 -7 -7 -6 -15 3 -26 15 -18 7 -31 -12 -19 -7 5
-23 7 -36 5 -16 -2 -35 10 -65 42 -61 66 -102 87 -168 87 -50 0 -57 -3 -77
-30z"/>
<path d="M2872 679 c7 -18 -17 -79 -31 -79 -5 0 -19 -16 -31 -35 -12 -19 -26
-33 -31 -29 -19 11 -8 46 21 71 17 14 29 28 26 31 -3 3 -13 -1 -22 -9 -9 -7
-26 -18 -38 -24 -26 -13 -33 -57 -12 -75 9 -7 16 -21 16 -31 0 -11 25 -44 55
-75 30 -30 69 -79 86 -109 17 -30 35 -57 39 -60 5 -3 14 -22 21 -43 14 -43 41
-84 87 -129 17 -18 32 -38 32 -44 0 -31 29 -39 149 -39 125 0 145 7 91 35 -16
8 -35 25 -41 38 -7 12 -26 38 -43 58 -70 80 -97 117 -121 165 -14 28 -40 68
-58 90 -18 21 -50 66 -72 99 -22 33 -44 65 -50 70 -6 6 -21 35 -34 65 -21 50
-52 98 -39 59z"/>
</g>
</svg>
