<?xml version="1.0" encoding="utf-8"?>
<!-- Generator: Adobe Illustrator 24.1.0, SVG Export Plug-In . SVG Version: 6.00 Build 0)  -->
<svg version="1.1" id="レイヤー_1" xmlns="http://www.w3.org/2000/svg" xmlns:xlink="http://www.w3.org/1999/xlink" x="0px"
	 y="0px" viewBox="0 0 602 478" style="enable-background:new 0 0 602 478;" xml:space="preserve">
<style type="text/css">
	.st0{fill:#020202;}
	.st1{fill:#DC002C;}
	.st2{fill:#FDFDFD;}
	.st3{fill:#E4002D;}
	.st4{fill:#E3002D;}
	.st5{fill:#DF002C;}
	.st6{fill:#030302;}
	.st7{fill:#FADD01;}
</style>
<g id="グループ_7142" transform="translate(-0.094 -0.094)">
	<path id="パス_3722" class="st0" d="M601.1,250.3v3.5c-1.8,1.7-4.1,2.7-6.5,3.1c-3,0.4-5.9,0.5-8.9,0.4c-11.3,0-22.6-1.3-34,0
		c-4.6,0.5-6,1.8-6.2,6.4c-0.3,8-1.3,15.9-2.3,23.7c-0.7,5.5,0.2,7.1,5.7,8c9.7,1.4,19.2,4.1,28.7,6.6c3.2,0.9,5.8,3.1,7.3,6.1
		c1.6,2.9,0.6,5.4-2.6,6.2c-2,0.5-4,0.7-6,0.7c-10.2,0-20.2-2-30.3-3.2c-5.5-0.6-8.1,1-9.7,6.2c-2.5,7.8-5.6,15.4-9.3,22.7
		c-2,4-2.1,4,1.9,6.3c9.5,5.4,19.4,10.3,29.2,15.2c3.9,1.8,6.9,4.9,8.7,8.8c1.7,3.7,0.1,6.9-3.8,8c-1.6,0.4-3.2,0.5-4.8,0.2
		c-7.2-1.5-13.5-5.1-20.2-7.9c-6.1-2.6-12-5.8-18.3-8c-3.1-1.1-5.8-0.6-8,2.1c-4,4.8-8.3,9.3-12.9,13.6c-1.3,1.2-1.1,1.8,0.2,2.8
		c5.7,4.6,10.3,10.3,13.8,16.8c2.6,4.8,6.5,8.9,7.3,14.5c0.5,3.4,1.1,6.8,0.6,10.4c-0.7,4.7-0.2,9.6-1.4,14.3
		c-4.6,17.7-14.7,30.6-32,37.5c-3.2,1.3-6.7,1.5-10,2.5h-9.8c-0.1-0.5-0.4-0.5-0.8-0.6c-7.7-1-15.1-3.6-21.8-7.6
		c-2.6-1.5-4.8-2.4-7.9-1.2c-2.7,0.9-5.6,1.4-8.4,1.6c-11.3,1.2-22.2-0.1-32.1-6.3c-11.9-7.4-18.2-18.8-22.3-31.6
		c-0.5-1.5-0.9-1.9-2.5-1.7c-14,1.4-28.1,2.4-42.3,2.5c-29.2,0.1-58.4-0.8-87.4-4.8c-1.7-0.2-2.3,0.2-2.4,1.7
		c-0.3,2.5-1,4.9-1.9,7.2c-5,14.5-13.8,25.6-28.6,30.8c-10.8,3.8-21.8,3.3-32.8,0.4c-2-0.7-4.1-0.4-5.8,0.8c-5,3.1-10.3,5.4-16,6.9
		c-3,0.8-6,1.3-9,1.9h-9.2c-0.1-0.5-0.4-0.5-0.8-0.6c-4.1-0.5-8-1.6-11.8-3.3c-17.8-7.2-37.1-34.1-29.6-62.1
		c2.9-10.8,8.7-20.6,16.8-28.3c2.8-2.7,2.9-2.6,0-5.2c-5.5-4.9-6.1-5-12.7-1.7c-12.1,6-23.9,12.6-34.7,20.7
		c-0.9,0.6-1.8,1.1-2.8,1.4c-3.5,1.3-6.6,0.7-8.4-1.5c-2.5-3.2-2.6-5.8-0.3-9.5c2.2-3.5,5.4-6,8.7-8.3c8.6-6.2,17.6-11.8,27.1-16.6
		c3.8-1.9,4.1-3.3,1.6-6.6c-5.4-7-10.3-14.5-14.5-22.3c-1.4-2.7-3.4-3.8-6.3-3.4c-3.6,0.5-7.2,1-10.8,1.5
		c-5.8,0.8-11.4,2.5-17.3,2.6c-3.4,0.1-5.2-2.2-6.4-4.9c-1.1-2.5,0.1-4.7,1.8-6.5c1.5-1.6,3.5-2.3,5.5-2.9
		c6.7-2.1,13.5-4.2,20.2-6.4c3.6-1.2,3.9-1.9,2.7-5.5c-3-9.8-5.5-19.7-7.4-29.7c-0.4-1.9-1.2-2.8-3.2-2.8c-11.1,0.1-22.3,0.8-33.3,2
		c-3.1,0.3-6.1,0.8-9.1,1.2c-4.7,0.6-7.4-2.2-9.8-5.6v-2.9c2.3-3.8,6.1-6.5,10.4-7.4c7.7-1.7,15.4-2.9,23.3-3.6
		c5.4-0.6,10.9-1,16.3-1.6c2.5-0.3,3.6-1.8,3.5-4.4c-0.5-13.2,0.6-26.5,3.1-39.5c3.4-18.4,9.8-36.2,19-52.5c2.5-3.9,3-8.7,1.3-13
		c-8.1-22.3-9.9-46.3-5.3-69.6c2.9-15.3,8.2-29.6,17.5-42.2c6.9-9.3,16-13.6,27.6-12.6c10.8,1,21.4,2.9,31.9,5.6
		c17.2,4.2,33.2,11.3,49.1,19c4.4,2.2,9.4,2.8,14.2,1.7c17.1-3.9,34.6-5.7,52.1-7.2c11.5-0.9,23-1.8,34.5-1.8
		c1.6,0.1,3.1-0.9,3.8-2.4c3-5.6,6.6-10.8,10.8-15.6c10.3-11.8,22-21.4,38.6-22.6c2.3,0,4.6,0,7,0c6.7,0.5,13.2,2.4,19.1,5.6
		c10.1,5.3,18.1,13.1,24.9,22.2c1,1.3,1.7,1.4,3,0.8c12.7-5.7,26-10.1,39.6-13c13.4-3,26.9-5.3,40.7-4.3c5.2,0.4,9.9,1.7,13.8,5.5
		c4.6,4.5,8.3,9.8,10.9,15.7c8,17.1,10.5,35.4,12,54c0,1.7,0.9,3.2,2.3,4.1c15.9,10.9,22.5,26.3,21.7,45.1
		c-0.6,14.6-6,27.7-14.4,39.6c-1.1,1.4-1.4,3.2-0.6,4.9c6.3,18.1,11.7,36.4,11.9,55.8c0,2.3,1.1,3.2,3.4,3.2
		c10.7-0.1,21.3,0.6,31.9,1.3C588,241.7,596.3,241.9,601.1,250.3z M293.6,63c-0.9,0-1.5,0-2.2,0c-14.5,0.9-28.9,1.8-43.4,3.4
		c-12.6,1.5-25.1,2.9-37.3,6.6c-4.5,1.5-9.5,1-13.6-1.4c-1.8-1-3.5-2-5.2-3c-19.6-11.4-40.2-20.3-62.8-23.3
		c-14.9-2-20.4,0.2-27.3,13.1c-12.2,22.6-14.8,46.5-7.2,71.2c1.6,5.4,1.8,5.4,6.2,2.3c0.1-0.1,0.1-0.1,0.2-0.2
		c2.5-1.8,5.8-1.9,8.4-0.3c2.6,1.9,3.7,5.1,3,8.1c-0.6,2.3-1.6,4.5-3,6.5c-3.3,5.1-6.8,10-9.8,15.2c-11.6,19.8-18.9,41.1-23.2,63.6
		c-1.8,9.3-2.6,18.9-2.4,28.4c0.1,4.5,1.3,5.8,5.8,6.2c3.2,0.3,6.3,0.4,9.5,0.7c5.1,0.5,10.3,1.1,15.2,3c3,1.2,4.1,3.5,3.7,6.7
		c-0.4,2.8-2.2,4.3-5.2,4.8c-3.7,0.4-7.5,0.5-11.2,0.2c-3.9-0.2-7.9-0.2-11.8-0.3c-2.6-0.1-3.8,1.2-3.4,3.7c1.5,9.7,4.2,19.3,8,28.3
		c0.7,1.9,2.6,3,4.5,2.7c4.6-0.3,9.2-0.6,13.8-0.9c2.6-0.1,5,0.3,6.9,2.2c2,2,1.9,4.4-0.2,6.3c-1.5,1.2-3.2,2.2-5,2.7
		c-3.3,1-6.6,1.9-9.9,3c-2,0.6-2.8,2-1.8,4c4.1,8.4,8.6,16.5,15.6,22.9c1.6,1.7,4.1,2.3,6.3,1.4c1.7-0.6,3.4-1.3,5.1-1.8
		c4-1.3,7.9-3,12.2-3.1c3.5-0.1,5.7,1.2,6.7,3.8c0.9,2.5,0,4.7-2.7,7c-2.4,2-5.4,2.9-8.1,4.3c-3.9,2-4.1,3.5-0.8,6.2
		c0.9,0.6,1.7,1.3,2.5,2c1.8,1.9,3.4,1.6,5.8,0.6c23-9.8,46.4-10.6,69.6-0.8c17,7.2,29.3,19,34,37.5c0.4,1.4,1,1.5,2.2,1.7
		c21.7,3.4,43.7,5.3,65.7,5.8c21.9,0.6,43.8-0.5,65.6-3.2c1.8-0.2,2.4-1,2.7-2.5c1.7-9.5,6.3-18.2,13.3-25
		c14.2-14.3,32-20.2,51.7-21c12.9-0.5,25.7,1.8,37.6,6.9c0.9,0.4,1.8,1.1,2.8,0.2c4.2-3.9,8.6-7.7,11.9-12.5c1.3-2,0.9-3.4-1.3-4.3
		c-2.5-1.1-4.9-2.1-6.9-4.1c-2.4-2.3-2.5-6.2-0.2-8.7c0.8-0.9,1.9-1.5,3-1.7c1.4-0.3,2.9-0.4,4.3-0.2c3.5,0.3,7.1,0.8,10.6,1.3
		c2.2,0.5,4.6-0.6,5.5-2.7c3.8-7.4,7.9-14.7,10.6-22.6c1.7-4.8,1.3-5.3-3.5-6.8c-1.7-0.5-3.5-1-5.2-1.6c-1.9-0.7-3.6-1.9-4.9-3.5
		c-2.2-3-1.2-6.6,2.3-8c1.4-0.5,2.8-0.7,4.2-0.7c3.4,0.1,6.7-0.1,10.1-0.6c1.7,0,3.1-1.3,3.4-2.9c2.1-8.8,3.1-17.8,3-26.8
		c0-2.6-1.3-3.9-4-3.7c-3.5,0.3-7.1,0.8-10.5,1.5c-4.5,0.8-9.1,1.7-13.7,0.7c-2.4-0.5-4.4-1.5-5.1-4.1c-0.6-2.4,0.1-4.9,2-6.6
		c1.7-1.7,3.9-2.8,6.3-3.2c6.3-1.4,12.6-2.6,18.8-4c5.3-1.2,6.1-2.2,5.9-7.7c-0.1-6.5-0.9-13-2.1-19.4c-1.5-7.9-3.6-15.6-6.3-23.1
		c-7.2,6.8-14.8,12.6-23.6,16.7c-17.7,8.3-34.9,8-51-3.9c-9.4-6.9-15.8-16.4-21.4-26.4c-1.4-2.4-3.1-3.7-5.9-3.8
		c-6.2-0.3-12.2-1.9-17.6-4.8c-8.4-4.2-16.2-9.2-21.4-17.4c-4-6.4-4.4-6.6-11.4-4.1c-1.3,0.5-2.5,1-3.8,1.4
		c-10.8,3.8-21.8,6.1-33.3,4.9c-19.5-2.1-33.3-11.9-40.2-30.5c-5.3-14.4-4.6-29.2-1.5-44C288.9,75.4,291.3,69.3,293.6,63z
		 M171.5,377.8c-3.2,0-6.3,0.2-9.5,0.6c-15.1,2-28.6,7.5-39.9,18c-14.7,13.7-17.7,32.3-7.8,49c6.9,11.7,16.9,18.1,31,16.6
		c7.8-0.9,14.7-4.2,21-8.6c2.6-2,6.1-2.5,9.2-1.3c4.9,1.8,10,2.7,15.2,2.9c8.1,0.3,15.6-1.5,22-6.9c13.7-11.5,18.7-39.7-0.3-56.1
		C200.6,381.8,186.6,378.1,171.5,377.8z M445,377.8c-12.8,0.1-22.7,2-32,6.5c-18.7,9-27.2,25-23,44.3c2.7,12.5,9.6,21.9,22.6,25.3
		c8.3,2.2,16.6,1.1,24.6-1.6c4-1.3,7.3-1.1,10.8,1.5c2.6,1.8,5.3,3.4,8.2,4.7c8.4,3.8,17,5.4,25.9,2.2c12.7-4.6,22.7-19.4,23.1-34
		c0.3-11.6-4.5-21.1-12.5-29C478.9,383.8,461.7,378.3,445,377.8z M302.1,103.8c0,3,0.2,6,0.8,8.9c2.7,14.7,11.6,23.9,26.2,26.6
		c7.8,1.4,15.5,0.5,23.1-1.3c4.8-1.1,9.6-2.3,13.8-4.9c4.5-2.8,4.4-8.4-0.1-11.1c-0.9-0.5-1.8-1.1-2.7-1.6
		c-11-6.6-15.5-16.2-13.7-28.9c1.8-12.8,13.8-23.4,26.7-23.5c8,0,14.6,3.3,20.8,8.1c2.5,2,4.6,1.8,6.7-0.7c1.5-1.7,1.9-4.1,1-6.2
		c-5.5-16.1-14.1-30.4-27.2-41.2c-11.3-9.2-25.7-10.6-39-0.3c-5,3.8-9.5,8.4-13.3,13.4C311.3,59.2,303.3,81.1,302.1,103.8z
		 M494.4,101.5c-7.6,0.1-15.2,1.5-22.3,4.1c-1.5,0.6-3.1,1.2-3.6,3c-1.5,5.2,1.2,11.8,5.9,14.7c9.2,5.8,15.2,13.4,14.3,25
		c-0.8,10.2-7.1,18.2-16.5,20.5c-6.5,1.8-13.5,1.4-19.8-1.1c-1.9-0.8-4-0.7-5.8,0.4c-2.1,1.3-4.3,2.6-6.4,3.9c-2,1.3-2.4,3-1.3,5.2
		c10.9,21.1,32.3,27.1,51.2,16.5c8.6-4.8,15.7-11.4,22.2-18.6c10.2-11.1,17.2-23.9,19.2-39.1c1.7-11.4-3.7-22.8-13.5-28.8
		C510.9,103,502.8,101.9,494.4,101.5z M454,123.3c0-17.6-15.6-32.9-33.6-32.6c-23.2,0.4-34.2,15.7-34.8,36
		c-0.5,18.3,15.5,34.1,34,34C438.5,160.6,453.2,143.7,454,123.3z M505.8,84.5c-0.5-7.1-1.5-14.2-3-21.2c-2-8.8-4.3-17.5-9.5-25
		c-2.2-3.1-4.9-5.5-8.9-5.7c-3.3-0.3-6.5-0.3-9.8-0.2c-20.3,1.5-39.3,7.9-57.8,16.1c-1.6,0.7-0.9,1.5-0.5,2.4
		c2.8,6.3,5.2,12.8,7,19.4c0.8,2.9,2.7,4.1,5.4,4.8c8.8,2.4,17.6,5.2,24.5,11.5c3.7,3.4,7.3,3.9,12,2.6
		C478.4,85.4,491.8,83.5,505.8,84.5L505.8,84.5z M376.5,83c-5.8-0.2-10.8,3.7-12.2,9.3c-1.8,6.2,0.4,12,5.4,15c2,1.1,3.1,1,4-1.5
		c2-5.6,5.4-10.5,8.9-15.3c0.9-1.3,3.7-1.9,2.5-4.1c-0.9-1.5-2.9-2.1-4.6-2.7C379.2,83.2,377.8,83,376.5,83L376.5,83z M475.3,146.9
		c-0.3-3.2-2-6.2-4.6-8.2c-1.2-0.9-2.2-1.1-2.9,0.7c-1.9,5-4.3,9.8-7,14.4c-1,1.8-0.6,2.8,1.3,3.4
		C468.1,158.9,475.4,153.4,475.3,146.9z"/>
	<path id="パス_3723" class="st1" d="M360.5,0.5c-0.3,0.1-0.6,0.3-0.8,0.4l-7,0c-0.3-0.1-0.5-0.2-0.8-0.4H360.5z"/>
	<path id="パス_3724" class="st2" d="M293.6,63c-2.3,6.3-4.8,12.4-6.1,18.9c-3.1,14.8-3.8,29.6,1.5,44
		c6.8,18.6,20.7,28.4,40.2,30.5c11.5,1.3,22.5-1.1,33.3-4.9c1.3-0.4,2.5-1,3.8-1.4c7.1-2.6,7.4-2.4,11.4,4.1
		c5.1,8.2,13,13.1,21.4,17.4c5.4,2.9,11.4,4.6,17.6,4.8c2.8,0.1,4.5,1.4,5.9,3.8c5.7,10,12.1,19.5,21.4,26.4
		c16.1,11.9,33.3,12.2,51,3.9c8.8-4.1,16.3-9.9,23.6-16.7c2.7,7.5,4.8,15.3,6.3,23.1c1.3,6.4,2,12.9,2.1,19.4
		c0.1,5.4-0.6,6.5-5.9,7.7c-6.3,1.4-12.6,2.6-18.8,4c-2.4,0.4-4.6,1.6-6.3,3.2c-1.9,1.6-2.6,4.2-2,6.6c0.7,2.5,2.8,3.5,5.1,4.1
		c4.6,1,9.2,0,13.7-0.7c3.5-0.7,7-1.2,10.5-1.5c2.6-0.1,4,1.1,4,3.7c0,9-1,18-3,26.8c-0.3,1.7-1.7,2.9-3.4,2.9
		c-3.3,0.4-6.7,0.6-10.1,0.6c-1.4-0.1-2.9,0.2-4.2,0.7c-3.5,1.3-4.5,4.9-2.3,8c1.2,1.6,2.9,2.8,4.9,3.5c1.7,0.6,3.5,1.1,5.2,1.6
		c4.8,1.4,5.2,2,3.5,6.8c-2.8,7.9-6.8,15.2-10.6,22.6c-1,2.1-3.3,3.2-5.5,2.7c-3.5-0.5-7-1-10.6-1.3c-1.4-0.2-2.9-0.1-4.3,0.2
		c-3.3,0.8-5.3,4.1-4.6,7.4c0.3,1.2,0.9,2.2,1.7,3c1.9,1.9,4.4,3,6.9,4.1c2.1,0.9,2.6,2.3,1.3,4.3c-3.3,4.8-7.6,8.6-11.9,12.5
		c-1,1-1.9,0.2-2.8-0.2c-11.9-5.1-24.7-7.5-37.6-6.9c-19.7,0.8-37.5,6.6-51.7,21c-6.9,6.7-11.6,15.5-13.3,25
		c-0.3,1.6-0.8,2.3-2.7,2.5c-21.7,2.7-43.7,3.8-65.6,3.2c-22-0.5-43.9-2.4-65.7-5.8c-1.1-0.2-1.8-0.3-2.2-1.7
		c-4.7-18.5-17.1-30.4-34-37.5c-23.2-9.8-46.5-9-69.6,0.8c-2.3,1-4,1.3-5.8-0.6c-0.8-0.7-1.6-1.4-2.5-2c-3.3-2.7-3.1-4.3,0.8-6.2
		c2.7-1.4,5.7-2.3,8.1-4.3c2.7-2.2,3.6-4.5,2.7-7c-1-2.6-3.2-3.9-6.7-3.8c-4.3,0.2-8.2,1.9-12.2,3.1c-1.7,0.5-3.4,1.2-5.1,1.8
		c-2.2,0.9-4.7,0.3-6.3-1.4c-7-6.5-11.4-14.6-15.6-22.9c-1-2-0.2-3.3,1.8-4c3.3-1,6.6-2,9.9-3c1.9-0.5,3.6-1.4,5-2.7
		c2.1-1.9,2.2-4.2,0.2-6.3c-1.9-1.9-4.3-2.4-6.9-2.2c-4.6,0.3-9.2,0.5-13.8,0.9c-2,0.3-3.9-0.8-4.5-2.7c-3.8-9.1-6.5-18.6-8-28.3
		c-0.4-2.6,0.8-3.8,3.4-3.7c3.9,0.1,7.9,0.1,11.8,0.3c3.7,0.3,7.5,0.2,11.2-0.2c3.1-0.5,4.8-2,5.2-4.8c0.5-3.2-0.7-5.5-3.7-6.7
		c-4.9-1.9-10-2.5-15.2-3c-3.1-0.3-6.3-0.4-9.5-0.7c-4.5-0.4-5.7-1.7-5.8-6.2c-0.2-9.5,0.7-19,2.4-28.4
		c4.3-22.5,11.6-43.8,23.2-63.6c3.1-5.2,6.6-10.1,9.8-15.2c1.4-2,2.4-4.2,3-6.5c0.7-3.1-0.4-6.3-3-8.1c-2.6-1.6-5.9-1.5-8.4,0.3
		c-0.1,0.1-0.1,0.1-0.2,0.2c-4.4,3.1-4.5,3.1-6.2-2.3c-7.5-24.7-5-48.6,7.2-71.2c6.9-12.8,12.4-15.1,27.3-13.1
		c22.6,3,43.2,11.9,62.8,23.3c1.7,1,3.5,2,5.2,3c4.2,2.3,9.1,2.8,13.6,1.4c12.2-3.7,24.8-5.1,37.3-6.6c14.4-1.7,28.9-2.6,43.4-3.4
		C292.1,63,292.8,63,293.6,63z M306.5,348.1c4.3,0.2,8.6-0.5,12.7-1.9c7.5-3,12.6-8.1,13.6-16.4c1-8.3-3.2-14.3-9.9-18.4
		c-10.5-6.4-21.7-6.3-32.9-1.9c-8.5,3.4-12.7,10.1-12.5,18.5c0.2,8,5.3,14.6,13.7,17.7C296.1,347.3,301.3,348.1,306.5,348.1
		L306.5,348.1z"/>
	<path id="パス_3725" class="st2" d="M171.5,377.8c15.1,0.3,29.1,4,40.9,14.1c19,16.4,14,44.6,0.3,56.1c-6.4,5.3-13.9,7.2-22,6.9
		c-5.2-0.2-10.3-1.2-15.2-2.9c-3.1-1.2-6.6-0.7-9.2,1.3c-6.4,4.4-13.3,7.8-21,8.6c-14,1.6-24.1-4.9-31-16.6
		c-9.9-16.7-6.9-35.3,7.8-49c11.2-10.5,24.8-16,39.9-18C165.1,377.9,168.3,377.7,171.5,377.8z"/>
	<path id="パス_3726" class="st2" d="M445,377.8c16.7,0.5,33.9,6,47.8,19.8c8,7.9,12.7,17.4,12.5,29c-0.4,14.6-10.3,29.4-23.1,34
		c-8.9,3.2-17.6,1.6-25.9-2.2c-2.9-1.3-5.7-2.8-8.2-4.7c-3.4-2.5-6.8-2.8-10.8-1.5c-8,2.7-16.3,3.8-24.6,1.6
		c-13-3.4-19.9-12.8-22.6-25.3c-4.2-19.3,4.3-35.3,23-44.3C422.3,379.7,432.2,377.8,445,377.8z"/>
	<path id="パス_3727" class="st3" d="M302.1,103.8c1.2-22.8,9.1-44.6,22.9-62.8c3.8-5.1,8.3-9.6,13.3-13.4
		c13.3-10.2,27.7-8.9,39,0.3c13.2,10.8,21.8,25.1,27.2,41.2c0.9,2.1,0.5,4.5-1,6.2c-2.1,2.4-4.2,2.6-6.7,0.7
		c-6.1-4.8-12.8-8.1-20.8-8.1c-12.9,0.1-24.9,10.7-26.7,23.5c-1.8,12.7,2.8,22.3,13.7,28.9c0.9,0.5,1.8,1.1,2.7,1.6
		c4.5,2.7,4.6,8.3,0.1,11.1c-4.2,2.6-9,3.8-13.8,4.9c-7.6,1.8-15.4,2.8-23.1,1.3c-14.6-2.7-23.5-11.9-26.2-26.6
		C302.4,109.8,302.1,106.8,302.1,103.8z"/>
	<path id="パス_3728" class="st4" d="M494.4,101.5c8.4,0.3,16.5,1.5,23.7,5.9c9.9,6,15.2,17.3,13.5,28.8c-2.1,15.2-9,28-19.2,39.1
		c-6.6,7.2-13.7,13.7-22.2,18.6c-18.9,10.6-40.2,4.6-51.2-16.5c-1.1-2.2-0.7-3.9,1.3-5.2c2.1-1.3,4.2-2.6,6.4-3.9
		c1.7-1.1,3.9-1.3,5.8-0.4c6.3,2.4,13.2,2.8,19.8,1.1c9.4-2.3,15.7-10.3,16.5-20.5c0.9-11.6-5.1-19.3-14.3-25
		c-4.7-2.9-7.4-9.5-5.9-14.7c0.5-1.8,2.1-2.4,3.6-3C479.2,103.1,486.8,101.7,494.4,101.5z"/>
	<path id="パス_3729" class="st3" d="M454,123.3c-0.8,20.4-15.5,37.3-34.5,37.4c-18.5,0.1-34.5-15.8-34-34
		c0.6-20.2,11.6-35.5,34.8-36C438.4,90.4,453.9,105.8,454,123.3z"/>
	<path id="パス_3730" class="st2" d="M505.8,84.5c-14-1-27.4,0.9-40.6,4.5c-4.8,1.3-8.3,0.9-12-2.6c-6.9-6.3-15.6-9.1-24.5-11.5
		c-2.7-0.7-4.7-1.8-5.4-4.8c-1.9-6.6-4.2-13.1-7-19.4c-0.4-0.9-1.1-1.7,0.5-2.4c18.5-8.2,37.5-14.5,57.8-16.1
		c3.3-0.1,6.5-0.1,9.8,0.2c4,0.2,6.7,2.6,8.9,5.7c5.3,7.5,7.6,16.3,9.5,25C504.3,70.3,505.3,77.3,505.8,84.5z"/>
	<path id="パス_3731" class="st5" d="M376.5,83c1.4,0,2.7,0.2,4,0.7c1.7,0.6,3.8,1.2,4.6,2.7c1.3,2.2-1.5,2.8-2.5,4.1
		c-3.5,4.8-6.9,9.7-8.9,15.3c-0.9,2.5-2.1,2.6-4,1.5c-5-2.9-7.2-8.8-5.4-15C365.6,86.7,370.7,82.8,376.5,83z"/>
	<path id="パス_3732" class="st1" d="M475.3,146.9c0.1,6.5-7.2,12-13.1,10.3c-2-0.6-2.4-1.6-1.3-3.4c2.8-4.6,5.1-9.4,7-14.4
		c0.7-1.8,1.7-1.6,2.9-0.7C473.3,140.7,475,143.6,475.3,146.9z"/>
	<path id="パス_3733" class="st6" d="M306.5,348.1c-5.2,0.1-10.4-0.7-15.3-2.5c-8.5-3.1-13.5-9.6-13.7-17.7
		c-0.2-8.4,4-15.1,12.5-18.5c11.1-4.4,22.4-4.5,32.9,1.9c6.7,4.1,10.9,10.1,9.9,18.4c-1,8.3-6.1,13.4-13.6,16.4
		C315.1,347.6,310.8,348.3,306.5,348.1z M306.7,337.5c2.3,0,4.6-0.4,6.7-1.2c3.4-1.2,5.9-3.2,6.3-7c0.6-3.8-1.4-7.4-4.9-9
		c-6.2-3.4-13.6-3.5-19.9-0.2c-6.5,3.2-6.6,10.8-0.4,14.7C297.9,336.8,301.7,337.5,306.7,337.5L306.7,337.5z"/>
	<path id="パス_3734" class="st7" d="M306.7,337.5c-4.9,0-8.7-0.7-12.2-2.8c-6.3-3.8-6.2-11.4,0.4-14.7c6.3-3.2,13.7-3.1,19.9,0.2
		c3.5,1.6,5.5,5.2,4.9,9c-0.4,3.9-2.9,5.8-6.3,7C311.2,337.1,308.9,337.5,306.7,337.5z"/>
	<path id="パス_3735" d="M199.1,288.4c0.1,4-0.7,8.1-2.3,11.7c-3.4,7.7-9.6,11.6-16.9,10.8c-8.2-0.9-13.7-6-15.3-14.4
		c-1.4-7.3-0.4-14.9,2.8-21.6c3.1-6.8,8.7-10.1,15.9-9.7c6.7,0.4,11.6,4.3,14.1,11.3c0.5,1.5,0.9,2.9,1.2,4.4
		C199,283.4,199.2,285.9,199.1,288.4z"/>
	<path id="パス_3736" d="M439.6,287.2c0.3,5.5-1,11-3.7,15.8c-6.9,12.4-22.4,8.4-27.2,0.5c-5.3-8.7-5-23.2,1-31.4
		c3.9-5.4,9.3-7.2,15.7-6.3c6,0.9,10.1,4.3,12.3,10C439.1,279.4,439.7,283.3,439.6,287.2z"/>
</g>
</svg>
